<svg width="24" height="24" viewBox="0 0 24 24" fill="none" xmlns="http://www.w3.org/2000/svg">
<path d="M8.00066 16.2112L8.00066 7.79117C8.00018 7.45876 8.09385 7.133 8.27082 6.85161C8.4478 6.57023 8.70084 6.34471 9.00066 6.20117C9.3564 6.03314 9.7522 5.96842 10.1429 6.01439C10.5337 6.06035 10.9036 6.21516 11.2107 6.46117L16.3107 10.6712C16.5013 10.8364 16.6542 11.0407 16.759 11.2701C16.8637 11.4996 16.918 11.7489 16.918 12.0012C16.918 12.2534 16.8637 12.5027 16.759 12.7322C16.6542 12.9617 16.5013 13.166 16.3107 13.3312L11.2107 17.5412C10.9036 17.7872 10.5337 17.942 10.1429 17.988C9.75219 18.0339 9.3564 17.9692 9.00066 17.8012C8.70084 17.6576 8.44779 17.4321 8.27082 17.1507C8.09385 16.8693 8.00018 16.5436 8.00066 16.2112ZM10.0007 8.00117L10.0007 15.9012L14.8207 12.0012L10.0007 8.00117Z" fill="#C5C4C4"/>
</svg>
