<svg width="100" height="100" viewBox="0 0 100 100" fill="none" xmlns="http://www.w3.org/2000/svg">
<path d="M50.7318 83.2799C32.352 83.2799 17.3984 68.3268 17.3984 49.9465C17.3984 31.5662 32.352 16.6133 50.7318 16.6133C69.1117 16.6133 84.0652 31.5664 84.0652 49.9467C84.0652 68.327 69.1117 83.2799 50.7318 83.2799ZM50.7318 19.748C34.0803 19.748 20.5332 33.2949 20.5332 49.9467C20.5332 66.5984 34.0801 80.1453 50.7318 80.1453C67.3836 80.1453 80.9305 66.5984 80.9305 49.9467C80.9305 33.2949 67.3834 19.748 50.7318 19.748Z" fill="#68727E"/>
<path d="M50.7316 43.3633C44.3359 43.3633 39.1328 48.5664 39.1328 54.9621C39.1328 61.3578 44.3359 66.5609 50.7316 66.5609C57.1273 66.5609 62.3305 61.3578 62.3305 54.9621C62.3305 48.5664 57.1273 43.3633 50.7316 43.3633Z" fill="#FFD791"/>
<path d="M53.9709 64.7873C47.5752 64.7873 42.3721 59.5842 42.3721 53.1885C42.3721 49.4689 44.1338 46.1553 46.8646 44.0312C42.365 45.6275 39.1328 49.9246 39.1328 54.9648C39.1328 61.3605 44.3359 66.5637 50.7316 66.5637C53.4076 66.5637 55.873 65.6502 57.8379 64.1221C56.6275 64.5514 55.3266 64.7873 53.9709 64.7873Z" fill="#FFC44F"/>
<path d="M59.091 66.7695H42.3721C37.8203 66.7695 34.1172 70.4728 34.1172 75.0244V98.4309C34.1172 99.2965 34.8187 99.9982 35.6846 99.9982H65.7785C66.6443 99.9982 67.3459 99.2965 67.3459 98.4309V75.0246C67.3461 70.4728 63.6428 66.7695 59.091 66.7695Z" fill="#ECEDEF"/>
<path d="M37.3564 98.4309V75.0244C37.3564 70.4727 41.0598 66.7695 45.6113 66.7695H42.3721C37.8203 66.7695 34.1172 70.4729 34.1172 75.0244V98.4309C34.1172 99.2965 34.8187 99.9982 35.6846 99.9982H38.9238C38.058 99.9982 37.3564 99.2965 37.3564 98.4309Z" fill="#D9DCDF"/>
<path d="M55.6362 91.6016L53.9643 73.2107C53.8909 72.4035 53.2141 71.7852 52.4034 71.7852H49.0596C48.2489 71.7852 47.5721 72.4033 47.4987 73.2107L45.8268 91.6016C45.7682 92.2441 46.1098 92.857 46.6866 93.1453L50.0303 94.8172C50.251 94.9275 50.4911 94.9826 50.7313 94.9826C50.9713 94.9826 51.2118 94.9273 51.4323 94.8172L54.776 93.1453C55.3532 92.857 55.6948 92.2441 55.6362 91.6016Z" fill="#509FE8"/>
<path d="M53.9643 73.2107C53.8908 72.4035 53.2141 71.7852 52.4033 71.7852H49.0596C48.2488 71.7852 47.5721 72.4033 47.4986 73.2107L47.2324 76.1391H54.2303L53.9643 73.2107Z" fill="#4D8CCF"/>
<path d="M54.0753 66.7695H47.3878C46.8839 66.7695 46.4109 67.0117 46.1163 67.4205C45.8216 67.8293 45.7413 68.3547 45.9009 68.8326L47.5728 73.8482H53.8903L55.5622 68.8326C55.7216 68.3547 55.6415 67.8293 55.3468 67.4205C55.0523 67.0117 54.5792 66.7695 54.0753 66.7695Z" fill="#509FE8"/>
<path d="M19.0693 0C12.6738 0 7.4707 5.20313 7.4707 11.5988C7.4707 17.9945 12.6738 23.1977 19.0695 23.1977C25.4652 23.1977 30.6684 17.9945 30.6684 11.5988C30.6684 5.20313 25.465 0 19.0693 0Z" fill="#FFD791"/>
<path d="M22.3088 21.4201C15.9131 21.4201 10.71 16.217 10.71 9.82129C10.71 6.10176 12.4717 2.78809 15.2025 0.664062C10.7029 2.26035 7.4707 6.55762 7.4707 11.5977C7.4707 17.9934 12.6738 23.1965 19.0695 23.1965C21.7455 23.1965 24.2109 22.283 26.1758 20.7549C24.9654 21.1842 23.6645 21.4201 22.3088 21.4201Z" fill="#FFC44F"/>
<path d="M27.4289 23.4062H10.71C6.1582 23.4062 2.45508 27.1096 2.45508 31.6611V55.0676C2.45508 55.9332 3.15664 56.635 4.02246 56.635H34.1164C34.9822 56.635 35.6838 55.9332 35.6838 55.0676V31.6613C35.6838 27.1096 31.9807 23.4062 27.4289 23.4062Z" fill="#ECEDEF"/>
<path d="M5.69434 55.0676V31.6611C5.69434 27.1094 9.39766 23.4062 13.9492 23.4062H10.71C6.1582 23.4062 2.45508 27.1096 2.45508 31.6611V55.0676C2.45508 55.9332 3.15664 56.635 4.02246 56.635H7.26172C6.3959 56.635 5.69434 55.9332 5.69434 55.0676Z" fill="#D9DCDF"/>
<path d="M23.9741 48.2383L22.3022 29.8475C22.2288 29.0402 21.552 28.4219 20.7413 28.4219H17.3975C16.5868 28.4219 15.91 29.04 15.8366 29.8475L14.1647 48.2383C14.1061 48.8809 14.4477 49.4937 15.0245 49.782L18.3682 51.4539C18.5889 51.5643 18.829 51.6193 19.0692 51.6193C19.3092 51.6193 19.5497 51.5641 19.7702 51.4539L23.1139 49.782C23.6911 49.4936 24.0325 48.8809 23.9741 48.2383Z" fill="#FF8C78"/>
<path d="M22.3021 29.8475C22.2287 29.0402 21.552 28.4219 20.7412 28.4219H17.3975C16.5867 28.4219 15.91 29.04 15.8365 29.8475L15.5703 32.7758H22.5682L22.3021 29.8475Z" fill="#DF7A6E"/>
<path d="M22.4132 23.4062H15.7257C15.2218 23.4062 14.7487 23.6484 14.4542 24.0572C14.1595 24.466 14.0792 24.9914 14.2388 25.4693L15.9107 30.485H22.2282L23.9001 25.4693C24.0595 24.9914 23.9794 24.466 23.6847 24.0572C23.3902 23.6484 22.9169 23.4062 22.4132 23.4062Z" fill="#FF8C78"/>
<path d="M80.9309 0C74.5352 0 69.332 5.20313 69.332 11.5988C69.332 17.9945 74.5352 23.1977 80.9309 23.1977C87.3266 23.1977 92.5297 17.9945 92.5297 11.5988C92.5297 5.20313 87.3264 0 80.9309 0Z" fill="#FFD791"/>
<path d="M84.1701 21.4201C77.7744 21.4201 72.5713 16.217 72.5713 9.82129C72.5713 6.10176 74.333 2.78809 77.0639 0.664062C72.5643 2.26035 69.332 6.55742 69.332 11.5977C69.332 17.9934 74.5352 23.1965 80.9309 23.1965C83.6068 23.1965 86.0723 22.283 88.0371 20.7549C86.8268 21.1842 85.5258 21.4201 84.1701 21.4201Z" fill="#FFC44F"/>
<path d="M89.2902 23.4062H72.5713C68.0195 23.4062 64.3164 27.1096 64.3164 31.6611V55.0676C64.3164 55.9332 65.018 56.635 65.8838 56.635H95.9777C96.8436 56.635 97.5451 55.9332 97.5451 55.0676V31.6613C97.5451 27.1096 93.842 23.4062 89.2902 23.4062Z" fill="#ECEDEF"/>
<path d="M67.5557 55.0676V31.6611C67.5557 27.1094 71.259 23.4062 75.8105 23.4062H72.5713C68.0195 23.4062 64.3164 27.1096 64.3164 31.6611V55.0676C64.3164 55.9332 65.018 56.635 65.8838 56.635H69.123C68.2572 56.635 67.5557 55.9332 67.5557 55.0676Z" fill="#D9DCDF"/>
<path d="M85.8354 48.2383L84.1635 29.8475C84.0901 29.0402 83.4133 28.4219 82.6026 28.4219H79.2588C78.4481 28.4219 77.7713 29.04 77.6979 29.8475L76.026 48.2383C75.9674 48.8809 76.309 49.4937 76.8858 49.782L80.2295 51.4539C80.4503 51.5643 80.6903 51.6193 80.9305 51.6193C81.1708 51.6193 81.411 51.5641 81.6315 51.4539L84.9753 49.782C85.5524 49.4936 85.8938 48.8809 85.8354 48.2383Z" fill="#C4DF64"/>
<path d="M84.1635 29.8475C84.09 29.0402 83.4133 28.4219 82.6025 28.4219H79.2588C78.448 28.4219 77.7713 29.04 77.6979 29.8475L77.4316 32.7758H84.4295L84.1635 29.8475Z" fill="#AFCA62"/>
<path d="M84.2745 23.4062H77.587C77.0831 23.4062 76.6101 23.6484 76.3155 24.0572C76.0208 24.466 75.9405 24.9914 76.1001 25.4693L77.772 30.485H84.0896L85.7614 25.4693C85.9208 24.9914 85.8407 24.466 85.546 24.0572C85.2515 23.6484 84.7784 23.4062 84.2745 23.4062Z" fill="#C4DF64"/>
</svg>
