<svg width="161" height="183" viewBox="0 0 161 183" fill="none" xmlns="http://www.w3.org/2000/svg">
<path d="M1 1C1.09607 1 3.85543 1.29649 8.73731 2.25093C12.4614 3.91927 17.4229 8.49504 26.7787 20.8225C32.7719 29.6152 41.2941 43.5588 49.9641 57.1017" stroke="#F5F5F5" stroke-width="2" stroke-linecap="round"/>
<path d="M11.1992 59.7583C20.7827 59.8991 47.3183 61.7801 59.9129 63.2942C64.5121 63.2131 65.4728 61.4077 65.9677 55.9316C66.4626 50.4555 66.4626 41.3636 66.4626 31.9961" stroke="#F5F5F5" stroke-width="2" stroke-linecap="round"/>
<path d="M70.9462 103.942C70.2841 98.9275 69.1629 90.0905 69.9045 85.2262C70.6461 80.3619 72.5882 75.8773 76.6404 74.1028C80.1451 72.5755 84.515 74.1911 87.0399 77.9695C88.4789 80.1236 89.2999 82.7809 89.9973 85.4116C91.1891 89.9316 92.3279 96.1113 92.9018 100.764" stroke="#00796B" stroke-width="0.375" stroke-miterlimit="10"/>
<path d="M74.2575 172.084L52.9199 163.195L57.8725 141.354L56.8131 91.5808L110.806 85.2422V89.9564L123.651 91.5808L74.2575 172.084Z" fill="#26A69A"/>
<path d="M128.233 163.964L74.2488 172.139L69.6582 143.553V99.748L123.651 91.582V135.378L128.233 163.964Z" fill="#61DE9F"/>
<path d="M69.6574 99.7473V94.8212L56.8125 91.5813L110.911 85.5781L112.642 89.4095L123.65 91.5813L69.6574 99.7473Z" fill="#263238"/>
<path d="M52.9199 163.194C53.2907 163.194 65.703 153.35 65.703 153.35L74.2487 172.137L72.4124 142.183L69.6316 99.7461L66.0209 145.608L52.9199 163.194Z" fill="#00796B"/>
<path d="M110.753 86.1409L112.06 89.1602L112.228 89.5574L112.643 89.6634L119.219 91.3495L70.5412 98.721V94.1304L69.8702 93.9627L61.6777 91.8969L110.753 86.1409ZM111.309 85.1875L56.8223 91.5791L69.6672 94.819V99.7539L123.651 91.5791L112.872 88.807L111.309 85.1875Z" fill="#26A69A"/>
<path d="M85.9459 103.056C85.2838 98.0501 78.389 78.8224 91.5871 76.3682C101.563 74.5143 105.968 95.7636 106.551 100.425" stroke="#61DE9F" stroke-width="0.375" stroke-miterlimit="10"/>
<path d="M87.5872 104.453C86.8191 101.866 86.0158 96.6397 85.9805 96.4102L88.5936 96.0129C88.6024 96.0659 89.5382 101.398 90.5623 103.896L87.5872 104.453ZM108.174 101.319C107.406 98.732 106.603 93.5057 106.568 93.2762L109.181 92.8789C109.19 92.9319 110.275 98.3523 111.185 100.771L108.174 101.319ZM88.4965 169.984L95.9121 157.139L92.372 122.895L122.008 117.13L106.117 167.353L88.4965 169.984Z" fill="#26A69A"/>
<path d="M111.653 119.479C111.653 119.479 108.316 101.761 119.431 102.935C125.478 103.57 125.231 117.634 125.231 117.634" stroke="#D7578A" stroke-width="0.375" stroke-miterlimit="10"/>
<path d="M112.88 178.574L96.4863 171.714L100.3 154.923L99.4879 116.662L140.98 111.789V115.417L150.85 116.662L112.88 178.574Z" fill="#D7578A"/>
<path d="M154.372 172.295L112.88 178.581L109.357 156.607V122.946L150.85 116.66V150.331L154.372 172.295Z" fill="#FF9F9F"/>
<path d="M109.358 122.948L106.039 120.405L99.4883 116.662L140.98 111.789L144.75 114.164L150.85 116.662L109.358 122.948Z" fill="#263238"/>
<path d="M140.822 112.698L147.928 116.203L109.544 122.012L102.048 117.245L140.822 112.698ZM140.98 111.789L99.4883 116.662L109.358 122.948L150.85 116.662L140.98 111.789Z" fill="#D7578A"/>
<path d="M123.385 126.326C122.794 124.349 122.185 120.332 122.158 120.164L124.489 119.864C124.498 119.908 125.089 123.952 125.636 125.814L123.385 126.326ZM139.179 123.899C138.587 121.921 137.978 117.904 137.952 117.737L140.256 117.445C140.265 117.489 140.741 121.656 141.289 123.519L139.179 123.899Z" fill="#D7578A"/>
<path d="M122.079 126.417C121.567 122.567 116.323 106.341 126.211 104.973C133.935 103.905 137.264 119.884 137.714 123.459" stroke="#FF9F9F" stroke-width="0.375" stroke-miterlimit="10"/>
<path d="M96.4863 171.715L104.864 164.617L112.88 178.583L109.375 156.743L109.411 123.055L108.422 122.648L105.297 156.893L96.4863 171.715Z" fill="#AB2C5E"/>
</svg>
