<svg width="135" height="124" viewBox="0 0 135 124" fill="none" xmlns="http://www.w3.org/2000/svg">
<path d="M67.5672 118.645C96.5107 118.645 119.974 97.0931 119.974 70.5079C119.974 43.9227 96.5107 22.3711 67.5672 22.3711C38.6236 22.3711 15.1602 43.9227 15.1602 70.5079C15.1602 97.0931 38.6236 118.645 67.5672 118.645Z" fill="#DDDCDC"/>
<path d="M67.5684 22.3734C96.5124 22.3734 119.975 43.9246 119.975 70.5102C119.975 97.0958 96.5124 118.647 67.5684 118.647C38.6244 118.647 15.1614 97.0958 15.1614 70.5102C15.1614 43.9246 38.6244 22.3734 67.5684 22.3734ZM67.5684 20.9102C37.7928 20.9102 13.5684 43.1607 13.5684 70.5102C13.5684 97.8596 37.7928 120.11 67.5684 120.11C97.344 120.11 121.568 97.8596 121.568 70.5102C121.568 43.1607 97.344 20.9102 67.5684 20.9102Z" fill="#828084"/>
<path d="M67.5672 114.986C39.2928 114.986 16.2672 94.4022 15.2115 68.6797C15.1872 69.2873 15.1602 69.8949 15.1602 70.5074C15.1602 97.093 38.6232 118.644 67.5672 118.644C96.5112 118.644 119.974 97.093 119.974 70.5074C119.974 69.8949 119.95 69.2873 119.923 68.6797C118.875 94.4146 95.8497 114.986 67.5672 114.986Z" fill="white"/>
<path d="M67.5679 108.769C91.3968 108.769 110.714 91.0255 110.714 69.1382C110.714 47.2509 91.3968 29.5078 67.5679 29.5078C43.739 29.5078 24.4219 47.2509 24.4219 69.1382C24.4219 91.0255 43.739 108.769 67.5679 108.769Z" fill="#A5A4A4"/>
<path d="M81.8105 22.9218C81.8105 22.9218 83.8031 11.2162 89.7755 7.37466C95.7479 3.53314 121.636 5.5469 100.929 51.6402L96.7469 40.8497C96.7469 40.8497 102.522 27.3139 100.729 21.4586C98.9366 15.6033 93.1694 14.6907 90.7718 30.6048L81.8105 22.9218Z" fill="white"/>
<path d="M95.1892 6.07685C104.215 6.07685 117.529 14.7147 100.937 51.6394L96.7552 40.8489C96.7552 40.8489 102.53 27.3131 100.738 21.4578C100.019 19.1167 98.6668 17.5667 97.1467 17.5667C94.8679 17.5667 92.2138 21.056 90.7801 30.604L81.8107 22.921C81.8107 22.921 83.8033 11.2154 89.7757 7.37389C90.9664 6.61005 92.9428 6.07685 95.1757 6.07685M95.1757 4.61365C92.7052 4.61365 90.4021 5.18405 88.8577 6.17605C82.402 10.3276 80.3176 22.1944 80.2312 22.6953L80.1016 23.4616L80.7307 23.9924L89.692 31.6804L91.9357 33.6048L92.3569 30.8099C93.7987 21.1974 96.361 19.0348 97.144 19.0348C97.6381 19.0348 98.6047 19.9103 99.2014 21.8596C100.551 26.274 96.82 36.6801 95.2702 40.3182L95.0515 40.8291L95.2513 41.3424L99.4336 52.1354L100.824 55.724L102.406 52.2024C113.463 27.5983 111.027 15.9076 107.042 10.4342C105.753 8.63196 103.993 7.15505 101.922 6.13832C99.8517 5.12158 97.5369 4.59741 95.1892 4.61365H95.1757Z" fill="#828084"/>
<path d="M97.9486 13.7756C92.1733 15.7869 90.5803 26.5799 90.5803 26.5799C90.5803 26.5799 87.8587 26.0194 84.6133 25.3151L90.7801 30.6024C93.1696 14.6883 98.9449 15.6034 100.738 21.4562C102.53 27.309 96.7552 40.8473 96.7552 40.8473L99.1123 46.9283C99.5713 45.7081 100.106 44.364 100.732 42.8586C110.096 20.5436 103.724 11.7619 97.9486 13.7756Z" fill="#CACACA"/>
<path d="M102.601 55.599C100.624 34.2512 83.5983 16.8242 60.2541 16.8242C54.692 16.8232 49.1842 17.8287 44.0451 19.7831C38.9061 21.7375 34.2366 24.6026 30.3032 28.2148C26.3699 31.827 23.2497 36.1155 21.1209 40.8354C18.9922 45.5553 17.8965 50.6141 17.8965 55.723C17.8965 60.9682 19.4328 65.8315 21.0798 70.5311C27.9864 90.2322 49.7403 103.329 72.1098 99.5198C94.8195 95.6535 104.539 76.6319 102.601 55.599Z" fill="white"/>
<path d="M60.2452 16.8226C83.5894 16.8226 100.616 34.2495 102.592 55.5974C104.539 76.6303 94.8187 95.6519 72.1144 99.5182C69.5448 99.9602 66.9365 100.185 64.3222 100.19C44.8606 100.19 27.1783 87.9415 21.079 70.5419C19.432 65.8423 17.8957 60.979 17.8957 55.7338C17.894 50.6245 18.9881 45.5649 21.1155 40.844C23.243 36.1232 26.3621 31.8336 30.2948 28.2202C34.2275 24.6068 38.8967 21.7404 44.0357 19.7848C49.1746 17.8291 54.6827 16.8226 60.2452 16.8226ZM60.2452 15.3594C36.0154 15.3594 16.3027 33.4634 16.3027 55.7214C16.3027 61.2146 17.9227 66.2713 19.5643 70.9783C25.8904 89.0327 44.2963 101.641 64.3222 101.641C67.033 101.64 69.738 101.411 72.4033 100.957C93.925 97.2936 106.399 79.4401 104.18 55.4734C102.02 32.2308 83.5516 15.3594 60.2452 15.3594Z" fill="#828084"/>
<path d="M70.7391 94.5804C54.4581 97.1497 38.493 92.0062 27.5391 82.3342C37.4697 95.121 54.5958 102.494 72.1053 99.5131C90.5571 96.3784 100.439 83.2344 102.445 67.1367C98.9109 80.9305 88.5267 91.7582 70.7391 94.5804Z" fill="#CACACA"/>
<path d="M59.34 96.4262C36.2415 96.4262 23.943 80.0409 23.8053 79.8499C23.6989 79.6891 23.664 79.4968 23.708 79.313C23.7519 79.1291 23.8713 78.9679 24.0413 78.8629C24.2113 78.7578 24.4189 78.717 24.6208 78.7488C24.8227 78.7807 25.0035 78.8828 25.1256 79.034C25.2795 79.2423 40.7181 99.7643 69.5001 93.914C69.7042 93.8773 69.9159 93.9154 70.0898 94.0201C70.2638 94.1248 70.3862 94.2879 70.431 94.4744C70.4758 94.661 70.4393 94.8562 70.3295 95.0184C70.2196 95.1806 70.045 95.2969 69.843 95.3425C66.3955 96.0545 62.8736 96.4179 59.34 96.4262Z" fill="#828084"/>
<path d="M74.6505 94.4422C74.4662 94.4251 74.2938 94.3505 74.1621 94.2308C74.0304 94.1111 73.9474 93.9536 73.9269 93.7844C73.9063 93.6153 73.9495 93.4448 74.0493 93.3014C74.149 93.158 74.2993 93.0504 74.475 92.9964C78.6681 91.9423 82.5608 90.0619 85.8825 87.4858C85.9608 87.4177 86.0534 87.3648 86.1546 87.3305C86.2558 87.2961 86.3635 87.281 86.4712 87.2861C86.579 87.2912 86.6845 87.3163 86.7813 87.36C86.8782 87.4036 86.9644 87.4649 87.0347 87.54C87.105 87.6152 87.1579 87.7027 87.1903 87.7972C87.2227 87.8917 87.2338 87.9913 87.223 88.0899C87.2122 88.1885 87.1797 88.2841 87.1275 88.3708C87.0753 88.4575 87.0045 88.5336 86.9193 88.5944C83.4109 91.3404 79.2793 93.3324 74.826 94.4249C74.7684 94.4366 74.7095 94.4424 74.6505 94.4422Z" fill="#828084"/>
<path d="M59.8491 88.2826C79.6459 88.2826 95.6943 73.5418 95.6943 55.3581C95.6943 37.1744 79.6459 22.4336 59.8491 22.4336C40.0524 22.4336 24.0039 37.1744 24.0039 55.3581C24.0039 73.5418 40.0524 88.2826 59.8491 88.2826Z" fill="#8B644B"/>
<path d="M59.8484 22.4359C66.9379 22.4359 73.8682 24.3668 79.7629 27.9846C85.6576 31.6024 90.252 36.7445 92.965 42.7607C95.678 48.7768 96.3879 55.3969 95.0048 61.7836C93.6217 68.1703 90.2078 74.0369 85.1947 78.6415C80.1817 83.246 73.7947 86.3818 66.8414 87.6522C59.8881 88.9226 52.6808 88.2706 46.131 85.7786C39.5811 83.2866 33.9829 79.0666 30.0442 73.6522C26.1054 68.2378 24.0032 61.8722 24.0032 55.3603C24.0032 46.6282 27.7797 38.2537 34.502 32.0792C41.2243 25.9047 50.3416 22.4359 59.8484 22.4359ZM59.8484 20.9727C39.2042 20.9727 22.4102 36.3983 22.4102 55.3603C22.4102 74.3224 39.2042 89.748 59.8484 89.748C80.4926 89.748 97.2866 74.3224 97.2866 55.3603C97.2866 36.3983 80.4899 20.9727 59.8484 20.9727Z" fill="#613F1F"/>
<path d="M60.6451 85.3578C55.3377 85.3548 50.0972 84.2701 45.3015 82.1818C40.5057 80.0936 36.2743 77.0538 32.9122 73.2817C29.5502 69.5097 27.1414 65.0994 25.8595 60.3688C24.5775 55.6382 24.4545 50.7053 25.4992 45.9258C24.1135 50.1904 23.6834 54.6687 24.2349 59.0903C24.7864 63.5118 26.3081 67.7848 28.7079 71.651C31.1077 75.5172 34.336 78.8965 38.1975 81.5846C42.0591 84.2727 46.4739 86.2139 51.1752 87.2908C55.8764 88.3678 60.7666 88.5581 65.5502 87.8505C70.3338 87.1428 74.9116 85.5517 79.007 83.1734C83.1024 80.795 86.6303 77.6788 89.3777 74.0129C92.1251 70.3471 94.0349 66.2077 94.9918 61.8449C92.7837 68.6371 88.2488 74.5938 82.0609 78.8298C75.8731 83.0659 68.3625 85.3552 60.6451 85.3578Z" fill="#80543D"/>
<path d="M58.5201 24.6289C64.6529 24.6284 70.6833 26.0735 76.0341 28.8259C81.385 31.5783 85.8774 35.546 89.0813 40.3493C92.2853 45.1526 94.0936 50.6307 94.3333 56.2595C94.573 61.8883 93.236 67.4794 90.4503 72.4979C92.9799 68.7155 94.6507 64.5023 95.3622 60.1115C96.0737 55.7208 95.8113 51.2433 94.5906 46.9481C93.3698 42.653 91.2161 38.6289 88.2589 35.1179C85.3017 31.6069 81.602 28.6814 77.3823 26.5173C73.1626 24.3532 68.5101 22.9953 63.7044 22.5251C58.8987 22.0549 54.0391 22.4821 49.4178 23.7812C44.7965 25.0803 40.5089 27.2243 36.8129 30.0844C33.1168 32.9444 30.0885 36.4615 27.9102 40.4241C31.1075 35.5996 35.603 31.6123 40.964 28.846C46.325 26.0796 52.371 24.6274 58.5201 24.6289Z" fill="#80543D"/>
<path d="M83.0139 56.2128C82.4928 53.9337 80.2248 43.9567 76.0425 49.4449C71.8602 54.9331 70.2672 61.8821 65.4882 64.6274C60.7092 67.3728 57.1182 70.4802 55.9302 73.4066C55.9302 73.4066 57.3234 66.6387 53.9376 61.8821C50.5518 57.1255 48.5619 49.6284 48.9615 45.2388C49.3611 40.8492 49.5582 37.0077 43.1997 40.6731C36.8412 44.3386 30.2397 51.0891 33.4284 61.334C36.6171 71.5789 50.3547 77.4317 52.944 84.5691C57.0828 82.8996 61.3407 81.491 65.688 80.3531C73.2561 78.3443 86.3997 71.0308 83.0139 56.2128Z" fill="#BC8E66"/>
<path d="M57.9229 68.0992C57.9229 68.0992 59.5159 64.8057 62.899 62.6109C66.2821 60.4161 71.4634 55.4785 72.0601 49.6257C72.0601 49.6257 69.6706 53.0977 66.8842 53.8417C64.9456 54.3501 62.8342 54.7865 61.4491 55.8529C61.8973 54.5906 62.6938 53.0257 64.0951 51.8304C66.8842 49.4521 71.8603 44.3309 69.6706 43.4157C68.0992 42.7585 65.6206 43.815 64.0411 45.6701C64.4461 44.3383 64.9915 42.9892 65.6881 42.1361C67.4809 39.9413 72.6568 36.0997 71.4634 32.6253C70.27 29.1508 68.2774 30.6115 67.2811 32.4417C67.2811 32.4417 67.8778 27.8686 64.6918 28.4167C61.5058 28.9648 61.5058 32.4417 62.3023 36.2833C63.007 39.6709 63.7063 44.6235 63.0421 47.2498C62.9002 47.5478 62.7864 47.8565 62.7019 48.1724C62.7019 48.1724 64.2949 41.9525 61.306 40.1223C58.3171 38.2921 55.7305 40.6729 57.7231 45.9776C59.7157 51.2823 60.3124 53.6656 60.1126 57.6832C60.1126 57.6832 59.713 53.8417 57.5233 51.4633C55.3336 49.085 53.341 48.1724 53.1412 43.5993C53.1412 43.5993 50.3548 47.9889 52.5445 54.0153C54.7342 60.0417 57.9229 63.3425 57.9229 68.0992Z" fill="#BC8E66"/>
<path d="M37.011 73.4069C36.6249 73.0498 36.2685 72.6877 35.9121 72.3281C36.2489 72.7122 36.6162 73.0728 37.011 73.4069Z" fill="#BC8E66"/>
<path d="M41.5926 35.7233C44.5788 33.3475 43.5825 29.3224 38.2068 32.7969C32.9391 36.2069 20.484 56.7116 35.9091 72.3256C34.0488 70.2548 30.4875 65.1014 30.636 56.0271C30.8385 43.7734 38.6091 38.1016 41.5926 35.7233Z" fill="#BC8E66"/>
<path d="M91.1798 49.6283C88.5905 38.1038 83.4119 34.6293 82.2185 36.8241C81.0251 39.0189 86.5979 37.5681 89.1872 53.6509C91.9547 70.8497 77.4395 79.0759 77.4395 79.0759C86.4008 76.333 93.7691 61.1504 91.1798 49.6283Z" fill="#BC8E66"/>
<path d="M60.7168 38.9375C60.9139 38.9648 61.0921 38.9747 61.3054 39.0144C61.114 38.964 60.9159 38.9381 60.7168 38.9375Z" fill="#A7744D"/>
<path d="M63.8491 45.2734C63.5147 45.9051 63.2436 46.5633 63.0391 47.2401C63.0391 47.2401 63.3766 46.4068 63.8491 45.2734Z" fill="#A7744D"/>
<mask id="mask0_136_220" style="mask-type:luminance" maskUnits="userSpaceOnUse" x="32" y="39" width="52" height="46">
<path d="M83.0139 56.2128C82.4928 53.9337 80.2248 43.9567 76.0425 49.4449C71.8602 54.9331 70.2672 61.8821 65.4882 64.6274C60.7092 67.3728 57.1182 70.4802 55.9302 73.4066C55.9302 73.4066 57.3234 66.6387 53.9376 61.8821C50.5518 57.1255 48.5619 49.6284 48.9615 45.2388C49.3611 40.8492 49.5582 37.0077 43.1997 40.6731C36.8412 44.3386 30.2397 51.0891 33.4284 61.334C36.6171 71.5789 50.3547 77.4317 52.944 84.5691C57.0828 82.8996 61.3407 81.491 65.688 80.3531C73.2561 78.3443 86.3997 71.0308 83.0139 56.2128Z" fill="white"/>
</mask>
<g mask="url(#mask0_136_220)">
<path d="M44.5793 73.9553C38.804 68.4695 34.8215 62.6142 35.2184 54.9337C35.6153 47.2531 44.7791 38.6525 50.9513 42.6775C50.9513 42.6775 50.7515 38.6525 47.7653 38.1044C44.7791 37.5563 30.6392 44.5077 31.8353 56.5779C33.0314 68.6481 39.8003 73.0401 42.3896 75.7855C44.9789 78.5309 51.9476 82.3699 52.9439 84.5647C52.9439 84.5697 50.3546 79.4435 44.5793 73.9553Z" fill="#A7744D"/>
<path d="M85.4028 59.8715C83.4102 45.7876 76.4415 42.4941 74.8485 51.6404C74.8485 51.6404 76.4415 47.9824 79.0308 50.3607C81.6201 52.739 83.2131 68.1026 73.2555 73.5909C63.2979 79.0791 53.937 81.0978 52.9434 85.6635C52.9434 85.6635 54.5364 83.8332 62.7012 81.6384C70.866 79.4436 87.3927 73.9554 85.4028 59.8715Z" fill="#A7744D"/>
</g>
<mask id="mask1_136_220" style="mask-type:luminance" maskUnits="userSpaceOnUse" x="51" y="28" width="22" height="41">
<path d="M57.9229 68.0992C57.9229 68.0992 59.5159 64.8057 62.899 62.6109C66.2821 60.4161 71.4634 55.4785 72.0601 49.6257C72.0601 49.6257 69.6706 53.0977 66.8842 53.8417C64.9456 54.3501 62.8342 54.7865 61.4491 55.8529C61.8973 54.5906 62.6938 53.0257 64.0951 51.8304C66.8842 49.4521 71.8603 44.3309 69.6706 43.4157C68.0992 42.7585 65.6206 43.815 64.0411 45.6701C64.4461 44.3383 64.9915 42.9892 65.6881 42.1361C67.4809 39.9413 72.6568 36.0997 71.4634 32.6253C70.27 29.1508 68.2774 30.6115 67.2811 32.4417C67.2811 32.4417 67.8778 27.8686 64.6918 28.4167C61.5058 28.9648 61.5058 32.4417 62.3023 36.2833C63.007 39.6709 63.7063 44.6235 63.0421 47.2498C62.9002 47.5478 62.7864 47.8565 62.7019 48.1724C62.7019 48.1724 64.2949 41.9525 61.306 40.1223C58.3171 38.2921 55.7305 40.6729 57.7231 45.9776C59.7157 51.2823 60.3124 53.6656 60.1126 57.6832C60.1126 57.6832 59.713 53.8417 57.5233 51.4633C55.3336 49.085 53.341 48.1724 53.1412 43.5993C53.1412 43.5993 50.3548 47.9889 52.5445 54.0153C54.7342 60.0417 57.9229 63.3425 57.9229 68.0992Z" fill="white"/>
</mask>
<g mask="url(#mask1_136_220)">
<path d="M63.6945 59.685C61.786 61.2626 60.1717 63.1165 58.9155 65.1733C58.7184 62.0634 55.9293 56.7586 53.9367 53.2842C51.9441 49.8097 53.1267 43.5898 53.1267 43.5898C49.3467 46.5162 50.3403 54.0058 53.1267 58.5889C55.9131 63.1719 57.309 69.0049 57.309 69.0049C57.309 69.0049 60.2979 66.8101 61.6911 64.9798C63.0843 63.1496 62.8845 64.6153 67.0668 60.2257C71.2491 55.8361 72.0456 49.6162 72.0456 49.6162C70.6659 54.0158 66.6888 57.3092 63.6945 59.685Z" fill="#A7744D"/>
<path d="M67.8778 42.8583C69.4708 44.505 66.8842 46.6998 65.0914 48.7111C63.2986 50.7224 61.3114 53.4677 61.3114 53.4677C61.3114 53.4677 59.5213 46.8809 58.9219 42.4913C58.498 39.3665 59.8858 38.9325 60.7228 38.9399C53.4922 37.9479 55.5928 44.5869 57.5287 47.6199C59.5213 50.7298 60.118 57.6812 60.118 57.6812C60.118 57.6812 63.304 54.0232 63.898 53.1081C64.492 52.193 68.2801 49.6361 68.8768 48.8921C69.4735 48.1481 72.4624 43.5874 72.2626 42.6723C72.0628 41.7572 66.2848 41.2116 67.8778 42.8583Z" fill="#A7744D"/>
<path d="M63.0409 47.2404C63.5809 45.2241 63.6943 37.37 63.2974 35.1752C62.9005 32.9804 63.4972 31.3337 65.29 29.8705C67.0828 28.4073 68.2762 30.4185 68.2762 30.4185C67.8766 24.3847 61.7044 24.5657 59.9062 26.9465C58.108 29.3273 59.3095 32.9829 61.4992 37.9205C63.6889 42.8582 62.5009 49.2591 63.0409 47.2404Z" fill="#A7744D"/>
<path d="M69.4695 33.1639C68.8728 36.6359 67.4796 37.7371 66.2835 39.9319C65.5707 41.2438 64.5528 43.5923 63.8535 45.2738C64.6635 43.7263 66.1404 41.6455 68.6784 40.4799C73.0605 38.4687 75.45 28.9554 70.0743 27.4922L68.2815 30.4186C68.2815 30.4186 70.0689 29.687 69.4695 33.1639Z" fill="#A7744D"/>
</g>
<path d="M54.5392 71.2113C55.0684 68.0032 54.3638 64.726 52.5466 61.9435C49.4929 57.1869 48.0322 56.2122 47.8999 53.1643C47.7676 50.1164 45.1135 50.724 46.8388 55.7237C48.5641 60.7234 53.8723 61.7005 54.5392 71.2113Z" fill="#CBA988"/>
<path d="M52.8116 81.9422C52.8116 81.9422 48.9614 76.6994 45.3758 73.2845C41.7902 69.8695 36.8789 64.0167 36.8789 59.0245C36.8789 54.0322 37.8077 57.8043 38.6042 60.6092C39.4007 63.4141 41.5256 68.1707 44.8439 71.2186C48.1622 74.2666 51.8801 79.2588 52.8116 81.9422Z" fill="#CBA988"/>
<path d="M57.5918 79.6266C57.5918 79.6266 61.307 76.4547 65.2922 74.7484C69.2774 73.0422 73.5218 70.4803 74.3183 68.4071C75.1148 66.3338 76.7078 66.9439 74.8583 69.8703C73.0088 72.7967 61.8308 76.0901 57.5918 79.6266Z" fill="#CBA988"/>
<path d="M58.1211 73.2831C59.5024 70.3889 61.8819 67.9924 64.8927 66.4631C69.9363 63.9038 72.7227 60.3673 73.3896 57.927C74.0565 55.4867 75.2472 53.1728 76.176 53.6589C77.1048 54.145 75.1149 59.5142 72.99 62.0735C70.8651 64.6329 64.2285 67.3163 62.7678 68.5364C61.3071 69.7566 59.0526 71.8199 58.1211 73.2831Z" fill="#CBA988"/>
<path d="M59.7124 58.5284C59.7124 58.5284 58.2517 52.7971 56.1295 51.2124C54.0073 49.6277 54.4042 51.4604 55.7299 53.5287C57.0556 55.597 59.1832 60.4727 59.1832 62.918C59.6272 61.5064 60.5024 60.2413 61.705 59.2724L63.6949 57.6877C63.6949 57.6877 68.4766 55.0043 67.2805 54.6397C66.0844 54.2752 61.5727 55.969 59.7124 58.5284Z" fill="#CBA988"/>
<path d="M62.3708 48.7733C62.3708 48.7733 63.035 42.3104 61.307 41.2118C59.579 40.1131 60.9101 46.9431 61.847 50.9681C61.847 50.9681 62.2466 49.991 63.5723 48.8948C64.898 47.7987 67.5548 44.7483 66.626 44.7483C65.6972 44.7483 63.1808 47.4316 62.3708 48.7733Z" fill="#CBA988"/>
<path d="M65.9529 35.8497C65.9529 35.8497 66.6171 31.7031 65.4129 31.7031C64.2087 31.7031 64.7487 35.7257 64.2168 41.9455C64.828 40.4032 65.6297 38.9304 66.6063 37.5559C68.0778 35.6042 68.4774 32.5562 65.9529 35.8497Z" fill="#CBA988"/>
</svg>
