<svg width="162" height="208" viewBox="0 0 162 208" fill="none" xmlns="http://www.w3.org/2000/svg">
<path d="M160.922 206.092C157.884 206.321 146.316 205.992 134.404 202.241C127.425 200.044 121.507 193.589 115.33 187.332C109.158 181.079 103.703 171.178 98.4085 160.907C96.2811 156.549 95.2893 153.926 94.3164 150.217C93.3436 146.509 92.4198 141.796 91.0215 136.367" stroke="#F5F5F5" stroke-width="2" stroke-linecap="round"/>
<path d="M75.4453 150.073C75.7495 143.21 76.1508 128.486 76.9576 127.265C78.0284 125.645 87.1941 127.998 98.6918 130.13C104.536 131.447 108.085 132.856 111.691 134.603C113.246 135.401 114.242 136.019 115.028 136.666" stroke="#F5F5F5" stroke-width="2" stroke-linecap="round"/>
<g clip-path="url(#clip0_164_3)">
<path d="M0 51.5C0 65.1587 5.42588 78.2579 15.084 87.916C24.7421 97.5741 37.8414 103 51.5 103C65.1587 103 78.2579 97.5741 87.916 87.916C97.5741 78.2579 103 65.1587 103 51.5C103 37.8414 97.5741 24.7421 87.916 15.084C78.2579 5.42588 65.1587 0 51.5 0C37.8414 0 24.7421 5.42588 15.084 15.084C5.42588 24.7421 0 37.8414 0 51.5Z" fill="#8DD9FF"/>
<path d="M30.8644 4.31353C28.392 8.61679 26.957 13.5914 26.957 18.9102C26.957 35.1312 40.1068 48.2812 56.3281 48.2812C72.5494 48.2812 85.6992 35.1312 85.6992 18.9102C85.6992 16.6508 85.42 14.4606 84.937 12.3477C75.9386 4.65532 64.2662 0 51.5 0C44.1596 0 37.1836 1.54601 30.8644 4.31353Z" fill="#FFFFF4"/>
<path d="M42.5195 18.9098C42.5195 20.7231 42.8767 22.5187 43.5706 24.194C44.2646 25.8693 45.2817 27.3915 46.5639 28.6737C47.8461 29.9559 49.3683 30.973 51.0436 31.6669C52.7189 32.3609 54.5144 32.718 56.3278 32.718C58.1411 32.718 59.9367 32.3609 61.6119 31.6669C63.2872 30.973 64.8095 29.9559 66.0917 28.6737C67.3739 27.3915 68.391 25.8693 69.0849 24.194C69.7788 22.5187 70.136 20.7231 70.136 18.9098C70.136 15.2476 68.6812 11.7354 66.0917 9.1459C63.5021 6.55635 59.9899 5.10156 56.3278 5.10156C52.6656 5.10156 49.1534 6.55635 46.5639 9.1459C43.9743 11.7354 42.5195 15.2476 42.5195 18.9098Z" fill="#FFFFF4"/>
<path d="M70.0246 61.6415C70.0246 59.1828 68.0314 57.1894 65.5725 57.1894C65.2013 57.1894 64.8466 57.2481 64.5018 57.3336C63.3401 56.0791 61.6931 55.2812 59.8483 55.2812C56.3357 55.2812 53.4883 58.1288 53.4883 61.6413H70.0246V61.6415Z" fill="white"/>
<path d="M34.4643 61.6419C34.4643 58.2813 31.7401 55.557 28.3795 55.557C27.8723 55.557 27.3873 55.6373 26.9164 55.7542C25.3285 54.0396 23.0774 52.9492 20.5561 52.9492C15.7554 52.9492 11.8633 56.8411 11.8633 61.6421H34.4643V61.6419ZM54.9374 58.6911C54.6278 58.6911 54.3353 58.752 54.0549 58.8403C53.1665 57.5635 51.6931 56.7238 50.0197 56.7238C48.3464 56.7238 46.8728 57.5633 45.9846 58.8403C45.7042 58.7518 45.4117 58.6911 45.1021 58.6911C43.4724 58.6911 42.1515 60.0122 42.1515 61.6417H57.8884C57.888 60.0122 56.5669 58.6911 54.9374 58.6911ZM87.5437 59.2662C87.2945 59.2662 87.0589 59.3153 86.8332 59.3865C86.118 58.3585 84.9317 57.6826 83.5845 57.6826C82.2372 57.6826 81.0509 58.3585 80.3357 59.3865C80.11 59.3153 79.8745 59.2662 79.6252 59.2662C78.3132 59.2662 77.2498 60.3298 77.2498 61.6417H89.9192C89.9194 60.3298 88.8558 59.2662 87.5437 59.2662Z" fill="white"/>
<path d="M98.463 58.7281C98.1572 58.7281 97.8683 58.7882 97.5913 58.8755C96.714 57.6144 95.2585 56.7852 93.6057 56.7852C91.9528 56.7852 90.4976 57.6144 89.62 58.8755C89.343 58.7882 89.0541 58.7281 88.7484 58.7281C87.1388 58.7281 85.834 60.0329 85.834 61.6424H101.377C101.377 60.0329 100.073 58.7281 98.463 58.7281Z" fill="white"/>
<path d="M101.378 64.375H9.38867L17.7037 83.6875C17.7037 83.6875 41.4695 97.6354 48.3627 99.2447C51.1974 99.9066 56.1623 101.022 61.0261 102.106C80.6987 98.4254 96.4368 83.5734 101.378 64.375Z" fill="#57B9E7"/>
<path d="M95.5136 78.2513C86.4194 74.5809 69.9895 72.125 51.1979 72.125C35.2908 72.125 21.0645 73.8832 11.5527 76.6488L14.1629 82.6099C14.1629 82.6099 31.8311 92.8045 42.2819 97.368C45.1802 97.4914 48.156 97.5592 51.1979 97.5592C60.9515 97.5592 70.061 96.8935 77.853 95.7448C85.0676 91.4385 91.1442 85.4241 95.5136 78.2513Z" fill="#B3F4EF"/>
<path d="M93.5757 81.1836H26.5938V85.8997H89.8168C91.1605 84.4054 92.4126 82.8284 93.5757 81.1836Z" fill="white"/>
<path d="M90.7161 84.8438H26.5938C26.5938 84.8438 39.5271 93.5446 39.6798 93.5446C39.7786 93.5446 59.0532 95.2244 72.6605 96.4113C74.4435 96.2114 76.184 95.9925 77.8527 95.7467C82.7233 92.8393 87.058 89.1388 90.7161 84.8438Z" fill="#FFF8DB"/>
<path d="M51.5006 66.9902C69.5719 66.9902 86.0321 69.1605 98.4052 72.7178C99.6165 70.046 100.634 67.2674 101.378 64.375H9.38867L12.1673 70.8284C23.3584 68.4087 36.9015 66.9902 51.5006 66.9902Z" fill="#57B9E7"/>
<path d="M9.60055 65.1816C9.23575 65.1818 8.8817 65.058 8.59644 64.8307C8.31118 64.6033 8.11164 64.2857 8.03052 63.93C7.94941 63.5744 7.99154 63.2017 8.15 62.8731C8.30847 62.5445 8.57387 62.2795 8.90269 62.1215C15.9375 58.7417 24.3237 51.3526 24.3237 35.3438C24.3237 34.455 25.0435 33.7344 25.9331 33.7344C26.8227 33.7344 27.5425 34.455 27.5425 35.3438C27.5425 53.0264 18.1628 61.243 10.2952 65.0228C10.0785 65.1271 9.84107 65.1813 9.60055 65.1816Z" fill="#8C665B"/>
<path d="M26.564 33.8326C26.564 33.8326 16.8647 33.5788 16.5273 43.5267C16.5273 43.5267 17.6272 42.6349 18.0124 41.8027C18.0124 41.8027 18.2614 42.307 18.085 42.8335C18.085 42.8335 18.9919 41.9519 19.2299 40.9754C19.2299 40.9754 19.3938 41.3398 19.2331 41.8672C19.2331 41.8672 20.1802 41.0891 20.4415 40.4677C20.4415 40.4677 20.5958 40.7471 20.3812 41.1366C20.3812 41.1366 21.2798 40.3554 21.5041 39.2433C21.5041 39.2433 21.7783 39.4972 21.7079 40.0812C21.7079 40.0812 22.7824 38.8072 22.894 38.0747C22.894 38.0747 23.2608 38.2278 23.0511 38.7802C23.0511 38.78 25.6841 36.8233 26.564 33.8326Z" fill="#43AB5F"/>
<path d="M26.563 33.832C26.563 33.832 34.7793 38.9931 29.5498 47.4624C29.5498 47.4624 29.1279 46.1108 29.2684 45.2045C29.2684 45.2045 28.7815 45.4863 28.6369 46.0224C28.6369 46.0224 28.3699 44.7862 28.7129 43.8411C28.7129 43.8411 28.3746 44.0538 28.2164 44.5821C28.2164 44.5821 27.8588 43.4096 27.9855 42.7474C27.9855 42.7474 27.7022 42.8946 27.6652 43.3378C27.6652 43.3378 27.3498 42.1895 27.7789 41.1396C27.7789 41.1396 27.4099 41.1991 27.1452 41.7242C27.1452 41.7242 26.9563 40.0684 27.2691 39.3966C27.2691 39.3966 26.8788 39.321 26.7475 39.8972C26.7473 39.897 25.6392 36.8094 26.563 33.832Z" fill="#43AB5F"/>
<path d="M26.5641 33.8333C26.5641 33.8333 27.5624 23.7479 17.9043 22.7656C17.9043 22.7656 18.6873 23.9676 19.4676 24.4217C19.4676 24.4217 18.9572 24.649 18.4583 24.4317C18.4583 24.4317 19.2463 25.4322 20.1785 25.742C20.1785 25.742 19.8112 25.8898 19.3101 25.6889C19.3101 25.6889 19.9941 26.7245 20.5791 27.0361C20.5791 27.0361 20.2952 27.1789 19.9327 26.9309C19.9327 26.9309 20.6235 27.9162 21.6887 28.2204C21.6887 28.2204 21.4204 28.49 20.8573 28.3797C20.8573 28.3797 22.0144 29.5793 22.7189 29.7423C22.7189 29.7423 22.5413 30.1144 22.0199 29.861C22.0199 29.861 23.721 32.7271 26.5641 33.8333Z" fill="#52C883"/>
<path d="M26.5644 33.8324C26.5644 33.8324 19.2978 25.6254 10.7422 33.0738C10.7422 33.0738 12.3339 33.2892 13.3248 32.9611C13.3248 32.9611 13.0961 33.5586 12.5209 33.8217C12.5209 33.8217 13.9553 33.8859 14.9531 33.3238C14.9531 33.3238 14.7759 33.7423 14.212 34.0191C14.212 34.0191 15.591 34.1969 16.3108 33.93C16.3108 33.93 16.1966 34.2744 15.7065 34.3997C15.7065 34.3997 17.0507 34.5351 18.1509 33.8563C18.1509 33.8563 18.1507 34.28 17.6094 34.6755C17.6094 34.6755 19.5002 34.5731 20.1973 34.0963C20.1973 34.0963 20.3524 34.5182 19.7299 34.7743C19.7301 34.7745 23.3921 35.4285 26.5644 33.8324ZM26.5644 33.8324C26.5644 33.8324 37.1603 31.0242 40.1579 41.9648C40.1579 41.9648 38.7133 41.2627 38.07 40.4405C38.07 40.4405 37.9294 41.0645 38.2625 41.6022C38.2625 41.6022 37.0327 40.8611 36.5133 39.8404C36.5133 39.8404 36.429 40.287 36.7453 40.8299C36.7453 40.8299 35.4986 40.2142 35.0472 39.5931C35.0472 39.5931 34.9516 39.9432 35.2902 40.319C35.2902 40.319 34.096 39.6871 33.5559 38.5125C33.5559 38.5125 33.3215 38.8655 33.5531 39.4946C33.5531 39.4946 32.0354 38.362 31.7194 37.579C31.7194 37.579 31.3567 37.8444 31.7331 38.4022C31.7327 38.4022 28.3216 36.9186 26.5644 33.8324Z" fill="#34BE69"/>
<path d="M26.5645 33.8356C26.5645 33.8356 28.4975 23.0458 39.6797 24.9525C39.6797 24.9525 38.4328 25.9652 37.4159 26.2007C37.4159 26.2007 37.922 26.5918 38.5501 26.5172C38.5501 26.5172 37.3585 27.3185 36.2143 27.3579C36.2143 27.3579 36.5832 27.6232 37.2089 27.5659C37.2089 27.5659 36.1241 28.4356 35.3703 28.5822C35.3703 28.5822 35.647 28.8166 36.1308 28.6687C36.1308 28.6687 35.0533 29.4839 33.7608 29.477C33.7608 29.477 33.9817 29.8387 34.6495 29.8947C34.6495 29.8947 32.9818 30.7915 32.1385 30.747C32.1385 30.747 32.2256 31.188 32.8905 31.0826C32.8903 31.0828 30.1041 33.5473 26.5645 33.8356Z" fill="#52C883"/>
<path d="M20.7324 82.4307V79.1651C25.9082 79.1651 38.2529 65.5375 38.5798 59.4609L41.8422 59.6364C41.4149 67.5189 27.6065 82.4307 20.7324 82.4307Z" fill="#8C665B"/>
<path d="M50.9004 18.9091C50.9004 20.3489 51.4723 21.7296 52.4904 22.7477C53.5085 23.7658 54.8893 24.3377 56.329 24.3377C57.7688 24.3377 59.1496 23.7658 60.1676 22.7477C61.1857 21.7296 61.7576 20.3489 61.7576 18.9091C61.7576 17.4693 61.1857 16.0885 60.1676 15.0705C59.1496 14.0524 57.7688 13.4805 56.329 13.4805C54.8893 13.4805 53.5085 14.0524 52.4904 15.0705C51.4723 16.0885 50.9004 17.4693 50.9004 18.9091Z" fill="white"/>
<path d="M41.7618 86.9079C37.7737 83.6891 33.4904 86.7737 31.127 82.0797C29.7331 79.311 23.5094 81.1946 20.4923 78.861C16.5042 75.7764 17.1148 71.8033 15.1749 67.5954C12.6824 62.1889 6.4253 58.4328 0.419922 57.9844C3.61011 83.3644 25.2542 103.002 51.4995 103.002C64.5553 103.002 76.4679 98.1339 85.5452 90.1266H50.624C46.3404 90.1266 44.1243 88.8148 41.7618 86.9079Z" fill="#8C665B"/>
<path d="M40.6825 60.0362C40.6825 60.0362 30.0606 58.7817 28.6895 69.6679C28.6895 69.6679 29.9866 68.7995 30.4932 67.9248C30.4932 67.9248 30.7159 68.5035 30.4692 69.0638C30.4692 69.0638 31.5533 68.1875 31.913 67.1392C31.913 67.1392 32.0565 67.5556 31.8267 68.1185C31.8267 68.1185 32.9448 67.3597 33.2941 66.7036C33.2941 66.7036 33.4353 67.0259 33.1605 67.4319C33.1605 67.4319 34.2257 66.6648 34.5838 65.4666C34.5838 65.4666 34.8592 65.773 34.7232 66.4069C34.7232 66.4069 36.0308 65.1164 36.2272 64.3236C36.2272 64.3236 36.6144 64.5286 36.3286 65.114C36.3286 65.1138 39.4155 63.2304 40.6825 60.0362Z" fill="#43AB5F"/>
<path d="M40.681 60.0352C40.681 60.0352 49.1809 66.5274 42.5883 75.2983C42.5883 75.2983 42.2614 73.772 42.5065 72.7913C42.5065 72.7913 41.9438 73.0518 41.7309 73.6257C41.7309 73.6257 41.5624 72.2419 42.0337 71.239C42.0337 71.239 41.641 71.4384 41.4141 72.0023C41.4141 72.0023 41.1395 70.6792 41.3453 69.965C41.3453 69.965 41.0196 70.0982 40.9343 70.5808C40.9343 70.5808 40.7036 69.2885 41.2801 68.179C41.2801 68.179 40.8691 68.2072 40.5257 68.757C40.5257 68.757 40.4849 66.9203 40.8959 66.2144C40.8959 66.2144 40.4752 66.092 40.2728 66.7112C40.273 66.7114 39.3674 63.2105 40.681 60.0352Z" fill="#43AB5F"/>
<path d="M40.6818 60.0363C40.6818 60.0363 42.7922 49.0656 32.2891 47.0156C32.2891 47.0156 33.0276 48.4138 33.8385 48.9907C33.8385 48.9907 33.2555 49.1889 32.7296 48.9004C32.7296 48.9004 33.4939 50.0779 34.4861 50.5118C34.4861 50.5118 34.068 50.6371 33.5381 50.3661C33.5381 50.3661 34.1849 51.5718 34.7957 51.9727C34.7957 51.9727 34.4696 52.1009 34.0966 51.7921C34.0966 51.7921 34.7558 52.9434 35.8945 53.3841C35.8945 53.3841 35.5726 53.6531 34.9657 53.4753C34.9657 53.4753 36.1151 54.9086 36.8722 55.1583C36.8722 55.1583 36.6398 55.5489 36.0928 55.2182C36.093 55.2184 37.672 58.5355 40.6818 60.0363Z" fill="#52C883"/>
<path d="M40.6812 60.0347C40.6812 60.0347 33.5301 50.2943 23.3887 57.6099C23.3887 57.6099 25.1143 58.0066 26.2353 57.7461C26.2353 57.7461 25.924 58.379 25.2662 58.6102C25.2662 58.6102 26.8343 58.825 27.9863 58.3084C27.9863 58.3084 27.7497 58.75 27.1027 58.997C27.1027 58.997 28.5986 59.331 29.4158 59.1103C29.4158 59.1103 29.2558 59.4768 28.7052 59.5651C28.7052 59.5651 30.1672 59.849 31.4434 59.2147C31.4434 59.2147 31.4005 59.6798 30.7664 60.0594C30.7664 60.0594 32.8524 60.1372 33.6655 59.684C33.6655 59.684 33.7933 60.1628 33.0844 60.3811C33.0842 60.3811 37.0382 61.4674 40.6812 60.0347ZM40.6812 60.0347C40.6812 60.0347 52.5952 58.0181 54.7852 70.3296C54.7852 70.3296 53.2699 69.4135 52.6465 68.4465C52.6465 68.4465 52.4294 69.1174 52.7409 69.741C52.7409 69.741 51.4654 68.8037 50.9979 67.6309C50.9979 67.6309 50.8605 68.1127 51.153 68.7404C51.153 68.7404 49.8464 67.9391 49.4133 67.2117C49.4133 67.2117 49.2733 67.5862 49.607 68.033C49.607 68.033 48.3597 67.2191 47.885 65.8755C47.885 65.8755 47.5921 66.2394 47.783 66.9532C47.783 66.9532 46.2309 65.5572 45.9628 64.6658C45.9628 64.6658 45.5379 64.9207 45.895 65.5709C45.8948 65.5711 42.2996 63.5992 40.6812 60.0347Z" fill="#34BE69"/>
<path d="M40.6816 60.037C40.6816 60.037 43.8891 48.3869 55.9725 51.6051C55.9725 51.6051 54.5019 52.5912 53.3617 52.7475C53.3617 52.7475 53.8781 53.2277 54.575 53.209C54.575 53.209 53.1865 53.9689 51.9261 53.8968C51.9261 53.8968 52.3045 54.2251 52.997 54.2253C52.997 54.2253 51.7187 55.0709 50.8766 55.1562C50.8766 55.1562 51.1569 55.4414 51.7026 55.3278C51.7026 55.3278 50.4379 56.1141 49.0196 55.9767C49.0196 55.9767 49.2258 56.396 49.9532 56.5247C49.9532 56.5247 48.0323 57.3413 47.1109 57.2077C47.1109 57.2077 47.1622 57.7006 47.9025 57.6517C47.9027 57.6515 44.5962 60.0766 40.6816 60.037Z" fill="#52C883"/>
<path d="M80.1191 43.4531H76.9004C76.9004 60.4286 82.1616 73.0757 92.9388 82.0753C93.5783 81.2101 94.1845 80.3193 94.7699 79.4138C84.9243 71.0646 80.1191 59.2845 80.1191 43.4531Z" fill="#8C665B"/>
<path d="M78.131 42.9844C78.131 42.9844 66.3793 47.9427 71.3724 60.0371C71.3724 60.0371 72.2056 58.3724 72.2153 57.167C72.2153 57.167 72.7872 57.6357 72.8615 58.362C72.8615 58.362 73.4692 56.8145 73.2244 55.516C73.2244 55.516 73.6185 55.8632 73.712 56.582C73.712 56.582 74.424 55.1364 74.3996 54.2504C74.3996 54.2504 74.7358 54.5013 74.6903 55.0841C74.6903 55.0841 75.3425 53.661 75.0078 52.2079C75.0078 52.2079 75.4739 52.3632 75.7064 53.1005C75.7064 53.1005 76.3019 50.992 76.038 50.0544C76.038 50.0544 76.5602 50.0387 76.6089 50.814C76.6089 50.8142 78.6999 47.0426 78.131 42.9844Z" fill="#43AB5F"/>
<path d="M78.1309 42.9844C78.1309 42.9844 90.7691 44.7068 89.1022 57.685C89.1022 57.685 87.8638 56.2953 87.5401 55.1342C87.5401 55.1342 87.1102 55.7359 87.2278 56.4563C87.2278 56.4563 86.2377 55.1209 86.1355 53.8032C86.1355 53.8032 85.8456 54.2413 85.943 54.9597C85.943 54.9597 84.8786 53.7499 84.6712 52.8881C84.6712 52.8881 84.4118 53.2182 84.608 53.7688C84.608 53.7688 83.6074 52.565 83.5514 51.0749C83.5514 51.0749 83.1421 51.3463 83.1099 52.1188C83.1099 52.1188 81.9851 50.2384 81.9954 49.2646C81.9954 49.2646 81.487 49.3857 81.6423 50.1469C81.6421 50.1465 78.64 47.0505 78.1309 42.9844Z" fill="#43AB5F"/>
<path d="M78.1296 42.9816C78.1296 42.9816 73.8531 30.3639 61.7559 34.4274C61.7559 34.4274 63.3453 35.4419 64.5262 35.5622C64.5262 35.5622 64.0386 36.1112 63.3234 36.1218C63.3234 36.1218 64.8097 36.8923 66.0939 36.7573C66.0939 36.7573 65.7342 37.1335 65.0253 37.1649C65.0253 37.1649 66.4062 38.0338 67.2758 38.0897C67.2758 38.0897 67.0133 38.4146 66.4446 38.3144C66.4446 38.3144 67.8063 39.1195 69.2469 38.9056C69.2469 38.9056 69.0719 39.3742 68.3376 39.5476C68.3376 39.5476 70.3739 40.3563 71.3061 40.169C71.3061 40.169 71.2954 40.711 70.5334 40.6904C70.5332 40.6904 74.1251 43.1993 78.1296 42.9816Z" fill="#52C883"/>
<path d="M78.1306 42.9814C78.1306 42.9814 64.9772 37.0967 58.7734 50.6571C58.7734 50.6571 60.7962 50.0516 61.8049 49.121C61.8049 49.121 61.8552 49.9605 61.3094 50.5877C61.3094 50.5877 63.0618 49.8864 63.9516 48.672C63.9516 48.672 63.9665 49.269 63.4414 49.9066C63.4414 49.9066 65.1892 49.3714 65.9062 48.6611C65.9062 48.6611 65.9563 49.1353 65.4375 49.5513C65.4375 49.5513 67.1205 48.984 68.0698 47.5746C68.0698 47.5746 68.2993 48.0821 67.8658 48.8494C67.8658 48.8494 70.0743 47.7011 70.6502 46.7518C70.6502 46.7518 71.0646 47.1728 70.4583 47.817C70.4585 47.8172 75.1979 46.6136 78.1306 42.9814Z" fill="#34BE69"/>
<path d="M78.1309 42.9814C78.1309 42.9814 89.2949 33.8703 98.8198 45.3442C98.8198 45.3442 96.7091 45.2872 95.4928 44.6519C95.4928 44.6519 95.663 45.4753 96.3536 45.9386C96.3536 45.9386 94.4789 45.7184 93.3032 44.7781C93.3032 44.7781 93.4447 45.3587 94.1178 45.837C94.1178 45.837 92.2909 45.7763 91.4134 45.2774C91.4134 45.2774 91.4889 45.7483 92.0982 46.0147C92.0982 46.0147 90.3255 45.9058 89.0414 44.7926C89.0414 44.7926 88.9523 45.3426 89.5707 45.97C89.5707 45.97 87.1391 45.4373 86.3356 44.6712C86.3356 44.6712 86.0454 45.1858 86.7986 45.6495C86.7988 45.6491 81.9093 45.7234 78.1309 42.9814Z" fill="#34BE69"/>
<path d="M78.1296 42.9827C78.1296 42.9827 74.5904 29.0143 89.0144 25.2305C89.0144 25.2305 88.0709 27.1195 86.9808 27.9533C86.9808 27.9533 87.7992 28.1471 88.5107 27.717C88.5107 27.717 87.5187 29.3229 86.1699 29.9908C86.1699 29.9908 86.7557 30.1083 87.4737 29.7003C87.4737 29.7003 86.6466 31.3302 85.8236 31.9148C85.8236 31.9148 86.2821 32.0454 86.7812 31.6058C86.7812 31.6058 85.9335 33.1665 84.3818 33.8595C84.3818 33.8595 84.8425 34.1728 85.6726 33.8776C85.6726 33.8776 84.1622 35.8562 83.1283 36.2605C83.1283 36.2605 83.4719 36.7411 84.2107 36.2543C84.2109 36.2545 82.2116 40.7171 78.1296 42.9827Z" fill="#52C883"/>
<path d="M12.9794 72.7186C10.1274 66.9512 6.44415 67.1586 2.33984 66.8164C8.86003 87.7767 28.393 103.001 51.4994 103.001C61.5998 103.001 71.0095 100.078 78.958 95.0509C76.3834 94.6755 73.4941 93.8809 68.4514 96.0453C65.9289 97.128 62.4124 92.4234 60.0836 92.1375C53.5318 91.3328 46.4029 96.4124 42.1506 92.9422C36.6972 88.4921 34.3998 92.5399 30.0153 90.6285C25.6307 88.7174 27.9543 85.1462 26.1956 83.2413C23.3887 80.2014 17.166 81.1851 12.9794 72.7186Z" fill="#674447"/>
</g>
<defs>
<clipPath id="clip0_164_3">
<rect width="103" height="103" fill="white"/>
</clipPath>
</defs>
</svg>
