<svg width="128" height="128" viewBox="0 0 128 128" fill="none" xmlns="http://www.w3.org/2000/svg">
<path d="M0 21.9927C3.67138e-06 20.0511 0.771306 18.189 2.14423 16.8161C3.51716 15.4432 5.37924 14.6719 7.32085 14.6719L120.679 14.6719C122.621 14.6719 124.483 15.4432 125.856 16.8161C127.229 18.1891 128 20.0511 128 21.9927V106.012C128 107.953 127.229 109.815 125.856 111.188C124.483 112.561 122.621 113.333 120.679 113.333H7.32085C5.37926 113.333 3.51719 112.561 2.14426 111.188C0.771339 109.815 2.56996e-05 107.953 0 106.012L0 21.9927Z" fill="#C4C4C4"/>
<path d="M72.5678 64.9304C72.6864 64.14 71.8998 63.5901 71.1021 63.5429C70.958 63.5343 70.8131 63.519 70.6674 63.497C69.487 63.3365 68.4183 62.7146 67.6956 61.7675C66.9729 60.8204 66.6552 59.6255 66.812 58.4446C66.9121 58.0662 66.8649 57.6639 66.6799 57.319C66.4949 56.974 66.1859 56.7122 65.8153 56.5862C65.6449 56.5526 65.4726 56.5226 65.2983 56.4961C60.6895 55.7958 56.5553 57.88 55.8778 62.3945C55.5917 64.5844 56.1752 66.7993 57.5031 68.564C58.831 70.3288 60.7975 71.503 62.981 71.8347C65.1645 72.1665 67.391 71.6295 69.1832 70.3388C70.9753 69.0481 72.1904 67.1065 72.5678 64.9304Z" fill="white"/>
<path d="M112.254 56.3243C109.986 58.1861 107.217 59.3329 104.297 59.6193C101.377 59.9057 98.4381 59.3188 95.852 57.933C93.266 56.5472 91.1495 54.4248 89.7709 51.8349C88.3923 49.245 87.8136 46.3042 88.108 43.385C88.4025 40.4659 89.557 37.6999 91.4252 35.4375C93.2933 33.1752 95.791 31.5184 98.6017 30.677C101.412 29.8357 104.41 29.8477 107.214 30.7115C110.018 31.5753 112.502 33.2521 114.352 35.5294C116.828 38.5664 117.998 42.462 117.605 46.3608C117.211 50.2596 115.287 53.843 112.254 56.3243Z" fill="#FCBB6A"/>
<path d="M109.705 41.5869C109.484 40.9725 109.109 40.4248 108.617 39.9956L109.107 39.1558C109.236 38.9336 109.273 38.6699 109.209 38.4211C109.146 38.1723 108.988 37.9581 108.769 37.8245L108.713 37.7909C108.606 37.7253 108.486 37.6818 108.362 37.663C108.237 37.6442 108.11 37.6505 107.988 37.6815C107.866 37.7125 107.752 37.7675 107.651 37.8434C107.551 37.9194 107.467 38.0146 107.403 38.1235L106.974 38.8599L105.919 38.2719L106.3 37.5881C106.424 37.3634 106.455 37.099 106.387 36.8516C106.319 36.6041 106.156 36.3933 105.934 36.2642L105.879 36.232C105.77 36.1686 105.65 36.1276 105.525 36.1113C105.4 36.0951 105.273 36.104 105.152 36.1375C105.03 36.171 104.917 36.2284 104.818 36.3063C104.719 36.3843 104.637 36.4812 104.576 36.5914L104.18 37.3019L101.951 36.0586L94.2715 49.9235L96.8003 51.3339L96.4569 51.9507C96.3327 52.1754 96.3015 52.4397 96.3698 52.6872C96.4381 52.9346 96.6006 53.1455 96.8225 53.2746L96.878 53.3068C96.9868 53.3702 97.1072 53.4112 97.2321 53.4274C97.357 53.4436 97.4838 53.4347 97.6052 53.4013C97.7266 53.3678 97.8401 53.3104 97.939 53.2324C98.0379 53.1545 98.1202 53.0575 98.1812 52.9473L98.5395 52.3036L99.5937 52.8916L99.2595 53.4642C99.1308 53.6863 99.0942 53.95 99.1575 54.1988C99.2207 54.4476 99.3789 54.6618 99.598 54.7955L99.6536 54.8292C99.761 54.8948 99.8805 54.9383 100.005 54.9571C100.13 54.9758 100.257 54.9695 100.379 54.9385C100.501 54.9075 100.615 54.8525 100.716 54.7765C100.816 54.7006 100.9 54.6054 100.964 54.4964L101.399 53.751C101.655 53.8486 101.917 53.9311 102.182 53.9982C102.809 54.1528 103.462 54.1724 104.097 54.0556C104.701 53.9458 105.269 53.6934 105.755 53.3194C106.298 52.9099 106.744 52.3862 107.061 51.7854C107.284 51.3896 107.454 50.9664 107.566 50.5267C107.672 50.1118 107.69 49.6795 107.62 49.2571C107.555 48.8182 107.393 48.3992 107.146 48.03C106.867 47.5776 106.512 47.1762 106.097 46.8431C106.726 46.8295 107.341 46.6489 107.877 46.3196C108.451 45.9321 108.917 45.4049 109.23 44.7878C109.532 44.3185 109.731 43.7903 109.812 43.2384C109.894 42.6865 109.858 42.1235 109.705 41.5869ZM103.558 49.5186C103.45 49.7502 103.28 49.9472 103.066 50.0874C102.853 50.2277 102.604 50.3056 102.349 50.3125C101.585 50.2495 100.849 49.9965 100.209 49.5763L99.419 49.1359L101.048 46.1937L101.838 46.6341C102.533 46.959 103.136 47.4523 103.591 48.0691C103.72 48.2902 103.786 48.5427 103.78 48.7986C103.774 49.0545 103.697 49.3037 103.558 49.5186ZM105.63 43.4776C105.134 44.3726 104.323 44.506 103.197 43.8777L102.535 43.5091L104.022 40.8243L104.683 41.1931C105.81 41.8212 106.125 42.5827 105.63 43.4776Z" fill="white"/>
<path d="M38.664 99.319C38.5192 99.6391 38.293 99.9157 38.0081 100.121C37.7231 100.327 37.3893 100.454 37.0398 100.491C36.6903 100.527 36.3374 100.471 36.0162 100.329C35.6951 100.186 35.4168 99.9622 35.2091 99.6787L21.68 81.2154C21.4708 80.93 21.3406 80.5944 21.3026 80.2425C21.2646 79.8907 21.3202 79.5351 21.4636 79.2116C21.607 78.888 21.8333 78.6081 22.1195 78.4C22.4058 78.1919 22.7418 78.063 23.0938 78.0264L46.0544 75.6358C46.4064 75.5992 46.7619 75.656 47.0849 75.8007C47.4078 75.9453 47.6869 76.1726 47.894 76.4596C48.101 76.7466 48.2287 77.0832 48.2641 77.4353C48.2994 77.7874 48.2413 78.1427 48.0955 78.4651L38.664 99.319Z" fill="#83EBC5"/>
<path d="M27.0625 77.6467L33.8816 86.9528C34.0892 87.2362 34.3675 87.4603 34.6887 87.6027C35.0099 87.7451 35.3628 87.8009 35.7122 87.7645C36.0617 87.7281 36.3955 87.6008 36.6805 87.3953C36.9655 87.1898 37.1916 86.9132 37.3364 86.593L42.0901 76.082L27.0625 77.6467Z" fill="#6B94BF"/>
<path d="M104.266 87.87C104.266 90.4179 103.511 92.9086 102.095 95.027C100.679 97.1453 98.6668 98.7963 96.3127 99.771C93.9585 100.746 91.3682 101 88.8693 100.503C86.3705 100.005 84.0753 98.7775 82.2742 96.9753C80.473 95.1731 79.2468 92.8773 78.7506 90.3781C78.2543 87.879 78.5104 85.2888 79.4864 82.9352C80.4624 80.5816 82.1145 78.5704 84.2337 77.1558C86.3529 75.7412 88.844 74.9869 91.3919 74.9883C93.0831 74.9888 94.7576 75.3223 96.3199 75.97C97.8821 76.6176 99.3015 77.5666 100.497 78.7627C101.693 79.9589 102.641 81.3789 103.287 82.9415C103.934 84.5041 104.267 86.1788 104.266 87.87Z" fill="#7A7A7A"/>
<path d="M98.0102 83.6964C98.0374 82.6414 97.9534 81.5865 97.7595 80.5492C97.75 80.4942 97.7277 80.4422 97.6944 80.3974C97.6612 80.3526 97.6179 80.3162 97.568 80.2912C97.5181 80.2661 97.4631 80.2532 97.4073 80.2533C97.3515 80.2534 97.2965 80.2666 97.2467 80.2918C96.388 80.7064 95.5787 81.2162 94.8339 81.8116C92.5896 81.4972 90.3127 81.4936 88.0674 81.801C87.2909 81.1614 86.4406 80.6169 85.5347 80.1793C85.485 80.154 85.43 80.1408 85.3742 80.1406C85.3184 80.1405 85.2633 80.1534 85.2134 80.1784C85.1636 80.2034 85.1202 80.2397 85.0869 80.2845C85.0536 80.3292 85.0313 80.3812 85.0217 80.4362C84.8189 81.5109 84.734 82.6045 84.7683 83.6976C84.2771 84.4591 84.0335 85.354 84.071 86.2594L84.1606 88.282C84.1965 89.3396 84.6195 90.3472 85.3495 91.1134C86.0795 91.8796 87.0654 92.3509 88.1201 92.4379C88.6146 92.4731 89.0796 92.4968 89.5404 92.5172C88.9156 92.7809 88.4211 93.2818 88.1653 93.9099C87.5348 93.7929 86.9316 93.5589 86.3871 93.22C86.2928 93.1601 86.2062 93.0888 86.1294 93.0075C85.1165 91.8271 83.7927 90.9546 82.3086 90.489C82.1894 90.4565 82.0651 90.4467 81.9423 90.4599C81.5851 90.5035 81.3993 90.6417 81.3946 91.0017C81.3857 91.6784 82.1601 92.044 82.7941 92.2804C83.8951 92.8083 84.863 93.5776 85.6258 94.5311C85.7209 94.6375 85.832 94.7285 85.9551 94.8008C86.554 95.1479 87.2039 95.3982 87.8809 95.5424C87.7932 96.5308 87.8253 97.5261 87.9766 98.5068C88.0936 99.1301 88.4287 99.6914 88.922 100.09C89.4153 100.489 90.0344 100.699 90.6684 100.682L92.1105 100.683C92.8099 100.695 93.4877 100.44 94.0061 99.9706C94.5246 99.5011 94.845 98.8518 94.9023 98.1546C94.9788 97.0337 94.98 95.9088 94.906 94.7877C94.8686 94.2952 94.6955 93.8226 94.4059 93.4225C94.1163 93.0223 93.7215 92.7102 93.2653 92.5208C93.7184 92.5013 94.1745 92.4787 94.6567 92.4449C95.71 92.3585 96.6948 91.8882 97.4241 91.1233C98.1534 90.3584 98.5764 89.3523 98.6126 88.2961L98.705 86.2601C98.7434 85.3543 98.5007 84.4588 98.0102 83.6964Z" fill="white"/>
<path d="M61.076 45.5595L59.999 43.8117C55.8538 37.9232 53.1658 33.9802 54.0845 30.159C54.2518 29.4257 54.5644 28.7334 55.0039 28.123C55.4434 27.5126 56.0008 26.9966 56.6433 26.6054C57.2857 26.2143 58.0001 25.956 58.7441 25.8458C59.4882 25.7356 60.2468 25.7758 60.975 25.964C61.8377 26.1804 62.6443 26.5781 63.3413 27.1307C64.0382 27.6832 64.6095 28.3779 65.0169 29.1685C65.7392 28.6493 66.5638 28.2899 67.4358 28.1142C68.3078 27.9385 69.2073 27.9506 70.0743 28.1496C70.8084 28.3126 71.5024 28.6213 72.1151 29.0574C72.7278 29.4935 73.2468 30.0481 73.6413 30.6883C74.0359 31.3286 74.2979 32.0415 74.4119 32.7849C74.5259 33.5282 74.4896 34.2869 74.3052 35.016C73.3864 38.8372 69.1994 41.1288 62.8299 44.4917L61.076 45.5595Z" fill="#FF7878"/>
<path d="M16.8852 38.3096L20.9878 48.545C21.1499 48.9434 21.2837 49.3528 21.388 49.7701C21.488 50.1031 21.5422 50.4481 21.5493 50.7957C21.5464 51.2845 21.4647 51.7697 21.3075 52.2325C21.1529 52.6933 20.9287 53.1278 20.6426 53.5207C20.3302 53.9273 19.9628 54.2884 19.5509 54.5938C19.1268 54.9324 18.6545 55.2057 18.1496 55.4048C17.3744 55.7162 16.5319 55.822 15.7037 55.7119C14.8756 55.6018 14.0899 55.2796 13.423 54.7765L14.9007 51.2096C15.0965 51.579 15.3926 51.8856 15.7549 52.094C15.9026 52.1781 16.0676 52.2274 16.2372 52.2382C16.4069 52.249 16.5767 52.221 16.7339 52.1563C17.4516 51.8689 17.5829 51.1577 17.1279 50.0226L13.0488 39.8459L16.8852 38.3096ZM29.6199 37.5935C29.1194 37.4296 28.5957 37.3479 28.0691 37.3515C27.6197 37.3426 27.1729 37.4212 26.7536 37.583C26.3138 37.737 25.9369 38.0316 25.6813 38.4212C25.5748 38.5834 25.5099 38.7693 25.4922 38.9626C25.4746 39.1558 25.5048 39.3504 25.5802 39.5291C25.6669 39.7702 25.8439 39.9681 26.074 40.0809C26.3226 40.1943 26.5889 40.2643 26.8611 40.2881C27.1904 40.3003 27.5201 40.2897 27.8479 40.2563C28.2107 40.217 28.5696 40.1869 28.9246 40.1658C30.0953 40.0357 31.279 40.2388 32.3395 40.7516C33.2619 41.2756 33.9625 42.1171 34.3107 43.1192C34.6032 43.8195 34.7502 44.5719 34.7429 45.3308C34.7425 46.0362 34.5781 46.7318 34.2627 47.3628C33.9201 48.0268 33.4431 48.6123 32.862 49.082C32.1902 49.6518 31.4265 50.1035 30.6036 50.4178C28.7436 51.1646 26.6963 51.3093 24.7499 50.8313L25.1546 47.0808C25.8463 47.342 26.5741 47.4948 27.3124 47.534C27.9307 47.5642 28.5483 47.4639 29.1252 47.2397C29.6432 47.0802 30.0793 46.7265 30.3423 46.2527C30.4386 46.0753 30.4954 45.8792 30.5088 45.6778C30.5222 45.4764 30.4918 45.2746 30.4198 45.086C30.3469 44.888 30.2288 44.7098 30.0749 44.5655C29.9133 44.4192 29.7161 44.3181 29.503 44.2722C29.2157 44.1961 28.919 44.1619 28.6219 44.1707C28.2878 44.1683 27.8832 44.1789 27.4081 44.2026C26.8495 44.2446 26.2922 44.2709 25.7362 44.2816C25.2004 44.276 24.6685 44.1905 24.158 44.0278C23.6509 43.8515 23.1846 43.5747 22.7869 43.2141C22.3164 42.7342 21.9541 42.159 21.7247 41.5273C21.4439 40.856 21.2946 40.1372 21.2847 39.4096C21.2849 38.7438 21.4231 38.0853 21.6906 37.4756C21.9738 36.8508 22.3842 36.292 22.8955 35.8348C23.4831 35.318 24.1577 34.9095 24.8878 34.6282C25.6638 34.3241 26.4757 34.1212 27.3034 34.0243C28.1794 33.9012 29.0674 33.889 29.9465 33.9879L29.6199 37.5935Z" fill="#FFF8C9"/>
</svg>
