<svg width="185" height="190" viewBox="0 0 185 190" fill="none" xmlns="http://www.w3.org/2000/svg">
<path d="M1 1C10.2683 1.11763 30.8132 2.22479 41.157 9.6087C45.7642 13.5329 52.7095 19.8294 60.3634 28.8347C68.0172 37.8401 76.1692 49.3634 84.3698 60.8648" stroke="#F5F5F5" stroke-width="2" stroke-linecap="round"/>
<path d="M60.5078 62.4381C61.5991 62.5472 66.2981 63.7681 76.5275 68.5451C84.9196 72.4641 88.0879 72.9261 89.7076 73.1867C90.4384 72.9403 90.9841 71.9252 91.3732 65.2029C91.7623 58.4805 91.9781 46.0815 91.2561 32.2852" stroke="#F5F5F5" stroke-width="2" stroke-linecap="round"/>
<path d="M116.786 184.121C145.729 184.121 169.193 162.57 169.193 135.984C169.193 109.399 145.729 87.8477 116.786 87.8477C87.8423 87.8477 64.3789 109.399 64.3789 135.984C64.3789 162.57 87.8423 184.121 116.786 184.121Z" fill="#DDDCDC"/>
<path d="M116.787 87.8499C145.731 87.8499 169.194 109.401 169.194 135.987C169.194 162.572 145.731 184.124 116.787 184.124C87.8431 184.124 64.3801 162.572 64.3801 135.987C64.3801 109.401 87.8431 87.8499 116.787 87.8499ZM116.787 86.3867C87.0115 86.3867 62.7871 108.637 62.7871 135.987C62.7871 163.336 87.0115 185.587 116.787 185.587C146.563 185.587 170.787 163.336 170.787 135.987C170.787 108.637 146.563 86.3867 116.787 86.3867Z" fill="#828084"/>
<path d="M116.786 180.463C88.5115 180.463 65.4859 159.879 64.4302 134.156C64.4059 134.764 64.3789 135.371 64.3789 135.984C64.3789 162.57 87.8419 184.121 116.786 184.121C145.73 184.121 169.193 162.57 169.193 135.984C169.193 135.371 169.169 134.764 169.142 134.156C168.094 159.891 145.068 180.463 116.786 180.463Z" fill="white"/>
<path d="M116.787 174.245C140.616 174.245 159.933 156.502 159.933 134.615C159.933 112.728 140.616 94.9844 116.787 94.9844C92.9577 94.9844 73.6406 112.728 73.6406 134.615C73.6406 156.502 92.9577 174.245 116.787 174.245Z" fill="#A5A4A4"/>
<path d="M131.029 88.3983C131.029 88.3983 133.022 76.6927 138.994 72.8512C144.967 69.0097 170.854 71.0235 150.148 117.117L145.966 106.326C145.966 106.326 151.741 92.7904 149.948 86.9351C148.155 81.0799 142.388 80.1672 139.991 96.0814L131.029 88.3983Z" fill="white"/>
<path d="M144.408 71.5534C153.434 71.5534 166.748 80.1912 150.156 117.116L145.974 106.325C145.974 106.325 151.749 92.7896 149.956 86.9344C149.238 84.5932 147.886 83.0433 146.365 83.0433C144.087 83.0433 141.433 86.5326 139.999 96.0806L131.029 88.3976C131.029 88.3976 133.022 76.692 138.994 72.8504C140.185 72.0866 142.162 71.5534 144.394 71.5534M144.394 70.0902C141.924 70.0902 139.621 70.6606 138.076 71.6526C131.621 75.8041 129.536 87.6709 129.45 88.1719L129.32 88.9382L129.949 89.4689L138.911 97.1569L141.154 99.0814L141.576 96.2865C143.017 86.674 145.58 84.5114 146.363 84.5114C146.857 84.5114 147.823 85.3868 148.42 87.3361C149.77 91.7505 146.039 102.157 144.489 105.795L144.27 106.306L144.47 106.819L148.652 117.612L150.043 121.201L151.625 117.679C162.682 93.0749 160.246 81.3841 156.261 75.9108C154.972 74.1085 153.211 72.6316 151.141 71.6149C149.07 70.5981 146.756 70.074 144.408 70.0902H144.394Z" fill="#828084"/>
<path d="M147.167 79.2522C141.392 81.2635 139.799 92.0564 139.799 92.0564C139.799 92.0564 137.077 91.496 133.832 90.7916L139.999 96.079C142.388 80.1648 148.164 81.08 149.956 86.9328C151.749 92.7856 145.974 106.324 145.974 106.324L148.331 112.405C148.79 111.185 149.325 109.841 149.951 108.335C159.315 86.0201 152.943 77.2384 147.167 79.2522Z" fill="#CACACA"/>
<path d="M151.82 121.076C149.843 99.7277 132.817 82.3008 109.473 82.3008C103.911 82.2998 98.4029 83.3052 93.2639 85.2596C88.1249 87.2141 83.4554 90.0792 79.522 93.6913C75.5886 97.3035 72.4684 101.592 70.3397 106.312C68.2109 111.032 67.1152 116.091 67.1152 121.2C67.1152 126.445 68.6515 131.308 70.2985 136.008C77.2051 155.709 98.959 168.806 121.329 164.996C144.038 161.13 153.758 142.108 151.82 121.076Z" fill="white"/>
<path d="M109.464 82.2991C132.808 82.2991 149.834 99.7261 151.811 121.074C153.757 142.107 144.037 161.128 121.333 164.995C118.764 165.437 116.155 165.662 113.541 165.667C94.0794 165.667 76.3971 153.418 70.2978 136.018C68.6508 131.319 67.1145 126.456 67.1145 121.21C67.1127 116.101 68.2068 111.041 70.3343 106.321C72.4617 101.6 75.5809 97.3101 79.5136 93.6967C83.4463 90.0833 88.1155 87.2169 93.2544 85.2613C98.3934 83.3057 103.901 82.2991 109.464 82.2991ZM109.464 80.8359C85.2342 80.8359 65.5215 98.9399 65.5215 121.198C65.5215 126.691 67.1415 131.748 68.7831 136.455C75.1092 154.509 93.5151 167.118 113.541 167.118C116.252 167.116 118.957 166.887 121.622 166.433C143.144 162.77 155.618 144.917 153.398 120.95C151.238 97.7074 132.77 80.8359 109.464 80.8359Z" fill="#828084"/>
<path d="M119.958 160.057C103.677 162.626 87.7117 157.483 76.7578 147.811C86.6884 160.598 103.815 167.971 121.324 164.99C139.776 161.855 149.658 148.711 151.664 132.613C148.13 146.407 137.745 157.235 119.958 160.057Z" fill="#CACACA"/>
<path d="M108.559 161.903C85.4603 161.903 73.1618 145.517 73.0241 145.326C72.9177 145.166 72.8828 144.973 72.9267 144.79C72.9707 144.606 73.0901 144.445 73.2601 144.339C73.4301 144.234 73.6376 144.194 73.8396 144.225C74.0415 144.257 74.2223 144.359 74.3444 144.511C74.4983 144.719 89.9369 165.241 118.719 159.391C118.923 159.354 119.135 159.392 119.309 159.497C119.483 159.601 119.605 159.764 119.65 159.951C119.695 160.138 119.658 160.333 119.548 160.495C119.438 160.657 119.264 160.773 119.062 160.819C115.614 161.531 112.092 161.894 108.559 161.903Z" fill="#828084"/>
<path d="M123.869 159.919C123.685 159.902 123.513 159.827 123.381 159.707C123.249 159.588 123.166 159.43 123.146 159.261C123.125 159.092 123.168 158.921 123.268 158.778C123.368 158.635 123.518 158.527 123.694 158.473C127.887 157.419 131.78 155.538 135.101 152.962C135.18 152.894 135.272 152.841 135.373 152.807C135.475 152.773 135.582 152.758 135.69 152.763C135.798 152.768 135.903 152.793 136 152.837C136.097 152.88 136.183 152.941 136.253 153.017C136.324 153.092 136.377 153.179 136.409 153.274C136.441 153.368 136.453 153.468 136.442 153.566C136.431 153.665 136.398 153.761 136.346 153.847C136.294 153.934 136.223 154.01 136.138 154.071C132.63 156.817 128.498 158.809 124.045 159.901C123.987 159.913 123.928 159.919 123.869 159.919Z" fill="#828084"/>
<path d="M109.068 153.759C128.865 153.759 144.913 139.018 144.913 120.835C144.913 102.651 128.865 87.9102 109.068 87.9102C89.2711 87.9102 73.2227 102.651 73.2227 120.835C73.2227 139.018 89.2711 153.759 109.068 153.759Z" fill="#8B644B"/>
<path d="M109.067 87.9124C116.157 87.9124 123.087 89.8434 128.982 93.4612C134.876 97.079 139.471 102.221 142.184 108.237C144.897 114.253 145.607 120.873 144.224 127.26C142.84 133.647 139.427 139.513 134.413 144.118C129.4 148.723 123.013 151.858 116.06 153.129C109.107 154.399 101.9 153.747 95.3497 151.255C88.7999 148.763 83.2016 144.543 79.2629 139.129C75.3242 133.714 73.2219 127.349 73.2219 120.837C73.2219 112.105 76.9984 103.73 83.7207 97.5558C90.443 91.3812 99.5604 87.9124 109.067 87.9124ZM109.067 86.4492C88.4229 86.4492 71.6289 101.875 71.6289 120.837C71.6289 139.799 88.4229 155.225 109.067 155.225C129.711 155.225 146.505 139.799 146.505 120.837C146.505 101.875 129.709 86.4492 109.067 86.4492Z" fill="#613F1F"/>
<path d="M109.864 150.834C104.556 150.831 99.316 149.747 94.5202 147.658C89.7245 145.57 85.493 142.53 82.131 138.758C78.7689 134.986 76.3601 130.576 75.0782 125.845C73.7963 121.115 73.6732 116.182 74.7179 111.402C73.3323 115.667 72.9022 120.145 73.4537 124.567C74.0052 128.988 75.5268 133.261 77.9266 137.128C80.3265 140.994 83.5547 144.373 87.4163 147.061C91.2779 149.749 95.6927 151.69 100.394 152.767C105.095 153.844 109.985 154.035 114.769 153.327C119.553 152.619 124.13 151.028 128.226 148.65C132.321 146.272 135.849 143.155 138.596 139.49C141.344 135.824 143.254 131.684 144.211 127.321C142.002 134.114 137.468 140.07 131.28 144.306C125.092 148.542 117.581 150.832 109.864 150.834Z" fill="#80543D"/>
<path d="M107.739 90.1055C113.872 90.105 119.902 91.55 125.253 94.3025C130.604 97.0549 135.096 101.023 138.3 105.826C141.504 110.629 143.312 116.107 143.552 121.736C143.792 127.365 142.455 132.956 139.669 137.974C142.199 134.192 143.869 129.979 144.581 125.588C145.292 121.197 145.03 116.72 143.809 112.425C142.589 108.13 140.435 104.106 137.478 100.594C134.52 97.0834 130.821 94.1579 126.601 91.9939C122.381 89.8298 117.729 88.4718 112.923 88.0016C108.117 87.5314 103.258 87.9587 98.6366 89.2578C94.0153 90.5568 89.7277 92.7009 86.0316 95.5609C82.3355 98.421 79.3073 101.938 77.1289 105.901C80.3263 101.076 84.8218 97.0889 90.1828 94.3225C95.5438 91.5562 101.59 90.1039 107.739 90.1055Z" fill="#80543D"/>
<path d="M132.233 121.689C131.712 119.41 129.444 109.433 125.261 114.921C121.079 120.41 119.486 127.359 114.707 130.104C109.928 132.849 106.337 135.957 105.149 138.883C105.149 138.883 106.542 132.115 103.156 127.359C99.7706 122.602 97.7807 115.105 98.1803 110.715C98.5799 106.326 98.777 102.484 92.4185 106.15C86.06 109.815 79.4585 116.566 82.6472 126.811C85.8359 137.055 99.5735 142.908 102.163 150.046C106.302 148.376 110.559 146.968 114.907 145.83C122.475 143.821 135.618 136.507 132.233 121.689Z" fill="#BC8E66"/>
<path d="M107.142 133.576C107.142 133.576 108.735 130.282 112.118 128.088C115.501 125.893 120.682 120.955 121.279 115.102C121.279 115.102 118.889 118.574 116.103 119.318C114.164 119.827 112.053 120.263 110.668 121.33C111.116 120.067 111.913 118.502 113.314 117.307C116.103 114.929 121.079 109.807 118.889 108.892C117.318 108.235 114.839 109.292 113.26 111.147C113.665 109.815 114.21 108.466 114.907 107.613C116.7 105.418 121.876 101.576 120.682 98.1018C119.489 94.6273 117.496 96.0881 116.5 97.9183C116.5 97.9183 117.097 93.3452 113.911 93.8933C110.725 94.4413 110.725 97.9183 111.521 101.76C112.226 105.148 112.925 110.1 112.261 112.726C112.119 113.024 112.005 113.333 111.921 113.649C111.921 113.649 113.514 107.429 110.525 105.599C107.536 103.769 104.949 106.149 106.942 111.454C108.934 116.759 109.531 119.142 109.331 123.16C109.331 123.16 108.932 119.318 106.742 116.94C104.552 114.562 102.56 113.649 102.36 109.076C102.36 109.076 99.5735 113.465 101.763 119.492C103.953 125.518 107.142 128.819 107.142 133.576Z" fill="#BC8E66"/>
<path d="M86.2298 138.883C85.8437 138.526 85.4873 138.164 85.1309 137.805C85.4676 138.189 85.8349 138.549 86.2298 138.883Z" fill="#BC8E66"/>
<path d="M90.8113 101.2C93.7975 98.824 92.8012 94.799 87.4255 98.2735C82.1578 101.683 69.7027 122.188 85.1278 137.802C83.2675 135.731 79.7062 130.578 79.8547 121.504C80.0572 109.25 87.8278 103.578 90.8113 101.2Z" fill="#BC8E66"/>
<path d="M140.399 115.105C137.809 103.58 132.631 100.106 131.437 102.301C130.244 104.495 135.817 103.045 138.406 119.127C141.173 136.326 126.658 144.552 126.658 144.552C135.62 141.81 142.988 126.627 140.399 115.105Z" fill="#BC8E66"/>
<path d="M109.936 104.414C110.133 104.441 110.311 104.451 110.524 104.491C110.333 104.441 110.135 104.415 109.936 104.414Z" fill="#A7744D"/>
<path d="M113.068 110.75C112.733 111.382 112.462 112.04 112.258 112.717C112.258 112.717 112.595 111.883 113.068 110.75Z" fill="#A7744D"/>
<mask id="mask0_164_10" style="mask-type:luminance" maskUnits="userSpaceOnUse" x="81" y="104" width="52" height="47">
<path d="M132.233 121.689C131.712 119.41 129.444 109.433 125.261 114.921C121.079 120.41 119.486 127.359 114.707 130.104C109.928 132.849 106.337 135.957 105.149 138.883C105.149 138.883 106.542 132.115 103.156 127.359C99.7706 122.602 97.7807 115.105 98.1803 110.715C98.5799 106.326 98.777 102.484 92.4185 106.15C86.06 109.815 79.4585 116.566 82.6472 126.811C85.8359 137.055 99.5735 142.908 102.163 150.046C106.302 148.376 110.559 146.968 114.907 145.83C122.475 143.821 135.618 136.507 132.233 121.689Z" fill="white"/>
</mask>
<g mask="url(#mask0_164_10)">
<path d="M93.798 139.432C88.0227 133.946 84.0402 128.091 84.4371 120.41C84.834 112.73 93.9978 104.129 100.17 108.154C100.17 108.154 99.9702 104.129 96.984 103.581C93.9978 103.033 79.8579 109.984 81.054 122.054C82.2501 134.125 89.019 138.517 91.6083 141.262C94.1976 144.007 101.166 147.846 102.163 150.041C102.163 150.046 99.5733 144.92 93.798 139.432Z" fill="#A7744D"/>
<path d="M134.622 125.348C132.629 111.264 125.66 107.971 124.067 117.117C124.067 117.117 125.66 113.459 128.25 115.837C130.839 118.216 132.432 133.579 122.474 139.067C112.517 144.556 103.156 146.574 102.162 151.14C102.162 151.14 103.755 149.31 111.92 147.115C120.085 144.92 136.611 139.432 134.622 125.348Z" fill="#A7744D"/>
</g>
<mask id="mask1_164_10" style="mask-type:luminance" maskUnits="userSpaceOnUse" x="100" y="93" width="22" height="41">
<path d="M107.142 133.576C107.142 133.576 108.735 130.282 112.118 128.088C115.501 125.893 120.682 120.955 121.279 115.102C121.279 115.102 118.889 118.574 116.103 119.318C114.164 119.827 112.053 120.263 110.668 121.33C111.116 120.067 111.913 118.502 113.314 117.307C116.103 114.929 121.079 109.807 118.889 108.892C117.318 108.235 114.839 109.292 113.26 111.147C113.665 109.815 114.21 108.466 114.907 107.613C116.7 105.418 121.876 101.576 120.682 98.1018C119.489 94.6273 117.496 96.0881 116.5 97.9183C116.5 97.9183 117.097 93.3452 113.911 93.8933C110.725 94.4413 110.725 97.9183 111.521 101.76C112.226 105.148 112.925 110.1 112.261 112.726C112.119 113.024 112.005 113.333 111.921 113.649C111.921 113.649 113.514 107.429 110.525 105.599C107.536 103.769 104.949 106.149 106.942 111.454C108.934 116.759 109.531 119.142 109.331 123.16C109.331 123.16 108.932 119.318 106.742 116.94C104.552 114.562 102.56 113.649 102.36 109.076C102.36 109.076 99.5735 113.465 101.763 119.492C103.953 125.518 107.142 128.819 107.142 133.576Z" fill="white"/>
</mask>
<g mask="url(#mask1_164_10)">
<path d="M112.913 125.162C111.005 126.739 109.39 128.593 108.134 130.65C107.937 127.54 105.148 122.235 103.155 118.761C101.163 115.286 102.345 109.066 102.345 109.066C98.5655 111.993 99.5591 119.482 102.345 124.065C105.132 128.648 106.528 134.481 106.528 134.481C106.528 134.481 109.517 132.287 110.91 130.456C112.303 128.626 112.103 130.092 116.286 125.702C120.468 121.313 121.264 115.093 121.264 115.093C119.885 119.492 115.908 122.786 112.913 125.162Z" fill="#A7744D"/>
<path d="M117.097 108.335C118.69 109.982 116.103 112.176 114.31 114.188C112.517 116.199 110.53 118.944 110.53 118.944C110.53 118.944 108.74 112.357 108.141 107.968C107.717 104.843 109.105 104.409 109.942 104.416C102.711 103.424 104.812 110.063 106.747 113.096C108.74 116.206 109.337 123.158 109.337 123.158C109.337 123.158 112.523 119.5 113.117 118.585C113.711 117.67 117.499 115.113 118.096 114.369C118.692 113.625 121.681 109.064 121.481 108.149C121.282 107.234 115.504 106.688 117.097 108.335Z" fill="#A7744D"/>
<path d="M112.26 112.717C112.8 110.701 112.913 102.847 112.516 100.652C112.119 98.4569 112.716 96.8102 114.509 95.347C116.302 93.8838 117.495 95.8951 117.495 95.8951C117.095 89.8613 110.923 90.0423 109.125 92.4231C107.327 94.8039 108.528 98.4594 110.718 103.397C112.908 108.335 111.72 114.736 112.26 112.717Z" fill="#A7744D"/>
<path d="M118.688 98.6405C118.092 102.113 116.698 103.214 115.502 105.408C114.789 106.72 113.772 109.069 113.072 110.75C113.882 109.203 115.359 107.122 117.897 105.957C122.279 103.945 124.669 94.4319 119.293 92.9688L117.5 95.8952C117.5 95.8952 119.288 95.1635 118.688 98.6405Z" fill="#A7744D"/>
</g>
<path d="M103.758 136.688C104.287 133.48 103.583 130.203 101.765 127.42C98.7116 122.663 97.2509 121.689 97.1186 118.641C96.9863 115.593 94.3322 116.201 96.0575 121.2C97.7828 126.2 103.091 127.177 103.758 136.688Z" fill="#CBA988"/>
<path d="M102.03 147.419C102.03 147.419 98.1802 142.176 94.5946 138.761C91.009 135.346 86.0977 129.493 86.0977 124.501C86.0977 119.509 87.0265 123.281 87.823 126.086C88.6195 128.891 90.7444 133.647 94.0627 136.695C97.381 139.743 101.099 144.735 102.03 147.419Z" fill="#CBA988"/>
<path d="M106.811 145.103C106.811 145.103 110.526 141.931 114.511 140.225C118.496 138.519 122.741 135.957 123.537 133.884C124.334 131.81 125.927 132.42 124.077 135.347C122.228 138.273 111.05 141.567 106.811 145.103Z" fill="#CBA988"/>
<path d="M107.34 138.76C108.721 135.865 111.101 133.469 114.111 131.94C119.155 129.38 121.941 125.844 122.608 123.404C123.275 120.963 124.466 118.649 125.395 119.135C126.324 119.622 124.334 124.991 122.209 127.55C120.084 130.109 113.447 132.793 111.987 134.013C110.526 135.233 108.271 137.297 107.34 138.76Z" fill="#CBA988"/>
<path d="M108.931 124.005C108.931 124.005 107.47 118.274 105.348 116.689C103.226 115.104 103.623 116.937 104.949 119.005C106.274 121.074 108.402 125.949 108.402 128.395C108.846 126.983 109.721 125.718 110.924 124.749L112.914 123.164C112.914 123.164 117.695 120.481 116.499 120.116C115.303 119.752 110.791 121.446 108.931 124.005Z" fill="#CBA988"/>
<path d="M111.59 114.25C111.59 114.25 112.254 107.787 110.526 106.688C108.798 105.59 110.129 112.42 111.066 116.445C111.066 116.445 111.465 115.468 112.791 114.371C114.117 113.275 116.774 110.225 115.845 110.225C114.916 110.225 112.4 112.908 111.59 114.25Z" fill="#CBA988"/>
<path d="M115.172 101.326C115.172 101.326 115.836 97.1797 114.632 97.1797C113.427 97.1797 113.967 101.202 113.436 107.422C114.047 105.88 114.848 104.407 115.825 103.032C117.297 101.081 117.696 98.0328 115.172 101.326Z" fill="#CBA988"/>
</svg>
