<svg width="292" height="61" viewBox="0 0 292 61" fill="none" xmlns="http://www.w3.org/2000/svg">
<path d="M56.7761 42.2012L52.0447 37.4698C49.5844 35.0095 45.4209 35.0095 42.9606 37.4698L41.4465 38.9839C40.5003 39.9301 38.797 39.9301 37.6615 38.9839L29.7128 31.0352L21.7642 23.0866C21.1964 22.5188 21.0072 21.9511 21.0072 21.194C21.0072 20.437 21.1964 19.8693 21.7642 19.3015L23.4675 17.7875C25.9278 15.3272 25.9278 11.1636 23.4675 8.70331L18.3576 3.78272C16.0866 1.32243 11.7338 1.32243 9.27346 3.78272L7.75943 5.29675C3.97437 9.08182 1.89258 14.0024 1.89258 19.4908C1.89258 24.9791 3.97437 29.8997 7.75943 33.6848L17.4114 43.3367L27.0633 52.9886C30.8484 56.7737 35.9582 58.8555 41.2573 58.8555C46.5564 58.8555 51.6662 56.7737 55.4513 52.9886L57.1546 51.4746C58.2901 50.3391 59.0471 48.6358 59.0471 46.9325C58.6686 45.04 58.1009 43.3367 56.7761 42.2012Z" fill="#4DAF50"/>
<path d="M30.2812 9.46094C29.3349 9.46094 28.3887 10.4072 28.3887 11.3535C28.3887 12.2997 29.3349 13.246 30.2812 13.246C35.0125 13.246 39.1761 15.1385 42.3934 18.1666C45.4215 21.3839 47.314 25.5475 47.314 30.2788C47.314 31.2251 48.2603 32.1714 49.2066 32.1714C50.1528 32.1714 51.0991 31.2251 51.0991 30.2788C51.0991 24.6012 48.828 19.3021 45.043 15.517C41.2579 11.732 35.9588 9.46094 30.2812 9.46094Z" fill="#FE9803"/>
<path d="M52.6133 7.94674C48.8282 4.16167 43.5291 1.89062 37.8515 1.89062C36.9053 1.89062 35.959 2.83689 35.959 3.78316C35.959 4.72943 36.9053 5.67569 37.8515 5.67569C42.5829 5.67569 46.7464 7.56823 49.9637 10.5963C52.9918 13.8136 54.8843 17.9772 54.8843 22.7085C54.8843 23.6548 55.8306 24.601 56.7769 24.601C57.7231 24.601 58.6694 23.6548 58.6694 22.7085C58.6694 17.0309 56.3984 11.7318 52.6133 7.94674Z" fill="#FE9803"/>
<path d="M131.708 54.0826H82.8438V54.7734H131.708V54.0826Z" fill="#E3EDF5"/>
<path d="M101.196 10.7617L101.01 10.6291L101.481 9.96794L102.173 10.4345L102.045 10.6239L101.537 10.2819L101.196 10.7617Z" fill="#DCF5F9"/>
<path d="M95.4424 54.0898H114.779C115.995 54.0898 116.981 53.104 116.981 51.8878V20.8102C116.981 19.594 115.995 18.6081 114.779 18.6081H95.4424C94.2262 18.6081 93.2402 19.594 93.2402 20.8102V51.8878C93.2402 53.104 94.2262 54.0898 95.4424 54.0898Z" fill="#4ACFD3"/>
<path d="M96.7411 54.0898H116.077C117.294 54.0898 118.28 53.104 118.28 51.8878V20.8102C118.28 19.594 117.294 18.6081 116.077 18.6081H96.7411C95.5249 18.6081 94.5391 19.594 94.5391 20.8102V51.8878C94.5391 53.104 95.5249 54.0898 96.7411 54.0898Z" fill="#8CEAE7"/>
<path d="M105.588 52.2176C105.588 52.6713 105.956 53.0391 106.409 53.0391C106.863 53.0391 107.231 52.6713 107.231 52.2176C107.231 51.7639 106.863 51.396 106.409 51.396C105.956 51.396 105.588 51.7639 105.588 52.2176Z" fill="#92FFDD"/>
<path d="M123.012 50.2148H118.28V20.8114C118.28 19.5952 117.294 18.6093 116.078 18.6093H114.78H96.4238V15.6779H123.012V50.2148Z" fill="#EAF9FC"/>
<path d="M96.4238 18.6328V18.61H114.78H96.7418C96.6339 18.61 96.5277 18.6178 96.4238 18.6328Z" fill="#A2E6EA"/>
<path d="M118.28 50.2148H96.4238V18.6321C96.5277 18.6171 96.6339 18.6093 96.7418 18.6093H114.78H116.078C117.294 18.6093 118.28 19.5952 118.28 20.8114V50.2148Z" fill="#BCF1F2"/>
<path d="M113.134 15.6399C113.179 14.8262 112.727 14.1396 112.124 14.1065C111.522 14.0734 110.997 14.7062 110.952 15.52C110.907 16.3338 111.36 17.0203 111.962 17.0534C112.565 17.0866 113.089 16.4537 113.134 15.6399Z" fill="#003977"/>
<path d="M112.831 15.6203C112.876 14.8065 112.491 14.1237 111.972 14.0951C111.453 14.0666 110.996 14.7031 110.951 15.5169C110.906 16.3307 111.291 17.0135 111.81 17.042C112.329 17.0706 112.786 16.4341 112.831 15.6203Z" fill="#004381"/>
<path d="M112.793 13.5674C112.765 14.2063 112.556 14.7489 112.323 14.7381C112.072 14.7266 111.729 14.1586 111.758 13.5196C111.786 12.8807 111.945 12.6554 112.314 12.6724C112.683 12.6894 112.822 12.9284 112.793 13.5674Z" fill="#2E1709"/>
<path d="M105.92 22.779C105.92 21.9537 107.816 20.6909 108.997 20.6909C110.654 20.6909 112.252 21.6743 112.252 22.8276C112.252 23.9809 110.654 24.8672 108.997 24.8672C107.341 24.8672 105.92 23.9323 105.92 22.779Z" fill="#008BAF"/>
<path d="M117.108 44.4131C116.958 43.0719 115.691 39.2043 115.691 39.2043H106.335L104.273 41.3265L103.785 50.1839L117.247 50.1875C117.3 47.9995 117.278 45.9273 117.108 44.4131Z" fill="#00649F"/>
<path d="M111.623 23.8555L107.119 23.8633L107.415 20.1165L107.612 15.8845L111.185 19.6227L111.623 23.8555Z" fill="#B97860"/>
<path d="M112.574 15.5574C112.58 15.9384 112.316 16.2519 111.984 16.2577C111.651 16.2635 111.376 15.9594 111.369 15.5784C111.363 15.1975 111.627 14.884 111.959 14.8781C112.292 14.8723 112.567 15.1765 112.574 15.5574Z" fill="#B97860"/>
<path d="M110.878 19.9977C110.632 20.0021 110.22 20.0096 109.89 20.0154C109.098 20.0294 108.217 19.3347 108.041 18.2192C107.953 17.6597 107.8 16.4492 107.8 16.4492L107.434 12.1166L112.481 12.0286L112.329 18.6311C112.311 19.3804 111.671 19.9837 110.878 19.9977Z" fill="#C2866E"/>
<path d="M111.336 13.5431C110.158 13.6853 109.442 13.1271 108.206 13.1766C107.397 13.209 106.934 12.4781 107.051 11.9099C107.308 10.6611 109.326 10.8897 110.094 10.9339C111.946 11.0407 112.657 10.7421 113.079 10.5655C113.284 10.4797 113.51 10.6272 113.505 10.8464C113.46 12.705 112.544 13.3973 111.336 13.5431Z" fill="#2E1709"/>
<path d="M107.978 13.8893C107.849 14.2748 107.904 15.3842 107.541 15.4562C107.179 15.5279 106.332 15.1856 106.332 13.26C106.332 12.5551 106.808 11.3769 107.654 11.6994C109.139 12.2657 108.295 12.9454 107.978 13.8893Z" fill="#2E1709"/>
<path d="M111.803 22.7782C111.803 22.7782 110.309 23.9384 107.637 23.2924L109.032 32.4945L108.73 40.1152L108.824 40.6055L116.049 40.1083L113.237 29.2159L111.803 22.7782Z" fill="#DCF5F9"/>
<path d="M103.166 23.465L105.839 22.0212L107.2 22.5154L111.623 33.4263V46.8286C111.623 46.8286 109.667 47.2539 109.539 47.2539C109.411 47.2539 103.166 46.8775 103.166 46.8775L104.181 36.8825L103.628 28.6127L103.166 23.465Z" fill="#00A6BA"/>
<path d="M111.531 21.5733L113.452 30.8987L115.076 36.3398L115.368 30.1266L115.769 24.1514L111.531 21.5733Z" fill="#00A6BA"/>
<path d="M115.768 24.1477C116.452 24.3547 116.715 25.8408 116.918 27.2719C117.175 29.0769 117.557 45.6719 117.557 45.6719C117.557 45.6719 116.082 43.0752 115.701 42.4951C115.446 42.1072 115.18 41.095 115.117 40.6043C114.591 36.5207 114.435 23.7441 115.768 24.1477Z" fill="#00A6BA"/>
<path d="M107.842 15.1601C107.755 15.1396 107.662 15.1326 107.566 15.1432C107.152 15.1888 106.851 15.5327 106.893 15.9114C106.935 16.2901 107.304 16.5601 107.718 16.5145C107.812 16.5042 107.899 16.478 107.979 16.4404L107.842 15.1601Z" fill="#B97860"/>
<path d="M105.612 22.4447C105.423 23.0726 104.635 25.8252 104.635 25.8252L105.968 26.115L104.867 27.1003L111.622 33.4297C111.622 33.4297 107.097 21.8115 107.008 21.4338C107.008 21.4338 106.023 21.8309 105.783 22.0272C105.723 22.0763 105.661 22.2831 105.612 22.4447Z" fill="#008BAF"/>
<path d="M114.128 23.7062L113.332 24.351L114.432 24.6418L114.031 32.8438C114.031 32.8438 113.069 29.745 112.379 26.6913C111.868 24.4262 111.558 21.9311 111.369 21.4117C111.369 21.4117 111.956 21.6642 112.16 21.7898C112.29 21.87 114.128 23.7062 114.128 23.7062Z" fill="#008BAF"/>
<path d="M111.48 10.9336C111.025 10.5916 110.306 10.2673 109.234 10.4895C107.273 10.8961 107.046 14.1917 107.039 14.3322L107.441 14.3516C107.443 14.3201 107.659 11.2129 109.319 10.8688C109.945 10.7386 110.37 10.7998 110.739 10.9552C110.752 10.9604 111.499 10.9483 111.48 10.9336Z" fill="#00BAC8"/>
<path d="M110.7 18.3709H110.128C110.012 18.3709 109.914 18.4468 109.879 18.5508C109.214 18.4978 108.602 18.1239 108.256 17.5473L107.807 16.7999L107.615 16.9151L108.064 17.6624C108.45 18.3048 109.133 18.7203 109.875 18.775C109.906 18.8861 110.007 18.9688 110.128 18.9688H110.7C110.845 18.9688 110.964 18.8501 110.964 18.7049V18.6348C110.964 18.4897 110.845 18.3709 110.7 18.3709Z" fill="#005592"/>
<path d="M108.288 15.5983C108.375 16.4087 107.96 17.118 107.36 17.1827C106.76 17.2475 106.203 16.6431 106.115 15.8328C106.028 15.0225 106.443 14.3132 107.043 14.2484C107.643 14.1837 108.2 14.788 108.288 15.5983Z" fill="#004381"/>
<path d="M107.987 15.6313C108.075 16.4416 107.727 17.1438 107.21 17.1996C106.693 17.2554 106.202 16.6438 106.115 15.8335C106.028 15.0231 106.376 14.321 106.893 14.2652C107.41 14.2094 107.9 14.8211 107.987 15.6313Z" fill="#003977"/>
<path d="M107.789 15.6486C107.858 16.2878 107.53 16.8475 107.056 16.8986C106.582 16.9497 106.143 16.473 106.074 15.8337C106.005 15.1945 106.333 14.6348 106.806 14.5837C107.28 14.5326 107.72 15.0094 107.789 15.6486Z" fill="#00BAC8"/>
<path d="M107.471 15.6838C107.538 16.3082 107.271 16.849 106.874 16.8918C106.477 16.9346 106.101 16.4632 106.034 15.8389C105.966 15.2145 106.233 14.6737 106.63 14.6308C107.027 14.588 107.403 15.0594 107.471 15.6838Z" fill="#00D0D3"/>
<path d="M115.564 30.14C115.564 30.14 115.477 24.3694 115.628 24.2218C115.864 23.9906 116.483 24.4895 116.768 24.8115C117.55 25.6966 121.288 33.7876 120.463 36.8617C120.337 37.3311 118.958 37.8477 118.958 37.8477C118.958 37.8477 116.944 35.8464 116.868 35.6696C116.355 34.4851 115.718 30.6494 115.718 30.6494C115.617 30.4979 115.563 30.3213 115.564 30.14Z" fill="#00A6BA"/>
<path d="M104.528 30.1774C104.528 30.1774 103.743 23.5079 103.548 23.3767C103.244 23.1712 101.872 24.5077 101.548 25.044C100.656 26.5214 99.9793 29.9962 99.715 31.5135C99.3968 33.3402 99.1475 36.5017 99.4355 38.182C99.5241 38.6997 100.055 40.293 100.055 40.293L103.661 34.864L104.528 30.1774Z" fill="#00A6BA"/>
<path d="M107.078 39.6211H115.341L117.198 27.9122H108.935L107.078 39.6211Z" fill="white"/>
<path d="M117.125 35.8203L115.594 34.947C115.594 34.947 114.563 34.4915 114.342 34.3264C114.174 34.2007 112.866 33.3106 112.823 32.8396C112.818 32.7811 112.904 32.5468 112.904 32.5468C112.904 32.5468 112.804 32.2774 112.748 32.2048C112.692 32.1308 112.943 31.9591 113.242 31.9889C113.26 31.9907 113.493 32.0366 113.767 32.0913C114.177 32.1731 114.887 32.1026 114.887 32.1026C114.887 32.1026 114.423 31.8324 114.019 31.7614C113.805 31.7239 113.314 31.7129 113.17 31.5187C113.131 31.4652 113.17 31.2056 113.522 31.137C113.831 31.0769 115.476 31.2946 116.493 31.5208C116.619 31.5488 116.735 30.8051 116.735 30.8051C117.047 30.8051 117.538 31.3199 117.689 31.539C118.025 32.0288 118.386 34.0584 118.386 34.0584L117.125 35.8203Z" fill="#C2866E"/>
<path d="M115.807 35.3543L118.459 33.5243C118.459 33.5243 120.665 35.4168 120.67 36.3047C120.673 36.6951 120.106 37.4948 119.715 37.744C119.454 37.9107 118.771 38.0449 118.488 37.9718C117.489 37.7137 115.807 35.3543 115.807 35.3543Z" fill="#00A6BA"/>
<path d="M106.832 36.7812L109.35 36.0316C109.35 36.0316 110.2 35.9034 110.421 35.7383C110.589 35.6125 111.896 34.7225 111.939 34.2514C111.944 34.1929 111.859 33.9587 111.859 33.9587C111.859 33.9587 111.959 33.6892 112.014 33.6168C112.071 33.5427 111.819 33.371 111.52 33.4008C111.502 33.4025 111.269 33.4486 110.996 33.5031C110.585 33.585 109.875 33.5145 109.875 33.5145C109.875 33.5145 110.351 33.3092 110.755 33.2382C110.968 33.2008 111.46 33.1897 111.603 32.9955C111.643 32.942 111.604 32.6824 111.251 32.6138C110.942 32.5537 109.263 32.6201 108.269 32.9327C108.196 32.9558 108.126 32.8902 108.143 32.8152L108.237 32.4038C107.666 32.4354 107.541 32.7974 107.378 33.0018C107.007 33.466 105.574 34.9778 105.574 34.9778L106.832 36.7812Z" fill="#C2866E"/>
<path d="M107.684 37.1954L105.866 33.9885L103.601 34.952L100.868 37.8062C100.868 37.8062 99.8563 40.1114 100.055 40.2935C100.287 40.5055 102.344 39.9876 102.808 39.8403C104.221 39.3911 107.684 37.1954 107.684 37.1954Z" fill="#00A6BA"/>
<path d="M126.931 39.7783C126.472 39.6433 125.989 39.9069 125.854 40.3657C125.719 40.8247 125.983 41.3079 126.442 41.4429C126.9 41.5779 127.384 41.3143 127.519 40.8554C127.654 40.3964 127.39 39.9132 126.931 39.7783ZM126.38 41.6511C125.807 41.4824 125.477 40.8783 125.646 40.3045C125.815 39.7307 126.419 39.4012 126.992 39.57C127.566 39.7388 127.896 40.3428 127.727 40.9166C127.558 41.4904 126.954 41.8199 126.38 41.6511Z" fill="#DCF5F9"/>
<path d="M126.838 40.0956C126.555 40.0124 126.258 40.1747 126.174 40.4573C126.091 40.7399 126.254 41.0373 126.536 41.1205C126.819 41.2036 127.116 41.0413 127.199 40.7588C127.282 40.4762 127.12 40.1787 126.838 40.0956ZM126.475 41.3288C126.077 41.2119 125.849 40.7935 125.966 40.3961C126.083 39.9986 126.501 39.7704 126.899 39.8873C127.296 40.0042 127.525 40.4226 127.408 40.8201C127.291 41.2175 126.872 41.4457 126.475 41.3288Z" fill="#DCF5F9"/>
<path d="M127.191 39.8549C127.134 39.838 127.101 39.7777 127.118 39.7201L127.246 39.2834C127.263 39.2259 127.323 39.193 127.381 39.2099C127.438 39.2268 127.471 39.2872 127.454 39.3447L127.326 39.7814C127.309 39.839 127.249 39.8718 127.191 39.8549Z" fill="#DCF5F9"/>
<path d="M126.674 39.6987C126.616 39.6817 126.583 39.6214 126.6 39.5639L126.729 39.1272C126.745 39.0696 126.806 39.0368 126.863 39.0537C126.921 39.0706 126.954 39.1309 126.937 39.1884L126.808 39.6252C126.792 39.6827 126.731 39.7156 126.674 39.6987Z" fill="#DCF5F9"/>
<path d="M127.553 39.4838L126.57 39.1948C126.513 39.1779 126.48 39.1176 126.497 39.0601C126.514 39.0025 126.574 38.9697 126.631 38.9866L127.614 39.2756C127.671 39.2925 127.704 39.3528 127.687 39.4103C127.671 39.4678 127.61 39.5008 127.553 39.4838Z" fill="#DCF5F9"/>
<path d="M127.83 40.3041C127.802 40.2959 127.777 40.2763 127.763 40.2479L127.663 40.0451C127.637 39.9913 127.659 39.9262 127.713 39.8998C127.767 39.8734 127.832 39.8955 127.858 39.9493L127.958 40.1521C127.984 40.2059 127.962 40.271 127.909 40.2975C127.883 40.3099 127.855 40.3116 127.83 40.3041Z" fill="#DCF5F9"/>
<path d="M126.656 40.7143C126.627 40.7057 126.601 40.6849 126.588 40.6549C126.563 40.6003 126.587 40.536 126.642 40.5112L126.966 40.3646C127.021 40.34 127.085 40.3643 127.11 40.4188C127.135 40.4735 127.11 40.5378 127.056 40.5625L126.731 40.7091C126.707 40.7202 126.68 40.7214 126.656 40.7143Z" fill="#DCF5F9"/>
<path d="M127.954 14.4782H128.137C128.151 14.3863 128.187 14.2561 128.28 14.1575L128.285 14.1532C128.319 14.1188 128.429 13.9944 128.411 13.8351C128.386 13.6271 128.233 13.4874 128.03 13.4874C127.825 13.4874 127.659 13.6508 127.659 13.8515C127.659 13.9581 127.702 14.063 127.772 14.1252C127.886 14.2275 127.934 14.3778 127.954 14.4782ZM128.237 14.6953H127.859C127.801 14.6953 127.753 14.65 127.751 14.5922C127.747 14.5353 127.719 14.3689 127.627 14.2873C127.511 14.1836 127.441 14.0207 127.441 13.8515C127.441 13.5311 127.705 13.2704 128.03 13.2704C128.344 13.2704 128.589 13.4922 128.626 13.8098C128.656 14.0654 128.491 14.254 128.439 14.3062C128.36 14.3883 128.345 14.5353 128.346 14.585C128.346 14.614 128.335 14.6422 128.314 14.6628C128.294 14.6834 128.266 14.6953 128.237 14.6953Z" fill="#DCF5F9"/>
<path d="M128.121 14.9727H127.978C127.918 14.9727 127.869 14.924 127.869 14.8641C127.869 14.8041 127.918 14.7555 127.978 14.7555H128.121C128.181 14.7555 128.23 14.8041 128.23 14.8641C128.23 14.924 128.181 14.9727 128.121 14.9727Z" fill="#DCF5F9"/>
<path d="M128.052 14.3555C127.992 14.3555 127.943 14.3069 127.943 14.2469V14.0389C127.943 13.979 127.992 13.9303 128.052 13.9303C128.112 13.9303 128.16 13.979 128.16 14.0389V14.2469C128.16 14.3069 128.112 14.3555 128.052 14.3555Z" fill="#DCF5F9"/>
<path d="M128.044 13.6814C128.018 13.6814 127.997 13.7031 127.997 13.7298C127.997 13.7566 128.018 13.7783 128.044 13.7783C128.071 13.7783 128.092 13.7566 128.092 13.7298C128.092 13.7031 128.071 13.6814 128.044 13.6814ZM128.044 13.8984C127.951 13.8984 127.875 13.8228 127.875 13.7298C127.875 13.6369 127.951 13.5612 128.044 13.5612C128.138 13.5612 128.214 13.6369 128.214 13.7298C128.214 13.8228 128.138 13.8984 128.044 13.8984Z" fill="#DCF5F9"/>
<path d="M127.532 13.3594C127.504 13.3594 127.477 13.349 127.456 13.3281L127.306 13.1802C127.263 13.1381 127.263 13.0694 127.305 13.0267C127.347 12.9841 127.416 12.9835 127.458 13.0256L127.608 13.1735C127.651 13.2156 127.651 13.2843 127.609 13.327C127.588 13.3485 127.56 13.3594 127.532 13.3594Z" fill="#DCF5F9"/>
<path d="M128.566 13.4023C128.538 13.4023 128.51 13.3916 128.488 13.37C128.446 13.3273 128.447 13.2586 128.489 13.2165L128.639 13.0687C128.682 13.0265 128.751 13.027 128.793 13.0697C128.835 13.1124 128.835 13.1811 128.792 13.2232L128.642 13.3711C128.621 13.3919 128.593 13.4023 128.566 13.4023Z" fill="#DCF5F9"/>
<path d="M128.814 13.7578C128.759 13.7578 128.711 13.7162 128.706 13.6603C128.7 13.6007 128.743 13.5474 128.803 13.5413L129.012 13.5199C129.072 13.5141 129.125 13.5572 129.131 13.6169C129.137 13.6765 129.094 13.7298 129.034 13.7359L128.825 13.7573L128.814 13.7578Z" fill="#DCF5F9"/>
<path d="M127.273 13.7578L127.262 13.7573L127.053 13.7359C126.993 13.7298 126.95 13.6765 126.956 13.6169C126.962 13.5572 127.015 13.5141 127.075 13.5199L127.284 13.5413C127.344 13.5474 127.387 13.6007 127.381 13.6603C127.375 13.7162 127.328 13.7578 127.273 13.7578Z" fill="#DCF5F9"/>
<path d="M128.052 13.1836C127.992 13.1836 127.943 13.135 127.943 13.075V12.857C127.943 12.7972 127.992 12.7485 128.052 12.7485C128.112 12.7485 128.16 12.7972 128.16 12.857V13.075C128.16 13.135 128.112 13.1836 128.052 13.1836Z" fill="#DCF5F9"/>
<path d="M87.0812 10.1523H85.8375C85.6288 10.1523 85.459 9.98259 85.459 9.7739V8.37706C85.459 8.31401 85.5101 8.26284 85.5733 8.26284H86.9283C86.9914 8.26284 87.0425 8.31401 87.0425 8.37706V9.55733C87.0425 9.62037 86.9914 9.67155 86.9283 9.67155C86.8652 9.67155 86.814 9.62037 86.814 9.55733V8.49134H85.6875V9.7739C85.6875 9.85656 85.7548 9.92385 85.8375 9.92385H87.0812C87.1443 9.92385 87.1955 9.97502 87.1955 10.0381C87.1955 10.1012 87.1443 10.1523 87.0812 10.1523Z" fill="#DCF5F9"/>
<path d="M86.094 9.92385H87.1013C87.1841 9.92385 87.2513 9.85656 87.2513 9.7739V9.67155H86.1247V9.7739C86.1247 9.82695 86.1139 9.8777 86.094 9.92385ZM87.1013 10.1523H85.8377C85.8166 10.1523 85.7952 10.1505 85.7724 10.1465C85.7176 10.137 85.6777 10.0895 85.6777 10.0339C85.6777 9.97841 85.7176 9.93087 85.7723 9.92137C85.8442 9.90877 85.8963 9.84675 85.8963 9.7739V9.55733C85.8963 9.49423 85.9474 9.44305 86.0105 9.44305H87.3656C87.4287 9.44305 87.4798 9.49423 87.4798 9.55733V9.7739C87.4798 9.98259 87.31 10.1523 87.1013 10.1523Z" fill="#DCF5F9"/>
<path d="M86.591 8.88672H85.9014C85.8383 8.88672 85.7871 8.83554 85.7871 8.77244C85.7871 8.7094 85.8383 8.65822 85.9014 8.65822H86.591C86.6541 8.65822 86.7052 8.7094 86.7052 8.77244C86.7052 8.83554 86.6541 8.88672 86.591 8.88672Z" fill="#DCF5F9"/>
<path d="M86.591 9.27734H85.9014C85.8383 9.27734 85.7871 9.22623 85.7871 9.16312C85.7871 9.10002 85.8383 9.04884 85.9014 9.04884H86.591C86.6541 9.04884 86.7052 9.10002 86.7052 9.16312C86.7052 9.22623 86.6541 9.27734 86.591 9.27734Z" fill="#DCF5F9"/>
<path d="M85.2119 9.87109C85.1488 9.87109 85.0977 9.81998 85.0977 9.75688V8.03028C85.0977 7.96717 85.1488 7.916 85.2119 7.916H86.9293C86.9924 7.916 87.0436 7.96717 87.0436 8.03028C87.0436 8.09338 86.9924 8.14456 86.9293 8.14456H85.3262V9.75688C85.3262 9.81998 85.275 9.87109 85.2119 9.87109Z" fill="#DCF5F9"/>
<path d="M87.7372 26.9995C87.7217 26.9995 87.709 27.0112 87.709 27.0256V28.8001C87.709 28.8144 87.7217 28.8261 87.7372 28.8261H88.7558C88.7713 28.8261 88.7839 28.8144 88.7839 28.8001V27.0256C88.7839 27.0112 88.7713 26.9995 88.7558 26.9995H87.7372ZM88.7558 29.0547H87.7372C87.5957 29.0547 87.4805 28.9405 87.4805 28.8001V27.0256C87.4805 26.8852 87.5957 26.771 87.7372 26.771H88.7558C88.8974 26.771 89.0124 26.8852 89.0124 27.0256V28.8001C89.0124 28.9405 88.8974 29.0547 88.7558 29.0547Z" fill="#DCF5F9"/>
<path d="M87.709 28.4942H88.7839V27.3282H87.709V28.4942ZM88.8982 28.7227H87.5947C87.5316 28.7227 87.4805 28.6715 87.4805 28.6084V27.214C87.4805 27.1509 87.5316 27.0997 87.5947 27.0997H88.8982C88.9613 27.0997 89.0124 27.1509 89.0124 27.214V28.6084C89.0124 28.6715 88.9613 28.7227 88.8982 28.7227Z" fill="#DCF5F9"/>
<path d="M88.1844 28.293C88.1306 28.293 88.0671 28.2781 87.9957 28.2379C87.9408 28.2069 87.9213 28.1373 87.9522 28.0823C87.9832 28.0273 88.0529 28.0078 88.1078 28.0388C88.1443 28.0593 88.1842 28.0693 88.1888 28.0703C88.2558 27.9814 88.3254 27.8552 88.3255 27.8031C88.3223 27.7914 88.2893 27.7596 88.2672 27.7462C88.2133 27.7135 88.1961 27.6432 88.2288 27.5892C88.2615 27.5353 88.3317 27.518 88.3857 27.5508C88.4138 27.5679 88.5541 27.6602 88.5541 27.8033C88.5539 27.963 88.3962 28.1757 88.3646 28.2167L88.3589 28.2235C88.3293 28.2564 88.2688 28.293 88.1844 28.293Z" fill="#DCF5F9"/>
<path d="M91.5865 17.0425C91.5348 17.0425 91.4839 17.0569 91.4389 17.0849C91.3753 17.1245 91.3309 17.1865 91.3139 17.2595C91.2789 17.41 91.373 17.5611 91.5235 17.5961C91.6743 17.6311 91.8252 17.5371 91.8603 17.3866C91.8953 17.236 91.8013 17.0849 91.6506 17.0499C91.6293 17.045 91.6079 17.0425 91.5865 17.0425ZM91.5871 17.832C91.549 17.832 91.5104 17.8277 91.4718 17.8188C91.1984 17.7551 91.0278 17.481 91.0914 17.2077C91.1222 17.0753 91.2027 16.9628 91.3182 16.8909C91.4336 16.8191 91.57 16.7964 91.7024 16.8273C91.9758 16.891 92.1464 17.1651 92.0828 17.4384C92.0281 17.6731 91.8183 17.832 91.5871 17.832Z" fill="#DCF5F9"/>
<path d="M130.574 27.6211L130.537 27.3955L130.873 27.3411L130.91 27.5667L130.574 27.6211Z" fill="#DCF5F9"/>
<path d="M130.911 27.2539L130.857 26.924L131.083 26.8876L131.136 27.2174L130.911 27.2539Z" fill="#DCF5F9"/>
<path d="M131.279 27.5039L131.242 27.2783L131.56 27.2268L131.597 27.4524L131.279 27.5039Z" fill="#DCF5F9"/>
<path d="M131.027 27.9766L130.971 27.6279L131.196 27.5914L131.253 27.9401L131.027 27.9766Z" fill="#DCF5F9"/>
<path d="M117.28 7.58925L117.77 7.65938L117.837 7.19251L117.347 7.12238L117.28 7.58925ZM117.964 7.91797L117.021 7.78304L117.153 6.86384L118.095 6.99871L117.964 7.91797Z" fill="#DCF5F9"/>
<path d="M85.4012 40.804L85.8912 40.8742L85.9579 40.4073L85.468 40.3372L85.4012 40.804ZM86.085 41.1328L85.1426 40.9978L85.2741 40.0786L86.2166 40.2135L86.085 41.1328Z" fill="#DCF5F9"/>
<path d="M160.644 22.0538C160.618 22.0538 160.59 22.0525 160.564 22.0497C160.187 22.0057 159.916 21.6643 159.96 21.2872C161.365 9.15159 171.651 0 183.886 0H185.262C197.479 0 207.763 9.13783 209.184 21.2542C209.228 21.6313 208.958 21.9726 208.581 22.018C208.215 22.0662 207.862 21.7923 207.817 21.4152C206.478 9.99119 196.781 1.37639 185.262 1.37639H183.886C172.35 1.37639 162.652 10.0049 161.327 21.4455C161.287 21.7965 160.989 22.0538 160.644 22.0538Z" fill="#0277BD"/>
<path d="M181.819 6.19305H187.325C196.288 6.19305 204.064 11.2375 207.995 18.637C205.536 8.34571 196.303 0.6875 185.26 0.6875H183.884C172.841 0.6875 163.608 8.34571 161.148 18.637C165.079 11.2375 172.856 6.19305 181.819 6.19305Z" fill="#B3E5FC"/>
<path d="M207.997 19.3258C207.75 19.3258 207.511 19.191 207.39 18.9597C203.432 11.5107 195.745 6.88193 187.327 6.88193H181.821C173.403 6.88193 165.716 11.5107 161.759 18.9597C161.595 19.2653 161.232 19.4029 160.908 19.2804C160.585 19.1579 160.402 18.8138 160.482 18.4766C163.082 7.59903 172.705 0 183.886 0H185.262C196.443 0 206.066 7.59903 208.666 18.478C208.747 18.8152 208.564 19.1593 208.24 19.2818C208.16 19.3121 208.079 19.3258 207.997 19.3258ZM181.821 5.50555H187.327C194.392 5.50555 200.972 8.57902 205.49 13.7776C201.695 6.2777 193.98 1.37639 185.262 1.37639H183.886C175.168 1.37639 167.453 6.2777 163.658 13.7776C168.176 8.57902 174.756 5.50555 181.821 5.50555Z" fill="#0277BD"/>
<path d="M170.091 7.58938C169.89 7.58938 169.689 7.5013 169.554 7.332C169.316 7.03608 169.363 6.60252 169.659 6.3644C173.661 3.14779 178.714 1.375 183.884 1.375H185.26C188.493 1.375 191.615 2.03704 194.541 3.34323C194.888 3.49876 195.044 3.9048 194.888 4.25302C194.734 4.5985 194.328 4.75816 193.978 4.59987C191.232 3.37351 188.299 2.75139 185.26 2.75139H183.884C179.027 2.75139 174.281 4.41544 170.522 7.4366C170.395 7.53983 170.243 7.58938 170.091 7.58938Z" fill="white"/>
<path d="M160.486 41.9815H161.862V25.4648H160.486C157.446 25.4648 154.98 27.93 154.98 30.9704V36.4759C154.98 39.5164 157.446 41.9815 160.486 41.9815Z" fill="#FF80AB"/>
<path d="M159.193 42.5158C159.139 42.5158 159.086 42.5103 159.031 42.4965C156.242 41.8249 154.293 39.3474 154.293 36.4749V30.9693C154.293 28.167 156.181 25.706 158.886 24.9848C159.251 24.8857 159.631 25.1045 159.728 25.472C159.826 25.8395 159.609 26.2167 159.241 26.3144C157.138 26.8759 155.669 28.7905 155.669 30.9693V36.4749C155.669 38.7101 157.185 40.6357 159.353 41.1573C159.723 41.2468 159.95 41.6184 159.86 41.9887C159.785 42.3039 159.503 42.5158 159.193 42.5158Z" fill="#0277BD"/>
<path d="M156.358 37.161C155.978 37.161 155.67 36.8527 155.67 36.4728V30.9673C155.67 28.8862 156.998 27.0473 158.975 26.3935C159.337 26.2766 159.725 26.4692 159.845 26.8299C159.964 27.1905 159.769 27.58 159.408 27.6997C157.995 28.1677 157.046 29.4808 157.046 30.9673V36.4728C157.046 36.8527 156.738 37.161 156.358 37.161Z" fill="#FCE4EC"/>
<path d="M165.304 44.7331H163.928C162.787 44.7331 161.863 43.8082 161.863 42.6685V24.7755C161.863 23.6359 162.787 22.7109 163.928 22.7109H165.304C166.445 22.7109 167.369 23.6359 167.369 24.7755V42.6685C167.369 43.8082 166.445 44.7331 165.304 44.7331Z" fill="#64FFDA"/>
<path d="M165.305 45.422H163.929C162.41 45.422 161.176 44.1874 161.176 42.6692V24.7762C161.176 23.2581 162.41 22.0234 163.929 22.0234H165.305C166.823 22.0234 168.058 23.2581 168.058 24.7762V42.6692C168.058 44.1874 166.823 45.422 165.305 45.422ZM163.929 23.3998C163.17 23.3998 162.552 24.0178 162.552 24.7762V42.6692C162.552 43.4276 163.17 44.0456 163.929 44.0456H165.305C166.063 44.0456 166.681 43.4276 166.681 42.6692V24.7762C166.681 24.0178 166.063 23.3998 165.305 23.3998H163.929Z" fill="#0277BD"/>
<path d="M163.239 41.9797C162.859 41.9797 162.551 41.6713 162.551 41.2915V24.7748C162.551 24.0164 163.169 23.3984 163.927 23.3984H164.615C164.995 23.3984 165.304 23.7067 165.304 24.0866C165.304 24.4665 164.995 24.7748 164.615 24.7748H163.927V41.2915C163.927 41.6713 163.619 41.9797 163.239 41.9797Z" fill="white"/>
<path d="M189.389 58.496H179.755C179.375 58.496 179.066 58.1877 179.066 57.8078C179.066 57.4279 179.375 57.1196 179.755 57.1196H189.389C196.509 57.1196 203.095 52.9657 206.166 46.5366C206.33 46.1939 206.743 46.048 207.084 46.2118C207.428 46.3755 207.573 46.7857 207.409 47.1298C204.11 54.0338 197.038 58.496 189.389 58.496Z" fill="#0277BD"/>
<path d="M189.391 59.8753H181.132C180.372 59.8753 179.756 59.26 179.756 58.4989V57.1225C179.756 56.3613 180.372 55.7461 181.132 55.7461H189.391C190.15 55.7461 190.767 56.3613 190.767 57.1225V58.4989C190.767 59.26 190.15 59.8753 189.391 59.8753Z" fill="#B3E5FC"/>
<path d="M189.389 60.5602H181.131C179.993 60.5602 179.066 59.6339 179.066 58.4957V57.1193C179.066 55.981 179.993 55.0547 181.131 55.0547H189.389C190.528 55.0547 191.454 55.981 191.454 57.1193V58.4957C191.454 59.6339 190.528 60.5602 189.389 60.5602ZM181.131 56.4311C180.751 56.4311 180.443 56.7394 180.443 57.1193V58.4957C180.443 58.8755 180.751 59.1838 181.131 59.1838H189.389C189.769 59.1838 190.078 58.8755 190.078 58.4957V57.1193C190.078 56.7394 189.769 56.4311 189.389 56.4311H181.131Z" fill="#0277BD"/>
<path d="M181.132 58.4943C180.752 58.4943 180.443 58.186 180.443 57.8061V56.4297H188.014C188.393 56.4297 188.702 56.738 188.702 57.1179C188.702 57.4978 188.393 57.8061 188.014 57.8061H181.82C181.82 58.186 181.511 58.4943 181.132 58.4943Z" fill="white"/>
<path d="M208.66 41.9815H207.283V25.4648H208.66C211.7 25.4648 214.165 27.93 214.165 30.9704V36.4759C214.165 39.5164 211.7 41.9815 208.66 41.9815Z" fill="#FF80AB"/>
<path d="M209.964 42.511C209.655 42.511 209.373 42.3004 209.297 41.9852C209.207 41.615 209.434 41.2433 209.803 41.1539C211.966 40.6281 213.477 38.7025 213.477 36.4728V30.9672C213.477 28.7925 212.012 26.8794 209.915 26.315C209.547 26.2159 209.33 25.8388 209.429 25.4713C209.527 25.1024 209.908 24.885 210.273 24.9855C212.969 25.7122 214.853 28.1718 214.853 30.9672V36.4728C214.853 39.3398 212.91 41.8145 210.128 42.4917C210.073 42.5041 210.018 42.511 209.964 42.511Z" fill="#0277BD"/>
<path d="M208.661 40.6037C208.281 40.6037 207.973 40.2954 207.973 39.9155V27.528C207.973 27.1482 208.281 26.8398 208.661 26.8398C209.041 26.8398 209.349 27.1482 209.349 27.528V39.9155C209.349 40.2954 209.041 40.6037 208.661 40.6037Z" fill="#FCE4EC"/>
<path d="M205.218 44.7331H203.842C202.701 44.7331 201.777 43.8082 201.777 42.6685V24.7755C201.777 23.6359 202.701 22.7109 203.842 22.7109H205.218C206.359 22.7109 207.283 23.6359 207.283 24.7755V42.6685C207.283 43.8082 206.359 44.7331 205.218 44.7331Z" fill="#64FFDA"/>
<path d="M205.219 45.422H203.843C202.324 45.422 201.09 44.1874 201.09 42.6692V24.7762C201.09 23.2581 202.324 22.0234 203.843 22.0234H205.219C206.737 22.0234 207.972 23.2581 207.972 24.7762V42.6692C207.972 44.1874 206.737 45.422 205.219 45.422ZM203.843 23.3998C203.084 23.3998 202.466 24.0178 202.466 24.7762V42.6692C202.466 43.4276 203.084 44.0456 203.843 44.0456H205.219C205.977 44.0456 206.595 43.4276 206.595 42.6692V24.7762C206.595 24.0178 205.977 23.3998 205.219 23.3998H203.843Z" fill="#0277BD"/>
<path d="M203.155 41.9797C202.775 41.9797 202.467 41.6713 202.467 41.2915V24.7748C202.467 24.0164 203.085 23.3984 203.843 23.3984H204.531C204.911 23.3984 205.22 23.7067 205.22 24.0866C205.22 24.4665 204.911 24.7748 204.531 24.7748H203.843V41.2915C203.843 41.6713 203.535 41.9797 203.155 41.9797Z" fill="white"/>
<g clip-path="url(#clip0_136_692)">
<path d="M262.763 0H283.646V18.7946H256.498V6.26492L262.763 0Z" fill="#F8F2EA"/>
<path d="M262.763 0V6.26492H256.498L262.763 0Z" fill="#D6CABA"/>
<path d="M274.247 6.26799H269.027C268.45 6.26799 267.982 5.80127 267.982 5.22384C267.982 4.64642 268.45 4.17969 269.027 4.17969H274.247C274.824 4.17969 275.291 4.64642 275.291 5.22384C275.291 5.80127 274.824 6.26799 274.247 6.26799Z" fill="#D6CABA"/>
<path d="M264.85 15.6625H261.718C261.142 15.6625 260.674 15.1958 260.674 14.6184C260.674 14.0409 261.142 13.5742 261.718 13.5742H264.85C265.427 13.5742 265.895 14.0409 265.895 14.6184C265.895 15.1958 265.427 15.6625 264.85 15.6625Z" fill="#D6CABA"/>
<path d="M278.424 15.6625H269.027C268.45 15.6625 267.982 15.1958 267.982 14.6184C267.982 14.0409 268.45 13.5742 269.027 13.5742H278.424C279 13.5742 279.468 14.0409 279.468 14.6184C279.468 15.1958 279 15.6625 278.424 15.6625Z" fill="#D6CABA"/>
<path d="M278.425 11.4867H275.292C274.716 11.4867 274.248 11.02 274.248 10.4426C274.248 9.86517 274.716 9.39844 275.292 9.39844H278.425C279.001 9.39844 279.469 9.86517 279.469 10.4426C279.469 11.02 279.001 11.4867 278.425 11.4867Z" fill="#D6CABA"/>
<path d="M271.115 11.4867H261.718C261.142 11.4867 260.674 11.02 260.674 10.4426C260.674 9.86517 261.142 9.39844 261.718 9.39844H271.115C271.692 9.39844 272.16 9.86517 272.16 10.4426C272.16 11.02 271.692 11.4867 271.115 11.4867Z" fill="#D6CABA"/>
<path d="M247.102 56.3848H240.837C238.53 56.3848 236.66 54.5148 236.66 52.2082V10.4422C236.66 8.13567 238.53 6.26562 240.837 6.26562H247.102C249.408 6.26562 251.278 8.13567 251.278 10.4422V52.2082C251.278 54.5147 249.408 56.3848 247.102 56.3848Z" fill="#CAD3DB"/>
<path d="M284.931 18.793H251.278V52.2057C251.278 54.5123 249.408 56.3823 247.102 56.3823H240.837C238.53 56.3823 236.66 54.5123 236.66 52.2057V18.793C233.654 19.6053 231.439 22.839 231.439 26.102V53.4943C231.439 57.3963 234.602 60.559 238.504 60.559H284.935C288.837 60.559 292 57.3962 292 53.4943V25.8619C292 21.9578 288.835 18.793 284.931 18.793Z" fill="#E6EEF3"/>
<path d="M257.543 29.2375H282.603V22.9727H257.543V29.2375Z" fill="#76A944"/>
<path d="M259.631 37.5868H263.807V33.4102H259.631V37.5868Z" fill="#CAD3DB"/>
<path d="M267.984 37.5868H272.161V33.4102H267.984V37.5868Z" fill="#CAD3DB"/>
<path d="M276.338 37.5868H280.515V33.4102H276.338V37.5868Z" fill="#CAD3DB"/>
<path d="M259.631 45.9422H263.807V41.7656H259.631V45.9422Z" fill="#CAD3DB"/>
<path d="M267.984 45.9422H272.161V41.7656H267.984V45.9422Z" fill="#CAD3DB"/>
<path d="M276.338 45.9422H280.515V41.7656H276.338V45.9422Z" fill="#CAD3DB"/>
<path d="M259.631 54.2938H263.807V50.1172H259.631V54.2938Z" fill="#CAD3DB"/>
<path d="M267.984 54.2938H272.161V50.1172H267.984V54.2938Z" fill="#CAD3DB"/>
<path d="M276.338 54.2938H280.515V50.1172H276.338V54.2938Z" fill="#CAD3DB"/>
</g>
<defs>
<clipPath id="clip0_136_692">
<rect width="60.5611" height="60.5611" fill="white" transform="translate(231.439)"/>
</clipPath>
</defs>
</svg>
