<svg width="113" height="113" viewBox="0 0 113 113" fill="none" xmlns="http://www.w3.org/2000/svg">
<path d="M23.7997 34.8286C23.1376 29.8142 22.0165 20.9773 22.758 16.113C23.4996 11.2487 25.4418 6.76398 29.4939 4.98953C32.9986 3.46226 37.3686 5.07781 39.8934 8.85625C41.3324 11.0103 42.1534 13.6676 42.8508 16.2984C44.0426 20.8184 45.1815 26.998 45.7553 31.6505" stroke="#00796B" stroke-width="0.375" stroke-miterlimit="10"/>
<path d="M27.111 102.971L5.77344 94.0813L10.726 72.2405L9.66664 22.4675L63.6595 16.1289V20.8431L76.5044 22.4675L27.111 102.971Z" fill="#26A69A"/>
<path d="M81.0863 94.8506L27.1023 103.025L22.5117 74.4399V30.6348L76.5045 22.4688V66.2651L81.0863 94.8506Z" fill="#61DE9F"/>
<path d="M22.5109 30.634V25.7079L9.66602 22.468L63.7648 16.4648L65.4951 20.2963L76.5038 22.468L22.5109 30.634Z" fill="#263238"/>
<path d="M5.77344 94.0805C6.14422 94.0805 18.5566 84.2372 18.5566 84.2372L27.1022 103.023L25.2659 73.0696L22.4851 30.6328L18.8744 76.4949L5.77344 94.0805Z" fill="#00796B"/>
<path d="M63.6068 17.0277L64.9134 20.0469L65.0811 20.4441L65.496 20.5501L72.073 22.2363L23.3947 29.6077V25.0171L22.7237 24.8494L14.5312 22.7836L63.6068 17.0277ZM64.163 16.0742L9.67578 22.4658L22.5207 25.7057V30.6406L76.5047 22.4658L65.7255 19.6938L64.163 16.0742Z" fill="#26A69A"/>
<path d="M38.7994 33.9423C38.1373 28.9368 31.2426 9.70912 44.4406 7.25491C54.4164 5.401 58.8216 26.6503 59.4043 31.3115" stroke="#61DE9F" stroke-width="0.375" stroke-miterlimit="10"/>
<path d="M40.4407 35.3393C39.6727 32.7527 38.8693 27.5264 38.834 27.2969L41.4471 26.8996C41.4559 26.9526 42.3917 32.2848 43.4158 34.7831L40.4407 35.3393ZM61.0279 32.2053C60.2598 29.6187 59.4565 24.3924 59.4212 24.1629L62.0343 23.7656C62.0431 23.8186 63.129 29.2391 64.0383 31.658L61.0279 32.2053ZM41.35 100.87L48.7656 88.0256L45.2255 53.7813L74.8616 48.0165L58.9709 98.2397L41.35 100.87Z" fill="#26A69A"/>
<path d="M64.5068 50.3654C64.5068 50.3654 61.1698 32.6474 72.2844 33.8215C78.3317 34.4571 78.0845 48.5203 78.0845 48.5203" stroke="#D7578A" stroke-width="0.375" stroke-miterlimit="10"/>
<path d="M65.7337 109.461L49.3398 102.601L53.1536 85.81L52.3414 47.5489L93.8336 42.6758V46.3041L103.703 47.5489L65.7337 109.461Z" fill="#D7578A"/>
<path d="M107.226 103.182L65.7334 109.467L62.2109 87.4941V53.8325L103.703 47.5469V81.2173L107.226 103.182Z" fill="#FF9F9F"/>
<path d="M62.2116 53.8345L58.8923 51.292L52.3418 47.5489L93.834 42.6758L97.6036 45.0505L103.704 47.5489L62.2116 53.8345Z" fill="#263238"/>
<path d="M93.6751 43.5851L100.782 47.0898L62.397 52.8987L54.902 48.1316L93.6751 43.5851ZM93.834 42.6758L52.3418 47.5489L62.2116 53.8345L103.704 47.5489L93.834 42.6758Z" fill="#D7578A"/>
<path d="M76.2388 57.2131C75.6473 55.2356 75.0382 51.2188 75.0117 51.0511L77.3423 50.7509C77.3512 50.7951 77.9427 54.8384 78.49 56.7011L76.2388 57.2131ZM92.0323 54.7854C91.4409 52.8079 90.8317 48.7911 90.8052 48.6234L93.1094 48.332C93.1182 48.3762 93.5949 52.543 94.1423 54.4058L92.0323 54.7854Z" fill="#D7578A"/>
<path d="M74.9327 57.3033C74.4207 53.4542 69.1768 37.2281 79.0643 35.8597C86.7889 34.7915 90.1171 50.7704 90.5673 54.3458" stroke="#FF9F9F" stroke-width="0.375" stroke-miterlimit="10"/>
<path d="M49.3398 102.602L57.7177 95.5041L65.7337 109.47L62.2289 87.6294L62.2642 53.9412L61.2755 53.5352L58.1503 87.7795L49.3398 102.602Z" fill="#AB2C5E"/>
</svg>
