<svg width="107" height="107" viewBox="0 0 107 107" fill="none" xmlns="http://www.w3.org/2000/svg">
<g clip-path="url(#clip0_136_123)">
<path d="M53.5 107C83.0472 107 107 83.0472 107 53.5C107 23.9528 83.0472 0 53.5 0C23.9528 0 0 23.9528 0 53.5C0 83.0472 23.9528 107 53.5 107Z" fill="#84DBFF"/>
<path d="M88.4645 80.5466H18.5354C17.1031 80.5466 16.0078 79.4513 16.0078 78.019V35.8088C16.0078 34.3765 17.1031 33.2812 18.5354 33.2812H88.3803C89.8125 33.2812 90.9078 34.3765 90.9078 35.8088V78.019C90.9921 79.3671 89.8125 80.5466 88.4645 80.5466Z" fill="#324A5E"/>
<path d="M87.9591 36.2303V77.598H19.041V36.2303L25.1914 26.457V36.2303H81.8087V26.457L87.9591 36.2303Z" fill="#CED5E0"/>
<path d="M81.8087 26.457V70.4366H57.8812C55.6064 70.4366 53.6686 72.2901 53.5001 74.5649C53.3316 72.2901 51.478 70.4366 49.119 70.4366H25.1914V26.457H49.119C51.5623 26.457 53.5001 28.3948 53.5001 30.8381C53.5001 28.3948 55.4379 26.457 57.8812 26.457H81.8087Z" fill="#E6E9EE"/>
<path d="M53.5001 30.6696C53.5001 30.7539 53.5001 30.7539 53.5001 30.8381C53.5001 28.3948 51.5623 26.457 49.119 26.457H25.1914V70.4366H49.119C51.3938 70.4366 53.3316 72.2901 53.5001 74.5649V30.6696Z" fill="white"/>
<path d="M50.0451 32.6914H28.4766V38.589H50.0451V32.6914Z" fill="#FFD05B"/>
<path d="M50.0451 38.5898H28.4766V40.6119H50.0451V38.5898Z" fill="#FFD05B"/>
<path d="M50.0451 44.4023H28.4766V46.4244H50.0451V44.4023Z" fill="#E6E9EE"/>
<path d="M50.0451 50.3008H28.4766V52.3228H50.0451V50.3008Z" fill="#E6E9EE"/>
<path d="M50.0451 56.1992H28.4766V58.2213H50.0451V56.1992Z" fill="#E6E9EE"/>
<path d="M50.0451 62.0938H28.4766V64.1158H50.0451V62.0938Z" fill="#E6E9EE"/>
<path d="M78.5236 32.6914H56.9551V34.7135H78.5236V32.6914Z" fill="#ACB3BA"/>
<path d="M78.5236 38.5898H56.9551V40.6119H78.5236V38.5898Z" fill="#ACB3BA"/>
<path d="M78.5236 44.4023H56.9551V46.4244H78.5236V44.4023Z" fill="#ACB3BA"/>
<path d="M78.5236 50.3008H56.9551V52.3228H78.5236V50.3008Z" fill="#ACB3BA"/>
<path d="M78.5236 56.1992H56.9551V58.2213H78.5236V56.1992Z" fill="#ACB3BA"/>
<path d="M78.5236 62.0938H56.9551V64.1158H78.5236V62.0938Z" fill="#ACB3BA"/>
<path d="M53.8378 44.6533C53.7536 42.1257 53.7536 39.6824 53.7536 37.6603C53.6693 33.532 53.5851 30.8359 53.5851 30.8359C53.5851 30.8359 53.5008 33.532 53.4166 37.6603C53.4166 39.6824 53.3323 42.1257 53.3323 44.6533C53.3323 47.1808 53.3323 49.9611 53.248 52.6572C53.248 55.3533 53.248 58.1336 53.3323 60.6611C53.4165 63.1887 53.4166 65.632 53.4166 67.6541C53.4166 71.7824 53.5008 74.5627 53.5008 74.5627C53.5008 74.5627 53.5851 71.8667 53.6693 67.7383C53.6693 65.7163 53.7536 63.2729 53.7536 60.7454C53.7536 58.2178 53.7536 55.4375 53.8378 52.7415C53.8378 49.9611 53.8378 47.2651 53.8378 44.6533Z" fill="#CED5E0"/>
<path d="M25.1914 70.4366L19.041 77.598V36.2303L25.1914 26.457V70.4366Z" fill="#E6E9EE"/>
<path d="M81.8086 26.457L87.959 36.2303V77.598L81.8086 70.4366V26.457Z" fill="#ACB3BA"/>
<path d="M53.8361 75.4932C53.7519 75.3247 53.7519 75.1562 53.7519 74.9877C53.5834 74.7349 53.4991 74.5664 53.4991 74.5664C53.4991 74.5664 53.4149 74.7349 53.3306 75.0719C53.3306 75.2404 53.2464 75.4089 53.2464 75.5774C53.2464 75.7459 53.2464 75.9144 53.1621 76.1672C53.1621 76.3357 53.1621 76.5042 53.2464 76.757C53.3306 76.9255 53.3306 77.094 53.3306 77.2625C53.4149 77.5152 53.5834 77.768 53.5834 77.768C53.5834 77.768 53.6676 77.5995 53.7519 77.2625C53.7519 77.094 53.8361 76.9255 53.8361 76.757C53.8361 76.5885 53.8361 76.42 53.9204 76.1672C53.8361 75.9144 53.8361 75.6617 53.8361 75.4932Z" fill="#ACB3BA"/>
</g>
<defs>
<clipPath id="clip0_136_123">
<rect width="107" height="107" fill="white"/>
</clipPath>
</defs>
</svg>
