<svg width="174" height="166" viewBox="0 0 174 166" fill="none" xmlns="http://www.w3.org/2000/svg">
<path d="M1 164.058C7.50733 163.941 23.4063 163.021 29.4755 160.803C32.5757 159.263 43.5493 150.462 58.1157 138.036C63.3027 133.557 64.0134 132.787 64.5471 131.215" stroke="#F5F5F5" stroke-width="2" stroke-linecap="round"/>
<path d="M48.5684 122.18C58.7274 122.366 78.9737 123.531 78.9233 125.778C78.3174 128.358 77.3471 131.036 76.0102 136.193C75.1875 140.08 74.0717 146.544 71.6764 152.494" stroke="#F5F5F5" stroke-width="2" stroke-linecap="round"/>
<g clip-path="url(#clip0_164_12)">
<path d="M119.9 107C149.448 107 173.4 83.0472 173.4 53.5C173.4 23.9528 149.448 0 119.9 0C90.3532 0 66.4004 23.9528 66.4004 53.5C66.4004 83.0472 90.3532 107 119.9 107Z" fill="#84DBFF"/>
<path d="M154.865 80.5466H84.9358C83.5035 80.5466 82.4082 79.4513 82.4082 78.019V35.8088C82.4082 34.3765 83.5035 33.2812 84.9358 33.2812H154.781C156.213 33.2812 157.308 34.3765 157.308 35.8088V78.019C157.392 79.3671 156.213 80.5466 154.865 80.5466Z" fill="#324A5E"/>
<path d="M154.36 36.2303V77.598H85.4414V36.2303L91.5918 26.457V36.2303H148.209V26.457L154.36 36.2303Z" fill="#CED5E0"/>
<path d="M148.209 26.457V70.4366H124.282C122.007 70.4366 120.069 72.2901 119.9 74.5649C119.732 72.2901 117.878 70.4366 115.519 70.4366H91.5918V26.457H115.519C117.963 26.457 119.9 28.3948 119.9 30.8381C119.9 28.3948 121.838 26.457 124.282 26.457H148.209Z" fill="#E6E9EE"/>
<path d="M119.9 30.6696C119.9 30.7539 119.9 30.7539 119.9 30.8381C119.9 28.3948 117.963 26.457 115.519 26.457H91.5918V70.4366H115.519C117.794 70.4366 119.732 72.2901 119.9 74.5649V30.6696Z" fill="white"/>
<path d="M116.445 32.6914H94.877V38.589H116.445V32.6914Z" fill="#FFD05B"/>
<path d="M116.445 38.5898H94.877V40.6119H116.445V38.5898Z" fill="#FFD05B"/>
<path d="M116.445 44.4023H94.877V46.4244H116.445V44.4023Z" fill="#E6E9EE"/>
<path d="M116.445 50.3008H94.877V52.3228H116.445V50.3008Z" fill="#E6E9EE"/>
<path d="M116.445 56.1992H94.877V58.2213H116.445V56.1992Z" fill="#E6E9EE"/>
<path d="M116.445 62.0938H94.877V64.1158H116.445V62.0938Z" fill="#E6E9EE"/>
<path d="M144.924 32.6914H123.355V34.7135H144.924V32.6914Z" fill="#ACB3BA"/>
<path d="M144.924 38.5898H123.355V40.6119H144.924V38.5898Z" fill="#ACB3BA"/>
<path d="M144.924 44.4023H123.355V46.4244H144.924V44.4023Z" fill="#ACB3BA"/>
<path d="M144.924 50.3008H123.355V52.3228H144.924V50.3008Z" fill="#ACB3BA"/>
<path d="M144.924 56.1992H123.355V58.2213H144.924V56.1992Z" fill="#ACB3BA"/>
<path d="M144.924 62.0938H123.355V64.1158H144.924V62.0938Z" fill="#ACB3BA"/>
<path d="M120.238 44.6533C120.154 42.1257 120.154 39.6824 120.154 37.6603C120.07 33.532 119.985 30.8359 119.985 30.8359C119.985 30.8359 119.901 33.532 119.817 37.6603C119.817 39.6824 119.733 42.1257 119.733 44.6533C119.733 47.1808 119.733 49.9611 119.648 52.6572C119.648 55.3533 119.648 58.1336 119.733 60.6611C119.817 63.1887 119.817 65.632 119.817 67.6541C119.817 71.7824 119.901 74.5627 119.901 74.5627C119.901 74.5627 119.985 71.8667 120.07 67.7383C120.07 65.7163 120.154 63.2729 120.154 60.7454C120.154 58.2178 120.154 55.4375 120.238 52.7415C120.238 49.9611 120.238 47.2651 120.238 44.6533Z" fill="#CED5E0"/>
<path d="M91.5918 70.4366L85.4414 77.598V36.2303L91.5918 26.457V70.4366Z" fill="#E6E9EE"/>
<path d="M148.209 26.457L154.359 36.2303V77.598L148.209 70.4366V26.457Z" fill="#ACB3BA"/>
<path d="M120.237 75.4932C120.152 75.3247 120.152 75.1562 120.152 74.9877C119.984 74.7349 119.9 74.5664 119.9 74.5664C119.9 74.5664 119.815 74.7349 119.731 75.0719C119.731 75.2404 119.647 75.4089 119.647 75.5774C119.647 75.7459 119.647 75.9144 119.562 76.1672C119.562 76.3357 119.563 76.5042 119.647 76.757C119.731 76.9255 119.731 77.094 119.731 77.2625C119.815 77.5152 119.984 77.768 119.984 77.768C119.984 77.768 120.068 77.5995 120.152 77.2625C120.152 77.094 120.237 76.9255 120.237 76.757C120.237 76.5885 120.237 76.42 120.321 76.1672C120.237 75.9144 120.237 75.6617 120.237 75.4932Z" fill="#ACB3BA"/>
</g>
<defs>
<clipPath id="clip0_164_12">
<rect width="107" height="107" fill="white" transform="translate(66.4004)"/>
</clipPath>
</defs>
</svg>
