<svg width="178" height="142" viewBox="0 0 178 142" fill="none" xmlns="http://www.w3.org/2000/svg">
<g clip-path="url(#clip0_158_695)">
<path d="M55.9608 39.3083C55.3808 39.3083 54.8188 38.9997 54.5215 38.4547C53.6601 36.8754 52.6836 35.0854 52.6836 31.6646C52.6836 28.2442 53.6599 26.4541 54.5215 24.8746C55.293 23.4598 55.9594 22.2383 55.9594 19.653C55.9594 17.068 55.293 15.8467 54.5215 14.4323C53.6601 12.8532 52.6836 11.063 52.6836 7.64305C52.6836 4.22306 53.6601 2.43327 54.5213 0.853969C54.9543 0.0597796 55.9495 -0.232962 56.7435 0.20043C57.5375 0.633427 57.8302 1.62843 57.397 2.42262C56.6255 3.83701 55.9594 5.05828 55.9594 7.64325C55.9594 10.2282 56.6257 11.4495 57.3972 12.8639C58.2587 14.443 59.2352 16.2332 59.2352 19.6531C59.2352 23.0735 58.2587 24.8637 57.3972 26.4432C56.6257 27.858 55.9594 29.0795 55.9594 31.6648C55.9594 34.2504 56.6257 35.4718 57.397 36.886C57.8302 37.6802 57.5377 38.675 56.7435 39.1082C56.4944 39.2438 56.2257 39.3083 55.9608 39.3083Z" fill="#FFE2C4"/>
<path d="M64.6951 39.3083C64.1152 39.3083 63.5532 38.9997 63.2559 38.4547C62.3944 36.8754 61.418 35.0854 61.418 31.6646C61.418 28.2442 62.3944 26.4541 63.2559 24.8746C64.0274 23.4598 64.6938 22.2383 64.6938 19.653C64.6938 17.068 64.0274 15.8467 63.2559 14.4323C62.3944 12.8532 61.418 11.063 61.418 7.64305C61.418 4.22306 62.3944 2.43327 63.2557 0.853969C63.6887 0.0597796 64.6837 -0.232962 65.4779 0.20043C66.2719 0.633427 66.5646 1.62843 66.1314 2.42262C65.3599 3.83701 64.6938 5.05828 64.6938 7.64325C64.6938 10.2282 65.3601 11.4495 66.1316 12.8639C66.9931 14.443 67.9695 16.2332 67.9695 19.6531C67.9695 23.0735 66.9931 24.8637 66.1316 26.4432C65.3601 27.858 64.6938 29.0795 64.6938 31.6648C64.6938 34.2504 65.3601 35.4718 66.1314 36.886C66.5646 37.6802 66.2721 38.675 65.4779 39.1082C65.2287 39.2438 64.9601 39.3083 64.6951 39.3083Z" fill="#FFE2C4"/>
<path d="M77.7966 44.2227L61.334 85.1797L73.1385 101.001H79.5435C79.5435 72.6117 86.5317 72.6117 86.5317 44.2227H77.7966Z" fill="#008CCB"/>
<path d="M40.6729 63.875V70.4264H30.348L27.4727 67.1506L29.0202 63.875H40.6729Z" fill="#008CCB"/>
<path d="M34.1213 44.2227L40.6727 50.7738H27.7011L25.4199 47.6245L27.5699 44.2227H34.1213Z" fill="#008CCB"/>
<path d="M27.5693 44.2227C27.5693 46.579 27.6151 48.754 27.7003 50.774H27.5693C23.9574 50.774 21.018 53.7135 21.018 57.3254C21.018 60.9373 23.9574 63.8768 27.5693 63.8768H29.0194C29.4191 66.2526 29.8732 68.3906 30.3472 70.4282H27.5695C20.3325 70.4282 14.4668 64.5625 14.4668 57.3254C14.4668 50.0883 20.3325 44.2227 27.5693 44.2227Z" fill="#3AAADC"/>
<path d="M34.1211 44.2227H77.7966C77.7966 72.6119 73.1386 72.6119 73.1386 101.001H41.1092C41.1092 72.6117 34.1211 72.6117 34.1211 44.2227Z" fill="#3AAADC"/>
<path d="M71.2453 58.9633C72.1499 58.9633 72.8832 58.23 72.8832 57.3254C72.8832 56.4208 72.1499 55.6875 71.2453 55.6875C70.3407 55.6875 69.6074 56.4208 69.6074 57.3254C69.6074 58.23 70.3407 58.9633 71.2453 58.9633Z" fill="#008CCB"/>
<path d="M64.6945 65.5141C65.5991 65.5141 66.3324 64.7808 66.3324 63.8762C66.3324 62.9716 65.5991 62.2383 64.6945 62.2383C63.79 62.2383 63.0566 62.9716 63.0566 63.8762C63.0566 64.7808 63.79 65.5141 64.6945 65.5141Z" fill="#008CCB"/>
</g>
<g clip-path="url(#clip1_158_695)">
<path d="M147.347 83.2402L146.117 81.2023C142.173 74.6628 135.278 70.7578 127.673 70.7578C115.79 70.7578 106.123 80.4247 106.123 92.3078C106.123 99.0885 109.392 105.556 114.869 109.608L115.704 110.225L116.737 110.339C117.416 110.413 118.063 110.548 118.658 110.741L125.036 112.79L123.595 106.248C123.252 104.69 123.632 103.099 124.638 101.877C125.617 100.689 127.062 100.007 128.605 100.007C129.133 100.007 129.654 100.088 130.115 100.235L133.567 101.386L134.911 98.0029C135.533 96.4373 136.877 95.2734 138.502 94.891C139.08 94.7562 139.7 94.7267 140.294 94.7999L144.785 95.3414L144.601 90.8204L144.574 90.3828C144.574 88.5722 145.091 86.7961 146.071 85.2511L147.347 83.2402Z" fill="#F0C419"/>
<path d="M177.969 98.9879H177.865C177.91 99.378 177.94 99.772 177.94 100.175C177.94 100.885 177.367 101.458 176.657 101.458C175.948 101.458 175.374 100.885 175.374 100.175C175.374 95.9286 171.921 92.4753 167.674 92.4753C163.428 92.4753 159.975 95.9286 159.975 100.175C159.975 100.885 159.401 101.458 158.691 101.458C157.982 101.458 157.408 100.885 157.408 100.175C157.408 94.9597 161.321 90.6492 166.363 90.0025C166.073 83.5361 160.737 78.3594 154.2 78.3594C147.641 78.3594 142.29 83.5694 142.033 90.0666C143.097 90.3182 144.128 90.7339 145.085 91.3255C147.415 92.7692 149.045 95.0342 149.674 97.7034C149.836 98.3938 149.408 99.0842 148.719 99.2471C148.029 99.4024 147.338 98.9815 147.175 98.2924C146.203 94.1577 142.044 91.586 137.918 92.56C133.784 93.5327 131.213 97.6854 132.186 101.819C132.347 102.508 131.92 103.198 131.229 103.361C131.132 103.384 131.033 103.395 130.936 103.395C130.354 103.395 129.827 102.996 129.687 102.405C129.31 100.8 129.343 99.1945 129.702 97.6905C127.061 97.3043 124.394 98.3014 122.653 100.414C121.039 102.376 120.568 104.903 121.146 107.196C121.147 107.211 121.155 107.224 121.156 107.239C121.548 108.761 122.401 110.178 123.703 111.252C124.25 111.704 124.328 112.511 123.879 113.059C123.625 113.367 123.258 113.526 122.887 113.526C122.599 113.526 122.312 113.431 122.072 113.234C120.51 111.948 119.393 110.268 118.805 108.381C113.617 107.029 108.161 109.212 105.343 113.851C103.653 116.633 103.146 119.908 103.919 123.071C104.691 126.236 106.648 128.909 109.432 130.6C110.038 130.968 110.23 131.756 109.862 132.363C109.621 132.761 109.197 132.979 108.765 132.979C108.594 132.979 108.425 132.933 108.262 132.862C110.289 134.064 112.623 134.799 115.119 134.907L125.654 134.91C132.464 134.801 138.298 130.599 140.785 124.655C143.304 130.677 149.258 134.921 156.184 134.921C168.213 134.921 178 125.135 178 113.105V100.272L177.969 98.9879Z" fill="#D0E8F9"/>
<path d="M168.931 90.0913C168.634 82.2133 162.15 75.8906 154.202 75.8906C146.32 75.8906 139.88 82.1068 139.482 89.8911C138.766 89.9065 138.046 89.9912 137.332 90.1593C134.334 90.8651 131.961 92.8311 130.621 95.3591C126.923 94.6084 123.117 95.9148 120.676 98.8778C119.071 100.828 118.265 103.251 118.353 105.755C112.412 104.685 106.368 107.326 103.154 112.613C101.106 115.981 100.494 119.945 101.428 123.775C102.363 127.604 104.733 130.84 108.101 132.888C108.309 133.015 108.54 133.076 108.767 133.076C109.201 133.076 109.623 132.856 109.865 132.46C110.233 131.853 110.04 131.065 109.435 130.696C106.651 129.005 104.694 126.332 103.922 123.168C103.149 120.004 103.656 116.729 105.346 113.947C108.164 109.31 113.619 107.127 118.808 108.478C119.395 110.366 120.514 112.044 122.075 113.33C122.315 113.526 122.602 113.623 122.89 113.623C123.261 113.623 123.628 113.463 123.882 113.155C124.332 112.608 124.253 111.799 123.706 111.349C122.402 110.276 121.551 108.858 121.159 107.336C121.157 107.32 121.15 107.308 121.148 107.292C120.571 104.999 121.042 102.472 122.656 100.51C124.396 98.3979 127.064 97.4008 129.705 97.787C129.346 99.2923 129.311 100.896 129.69 102.502C129.828 103.093 130.357 103.491 130.938 103.491C131.036 103.491 131.135 103.48 131.232 103.458C131.923 103.295 132.35 102.604 132.188 101.915C131.216 97.7819 133.787 93.6293 137.921 92.6565C142.046 91.6825 146.205 94.2542 147.178 98.3889C147.341 99.078 148.032 99.4989 148.722 99.3437C149.411 99.1807 149.838 98.4903 149.677 97.7999C149.048 95.1307 147.418 92.8657 145.088 91.422C144.13 90.8292 143.1 90.4147 142.036 90.1631C142.293 83.666 147.644 78.4559 154.203 78.4559C160.74 78.4559 166.077 83.6313 166.366 90.099C161.324 90.7457 157.411 95.0563 157.411 100.271C157.411 100.981 157.985 101.555 158.694 101.555C159.404 101.555 159.978 100.981 159.978 100.271C159.978 96.0251 163.431 92.5718 167.677 92.5718C171.923 92.5718 175.436 96.0251 175.436 100.271C175.436 100.307 175.436 101.974 175.436 104.121C175.436 104.83 176.011 105.405 176.719 105.405C177.427 105.405 178.002 104.83 178.002 104.121V100.271C178 95.0383 174 90.7137 168.931 90.0913Z" fill="#ABCADD"/>
<path d="M169.018 111.823V105.406" stroke="white" stroke-width="2" stroke-miterlimit="10" stroke-linecap="round"/>
<path d="M169.018 111.82V118.237" stroke="white" stroke-width="2" stroke-miterlimit="10" stroke-linecap="round"/>
<path d="M169.017 111.821L163.461 108.613" stroke="white" stroke-width="2" stroke-miterlimit="10" stroke-linecap="round"/>
<path d="M169.018 111.82L174.575 115.028" stroke="white" stroke-width="2" stroke-miterlimit="10" stroke-linecap="round"/>
<path d="M169.018 111.821L174.575 108.613" stroke="white" stroke-width="2" stroke-miterlimit="10" stroke-linecap="round"/>
<path d="M169.017 111.82L163.461 115.028" stroke="white" stroke-width="2" stroke-miterlimit="10" stroke-linecap="round"/>
<path d="M142.068 111.823V105.406" stroke="white" stroke-width="2" stroke-miterlimit="10" stroke-linecap="round"/>
<path d="M142.068 111.82V118.237" stroke="white" stroke-width="2" stroke-miterlimit="10" stroke-linecap="round"/>
<path d="M142.068 111.821L136.512 108.613" stroke="white" stroke-width="2" stroke-miterlimit="10" stroke-linecap="round"/>
<path d="M142.068 111.82L147.626 115.028" stroke="white" stroke-width="2" stroke-miterlimit="10" stroke-linecap="round"/>
<path d="M142.068 111.821L147.626 108.613" stroke="white" stroke-width="2" stroke-miterlimit="10" stroke-linecap="round"/>
<path d="M142.068 111.82L136.512 115.028" stroke="white" stroke-width="2" stroke-miterlimit="10" stroke-linecap="round"/>
<path d="M156.184 128.545V122.129" stroke="white" stroke-width="2" stroke-miterlimit="10" stroke-linecap="round"/>
<path d="M156.184 128.543V134.959" stroke="white" stroke-width="2" stroke-miterlimit="10" stroke-linecap="round"/>
<path d="M156.184 128.544L150.627 125.336" stroke="white" stroke-width="2" stroke-miterlimit="10" stroke-linecap="round"/>
<path d="M156.184 128.543L161.741 131.751" stroke="white" stroke-width="2" stroke-miterlimit="10" stroke-linecap="round"/>
<path d="M156.184 128.544L161.741 125.336" stroke="white" stroke-width="2" stroke-miterlimit="10" stroke-linecap="round"/>
<path d="M156.184 128.543L150.627 131.751" stroke="white" stroke-width="2" stroke-miterlimit="10" stroke-linecap="round"/>
</g>
<defs>
<clipPath id="clip0_158_695">
<rect width="101" height="101" fill="white"/>
</clipPath>
<clipPath id="clip1_158_695">
<rect width="77" height="77" fill="white" transform="translate(101 65)"/>
</clipPath>
</defs>
</svg>
