<svg width="180" height="191" viewBox="0 0 180 191" fill="none" xmlns="http://www.w3.org/2000/svg">
<path d="M178.313 1C178.313 1.29815 177.357 4.15167 171.508 16.0184C166.615 25.1853 157.813 40.7372 149.452 52.0938C141.091 63.4505 133.439 70.1407 125.107 75.3321" stroke="#F5F5F5" stroke-width="2" stroke-linecap="round"/>
<path d="M112.475 57.8203C112.554 66.6672 113.699 90.9446 116.207 97.7491C117.228 98.6886 118.763 99.1359 125.87 99.2122C132.977 99.2886 145.608 98.9805 157.102 97.614" stroke="#F5F5F5" stroke-width="2" stroke-linecap="round"/>
<g clip-path="url(#clip0_164_6)">
<path d="M55.9608 87.902C55.3808 87.902 54.8188 87.5935 54.5215 87.0484C53.6601 85.4691 52.6836 83.6792 52.6836 80.2584C52.6836 76.838 53.6599 75.0478 54.5215 73.4683C55.293 72.0535 55.9594 70.8321 55.9594 68.2467C55.9594 65.6617 55.293 64.4405 54.5215 63.0261C53.6601 61.447 52.6836 59.6568 52.6836 56.2368C52.6836 52.8168 53.6601 51.027 54.5213 49.4477C54.9543 48.6535 55.9495 48.3608 56.7435 48.7942C57.5375 49.2272 57.8302 50.2222 57.397 51.0164C56.6255 52.4308 55.9594 53.652 55.9594 56.237C55.9594 58.822 56.6257 60.0432 57.3972 61.4576C58.2587 63.0367 59.2352 64.8269 59.2352 68.2469C59.2352 71.6673 58.2587 73.4575 57.3972 75.037C56.6257 76.4518 55.9594 77.6732 55.9594 80.2586C55.9594 82.8441 56.6257 84.0656 57.397 85.4798C57.8302 86.274 57.5377 87.2688 56.7435 87.702C56.4944 87.8375 56.2257 87.902 55.9608 87.902Z" fill="#FFE2C4"/>
<path d="M64.6951 87.902C64.1152 87.902 63.5532 87.5935 63.2559 87.0484C62.3944 85.4691 61.418 83.6792 61.418 80.2584C61.418 76.838 62.3944 75.0478 63.2559 73.4683C64.0274 72.0535 64.6938 70.8321 64.6938 68.2467C64.6938 65.6617 64.0274 64.4405 63.2559 63.0261C62.3944 61.447 61.418 59.6568 61.418 56.2368C61.418 52.8168 62.3944 51.027 63.2557 49.4477C63.6887 48.6535 64.6837 48.3608 65.4779 48.7942C66.2719 49.2272 66.5646 50.2222 66.1314 51.0164C65.3599 52.4308 64.6938 53.652 64.6938 56.237C64.6938 58.822 65.3601 60.0432 66.1316 61.4576C66.9931 63.0367 67.9695 64.8269 67.9695 68.2469C67.9695 71.6673 66.9931 73.4575 66.1316 75.037C65.3601 76.4518 64.6938 77.6732 64.6938 80.2586C64.6938 82.8441 65.3601 84.0656 66.1314 85.4798C66.5646 86.274 66.2721 87.2688 65.4779 87.702C65.2287 87.8375 64.9601 87.902 64.6951 87.902Z" fill="#FFE2C4"/>
<path d="M77.7966 92.8164L61.334 133.773L73.1385 149.595H79.5435C79.5435 121.205 86.5317 121.205 86.5317 92.8164H77.7966Z" fill="#008CCB"/>
<path d="M40.6729 112.469V119.02H30.348L27.4727 115.744L29.0202 112.469H40.6729Z" fill="#008CCB"/>
<path d="M34.1213 92.8164L40.6727 99.3676H27.7011L25.4199 96.2182L27.5699 92.8164H34.1213Z" fill="#008CCB"/>
<path d="M27.5693 92.8164C27.5693 95.1727 27.6151 97.3478 27.7003 99.3678H27.5693C23.9574 99.3678 21.018 102.307 21.018 105.919C21.018 109.531 23.9574 112.471 27.5693 112.471H29.0194C29.4191 114.846 29.8732 116.984 30.3472 119.022H27.5695C20.3325 119.022 14.4668 113.156 14.4668 105.919C14.4668 98.6821 20.3325 92.8164 27.5693 92.8164Z" fill="#3AAADC"/>
<path d="M34.1211 92.8164H77.7966C77.7966 121.206 73.1386 121.206 73.1386 149.595H41.1092C41.1092 121.205 34.1211 121.205 34.1211 92.8164Z" fill="#3AAADC"/>
<path d="M71.2453 107.557C72.1499 107.557 72.8832 106.824 72.8832 105.919C72.8832 105.015 72.1499 104.281 71.2453 104.281C70.3407 104.281 69.6074 105.015 69.6074 105.919C69.6074 106.824 70.3407 107.557 71.2453 107.557Z" fill="#008CCB"/>
<path d="M64.6945 114.108C65.5991 114.108 66.3324 113.375 66.3324 112.47C66.3324 111.565 65.5991 110.832 64.6945 110.832C63.79 110.832 63.0566 111.565 63.0566 112.47C63.0566 113.375 63.79 114.108 64.6945 114.108Z" fill="#008CCB"/>
</g>
<g clip-path="url(#clip1_164_6)">
<path d="M147.347 131.834L146.117 129.796C142.173 123.257 135.278 119.352 127.673 119.352C115.79 119.352 106.123 129.018 106.123 140.902C106.123 147.682 109.392 154.15 114.869 158.201L115.704 158.819L116.737 158.933C117.416 159.007 118.063 159.142 118.658 159.334L125.036 161.384L123.595 154.842C123.252 153.284 123.632 151.693 124.638 150.471C125.617 149.283 127.062 148.601 128.605 148.601C129.133 148.601 129.654 148.682 130.115 148.828L133.567 149.979L134.911 146.597C135.533 145.031 136.877 143.867 138.502 143.485C139.08 143.35 139.7 143.32 140.294 143.394L144.785 143.935L144.601 139.414L144.574 138.977C144.574 137.166 145.091 135.39 146.071 133.845L147.347 131.834Z" fill="#F0C419"/>
<path d="M177.969 147.582H177.865C177.91 147.972 177.94 148.366 177.94 148.769C177.94 149.478 177.367 150.052 176.657 150.052C175.948 150.052 175.374 149.478 175.374 148.769C175.374 144.522 171.921 141.069 167.674 141.069C163.428 141.069 159.975 144.522 159.975 148.769C159.975 149.478 159.401 150.052 158.691 150.052C157.982 150.052 157.408 149.478 157.408 148.769C157.408 143.553 161.321 139.243 166.363 138.596C166.073 132.13 160.737 126.953 154.2 126.953C147.641 126.953 142.29 132.163 142.033 138.66C143.097 138.912 144.128 139.328 145.085 139.919C147.415 141.363 149.045 143.628 149.674 146.297C149.836 146.988 149.408 147.678 148.719 147.841C148.029 147.996 147.338 147.575 147.175 146.886C146.203 142.751 142.044 140.18 137.918 141.154C133.784 142.126 131.213 146.279 132.186 150.413C132.347 151.102 131.92 151.792 131.229 151.955C131.132 151.978 131.033 151.988 130.936 151.988C130.354 151.988 129.827 151.589 129.687 150.999C129.31 149.394 129.343 147.788 129.702 146.284C127.061 145.898 124.394 146.895 122.653 149.007C121.039 150.97 120.568 153.496 121.146 155.789C121.147 155.805 121.155 155.818 121.156 155.833C121.548 157.355 122.401 158.772 123.703 159.846C124.25 160.298 124.328 161.105 123.879 161.653C123.625 161.961 123.258 162.12 122.887 162.12C122.599 162.12 122.312 162.025 122.072 161.827C120.51 160.541 119.393 158.862 118.805 156.975C113.617 155.623 108.161 157.805 105.343 162.445C103.653 165.227 103.146 168.502 103.919 171.665C104.691 174.829 106.648 177.502 109.432 179.194C110.038 179.562 110.23 180.35 109.862 180.957C109.621 181.355 109.197 181.573 108.765 181.573C108.594 181.573 108.425 181.527 108.262 181.456C110.289 182.657 112.623 183.393 115.119 183.5L125.654 183.504C132.464 183.395 138.298 179.192 140.785 173.248C143.304 179.271 149.258 183.514 156.184 183.514C168.213 183.514 178 173.728 178 161.699V148.866L177.969 147.582Z" fill="#D0E8F9"/>
<path d="M168.931 138.685C168.634 130.807 162.15 124.484 154.202 124.484C146.32 124.484 139.88 130.701 139.482 138.485C138.766 138.5 138.046 138.585 137.332 138.753C134.334 139.459 131.961 141.425 130.621 143.953C126.923 143.202 123.117 144.509 120.676 147.472C119.071 149.422 118.265 151.845 118.353 154.349C112.412 153.278 106.368 155.919 103.154 161.206C101.106 164.575 100.494 168.539 101.428 172.368C102.363 176.198 104.733 179.434 108.101 181.482C108.309 181.609 108.54 181.669 108.767 181.669C109.201 181.669 109.623 181.45 109.865 181.053C110.233 180.446 110.04 179.659 109.435 179.29C106.651 177.599 104.694 174.926 103.922 171.761C103.149 168.598 103.656 165.323 105.346 162.541C108.164 157.903 113.619 155.72 118.808 157.072C119.395 158.959 120.514 160.638 122.075 161.924C122.315 162.12 122.602 162.216 122.89 162.216C123.261 162.216 123.628 162.057 123.882 161.749C124.332 161.201 124.253 160.393 123.706 159.942C122.402 158.87 121.551 157.452 121.159 155.93C121.157 155.914 121.15 155.901 121.148 155.886C120.571 153.593 121.042 151.066 122.656 149.104C124.396 146.992 127.064 145.995 129.705 146.381C129.346 147.886 129.311 149.49 129.69 151.096C129.828 151.687 130.357 152.085 130.938 152.085C131.036 152.085 131.135 152.073 131.232 152.052C131.923 151.889 132.35 151.198 132.188 150.509C131.216 146.376 133.787 142.223 137.921 141.25C142.046 140.276 146.205 142.848 147.178 146.983C147.341 147.672 148.032 148.093 148.722 147.937C149.411 147.774 149.838 147.084 149.677 146.394C149.048 143.724 147.418 141.459 145.088 140.016C144.13 139.423 143.1 139.008 142.036 138.757C142.293 132.26 147.644 127.05 154.203 127.05C160.74 127.05 166.077 132.225 166.366 138.693C161.324 139.339 157.411 143.65 157.411 148.865C157.411 149.575 157.985 150.148 158.694 150.148C159.404 150.148 159.978 149.575 159.978 148.865C159.978 144.619 163.431 141.166 167.677 141.166C171.923 141.166 175.436 144.619 175.436 148.865C175.436 148.901 175.436 150.568 175.436 152.715C175.436 153.423 176.011 153.998 176.719 153.998C177.427 153.998 178.002 153.423 178.002 152.715V148.865C178 143.632 174 139.307 168.931 138.685Z" fill="#ABCADD"/>
<path d="M169.018 160.416V154" stroke="white" stroke-width="2" stroke-miterlimit="10" stroke-linecap="round"/>
<path d="M169.018 160.414V166.83" stroke="white" stroke-width="2" stroke-miterlimit="10" stroke-linecap="round"/>
<path d="M169.017 160.415L163.461 157.207" stroke="white" stroke-width="2" stroke-miterlimit="10" stroke-linecap="round"/>
<path d="M169.018 160.414L174.575 163.622" stroke="white" stroke-width="2" stroke-miterlimit="10" stroke-linecap="round"/>
<path d="M169.018 160.415L174.575 157.207" stroke="white" stroke-width="2" stroke-miterlimit="10" stroke-linecap="round"/>
<path d="M169.017 160.414L163.461 163.622" stroke="white" stroke-width="2" stroke-miterlimit="10" stroke-linecap="round"/>
<path d="M142.068 160.416V154" stroke="white" stroke-width="2" stroke-miterlimit="10" stroke-linecap="round"/>
<path d="M142.068 160.414V166.83" stroke="white" stroke-width="2" stroke-miterlimit="10" stroke-linecap="round"/>
<path d="M142.068 160.415L136.512 157.207" stroke="white" stroke-width="2" stroke-miterlimit="10" stroke-linecap="round"/>
<path d="M142.068 160.414L147.626 163.622" stroke="white" stroke-width="2" stroke-miterlimit="10" stroke-linecap="round"/>
<path d="M142.068 160.415L147.626 157.207" stroke="white" stroke-width="2" stroke-miterlimit="10" stroke-linecap="round"/>
<path d="M142.068 160.414L136.512 163.622" stroke="white" stroke-width="2" stroke-miterlimit="10" stroke-linecap="round"/>
<path d="M156.184 177.139V170.723" stroke="white" stroke-width="2" stroke-miterlimit="10" stroke-linecap="round"/>
<path d="M156.184 177.137V183.553" stroke="white" stroke-width="2" stroke-miterlimit="10" stroke-linecap="round"/>
<path d="M156.184 177.138L150.627 173.93" stroke="white" stroke-width="2" stroke-miterlimit="10" stroke-linecap="round"/>
<path d="M156.184 177.137L161.741 180.345" stroke="white" stroke-width="2" stroke-miterlimit="10" stroke-linecap="round"/>
<path d="M156.184 177.138L161.741 173.93" stroke="white" stroke-width="2" stroke-miterlimit="10" stroke-linecap="round"/>
<path d="M156.184 177.137L150.627 180.345" stroke="white" stroke-width="2" stroke-miterlimit="10" stroke-linecap="round"/>
</g>
<defs>
<clipPath id="clip0_164_6">
<rect width="101" height="101" fill="white" transform="translate(0 48.5938)"/>
</clipPath>
<clipPath id="clip1_164_6">
<rect width="77" height="77" fill="white" transform="translate(101 113.594)"/>
</clipPath>
</defs>
</svg>
