<svg width="180" height="250" viewBox="0 0 180 250" fill="none" xmlns="http://www.w3.org/2000/svg">
<path d="M178.914 1C178.972 1 170.163 1 155.066 1.21954C145.387 1.36031 138.787 3.55521 132.576 6.40919C126.213 9.33351 120.402 14.9212 114.575 21.0277C108.93 27.9486 103.825 35.4453 97.1828 48.7402C92.8085 58.2915 86.3961 73.5369 78.9141 89" stroke="#F5F5F5" stroke-width="2" stroke-linecap="round"/>
<path d="M67 72.9414C67.0455 81.663 68.3513 104.61 70.7367 111.073C71.1219 112.116 72.3126 112.267 73.4942 111.265C76.143 107.887 85.7122 97.2394 98.3493 84.5274C102.929 80.0153 103.786 79.4394 105 78.8169" stroke="#F5F5F5" stroke-width="2" stroke-linecap="round"/>
<path d="M0 143.934C3.67138e-06 141.993 0.771306 140.13 2.14423 138.758C3.51716 137.385 5.37924 136.613 7.32085 136.613H120.679C122.621 136.613 124.483 137.385 125.856 138.758C127.229 140.13 128 141.993 128 143.934V227.953C128 229.895 127.229 231.757 125.856 233.13C124.483 234.503 122.621 235.274 120.679 235.274H7.32085C5.37926 235.274 3.51719 234.503 2.14426 233.13C0.771339 231.757 2.56996e-05 229.895 0 227.953L0 143.934Z" fill="#C4C4C4"/>
<path d="M72.5678 186.872C72.6864 186.081 71.8998 185.531 71.1021 185.484C70.958 185.476 70.8131 185.46 70.6674 185.438C69.487 185.278 68.4183 184.656 67.6956 183.709C66.9729 182.762 66.6552 181.567 66.812 180.386C66.9121 180.008 66.8649 179.605 66.6799 179.26C66.4949 178.915 66.1859 178.654 65.8153 178.528C65.6449 178.494 65.4726 178.464 65.2983 178.437C60.6895 177.737 56.5553 179.821 55.8778 184.336C55.5917 186.526 56.1752 188.741 57.5031 190.505C58.831 192.27 60.7975 193.444 62.981 193.776C65.1645 194.108 67.391 193.571 69.1832 192.28C70.9753 190.99 72.1904 189.048 72.5678 186.872Z" fill="white"/>
<path d="M112.254 178.266C109.986 180.128 107.217 181.274 104.297 181.561C101.377 181.847 98.4381 181.26 95.852 179.874C93.266 178.489 91.1495 176.366 89.7709 173.776C88.3923 171.186 87.8136 168.246 88.108 165.326C88.4025 162.407 89.557 159.641 91.4252 157.379C93.2933 155.117 95.791 153.46 98.6017 152.618C101.412 151.777 104.41 151.789 107.214 152.653C110.018 153.517 112.502 155.194 114.352 157.471C116.828 160.508 117.998 164.403 117.605 168.302C117.211 172.201 115.287 175.784 112.254 178.266Z" fill="#FCBB6A"/>
<path d="M109.705 163.528C109.484 162.914 109.109 162.366 108.617 161.937L109.107 161.097C109.236 160.875 109.273 160.611 109.209 160.363C109.146 160.114 108.988 159.9 108.769 159.766L108.713 159.732C108.606 159.667 108.486 159.623 108.362 159.604C108.237 159.586 108.11 159.592 107.988 159.623C107.866 159.654 107.752 159.709 107.651 159.785C107.551 159.861 107.467 159.956 107.403 160.065L106.974 160.801L105.919 160.213L106.3 159.529C106.424 159.305 106.455 159.04 106.387 158.793C106.319 158.546 106.156 158.335 105.934 158.206L105.879 158.173C105.77 158.11 105.65 158.069 105.525 158.053C105.4 158.037 105.273 158.045 105.152 158.079C105.03 158.112 104.917 158.17 104.818 158.248C104.719 158.326 104.637 158.423 104.576 158.533L104.18 159.243L101.951 158L94.2715 171.865L96.8003 173.275L96.4569 173.892C96.3327 174.117 96.3015 174.381 96.3698 174.629C96.4381 174.876 96.6006 175.087 96.8225 175.216L96.878 175.248C96.9868 175.312 97.1072 175.353 97.2321 175.369C97.357 175.385 97.4838 175.376 97.6052 175.343C97.7266 175.309 97.8401 175.252 97.939 175.174C98.0379 175.096 98.1202 174.999 98.1812 174.889L98.5395 174.245L99.5937 174.833L99.2595 175.406C99.1308 175.628 99.0942 175.891 99.1575 176.14C99.2207 176.389 99.3788 176.603 99.598 176.737L99.6536 176.771C99.761 176.836 99.8805 176.88 100.005 176.898C100.13 176.917 100.257 176.911 100.379 176.88C100.501 176.849 100.615 176.794 100.716 176.718C100.816 176.642 100.9 176.547 100.964 176.438L101.399 175.692C101.655 175.79 101.917 175.873 102.182 175.94C102.809 176.094 103.462 176.114 104.097 175.997C104.701 175.887 105.269 175.635 105.755 175.261C106.298 174.851 106.744 174.328 107.061 173.727C107.284 173.331 107.454 172.908 107.566 172.468C107.672 172.053 107.69 171.621 107.62 171.198C107.555 170.76 107.393 170.341 107.146 169.971C106.867 169.519 106.512 169.118 106.097 168.784C106.726 168.771 107.341 168.59 107.877 168.261C108.451 167.873 108.917 167.346 109.23 166.729C109.532 166.26 109.731 165.732 109.812 165.18C109.894 164.628 109.858 164.065 109.705 163.528ZM103.558 171.46C103.45 171.692 103.28 171.889 103.066 172.029C102.853 172.169 102.604 172.247 102.349 172.254C101.585 172.191 100.849 171.938 100.209 171.518L99.419 171.077L101.048 168.135L101.838 168.576C102.533 168.9 103.136 169.394 103.591 170.011C103.72 170.232 103.786 170.484 103.78 170.74C103.774 170.996 103.697 171.245 103.558 171.46ZM105.63 165.419C105.134 166.314 104.323 166.447 103.197 165.819L102.535 165.45L104.022 162.766L104.683 163.134C105.81 163.763 106.125 164.524 105.63 165.419Z" fill="white"/>
<path d="M38.664 221.26C38.5192 221.581 38.293 221.857 38.0081 222.063C37.7231 222.268 37.3893 222.396 37.0398 222.432C36.6903 222.468 36.3374 222.412 36.0162 222.27C35.6951 222.128 35.4168 221.904 35.2091 221.62L21.68 203.157C21.4708 202.871 21.3406 202.536 21.3026 202.184C21.2646 201.832 21.3202 201.476 21.4636 201.153C21.607 200.829 21.8333 200.55 22.1195 200.341C22.4058 200.133 22.7418 200.004 23.0938 199.968L46.0544 197.577C46.4064 197.541 46.7619 197.597 47.0849 197.742C47.4078 197.887 47.6869 198.114 47.894 198.401C48.101 198.688 48.2287 199.025 48.2641 199.377C48.2994 199.729 48.2413 200.084 48.0955 200.407L38.664 221.26Z" fill="#83EBC5"/>
<path d="M27.0625 199.588L33.8816 208.894C34.0892 209.178 34.3675 209.402 34.6887 209.544C35.0099 209.687 35.3628 209.742 35.7122 209.706C36.0617 209.67 36.3955 209.542 36.6805 209.337C36.9655 209.131 37.1916 208.855 37.3364 208.534L42.0901 198.023L27.0625 199.588Z" fill="#6B94BF"/>
<path d="M104.266 209.811C104.266 212.359 103.511 214.85 102.095 216.968C100.679 219.087 98.6668 220.738 96.3127 221.712C93.9585 222.687 91.3682 222.942 88.8693 222.444C86.3705 221.946 84.0753 220.719 82.2742 218.917C80.473 217.115 79.2468 214.819 78.7506 212.32C78.2543 209.82 78.5104 207.23 79.4864 204.877C80.4624 202.523 82.1145 200.512 84.2337 199.097C86.3529 197.683 88.844 196.928 91.3919 196.93C93.0831 196.93 94.7576 197.264 96.3199 197.911C97.8821 198.559 99.3015 199.508 100.497 200.704C101.693 201.9 102.641 203.32 103.287 204.883C103.934 206.445 104.267 208.12 104.266 209.811Z" fill="#7A7A7A"/>
<path d="M98.0102 205.638C98.0374 204.583 97.9534 203.528 97.7595 202.491C97.75 202.436 97.7277 202.384 97.6944 202.339C97.6612 202.294 97.6179 202.258 97.568 202.233C97.5181 202.208 97.4631 202.195 97.4073 202.195C97.3515 202.195 97.2965 202.208 97.2467 202.233C96.388 202.648 95.5787 203.158 94.8339 203.753C92.5896 203.439 90.3127 203.435 88.0674 203.742C87.2909 203.103 86.4406 202.558 85.5347 202.121C85.485 202.095 85.43 202.082 85.3742 202.082C85.3184 202.082 85.2633 202.095 85.2134 202.12C85.1636 202.145 85.1202 202.181 85.0869 202.226C85.0536 202.271 85.0313 202.323 85.0217 202.378C84.8189 203.452 84.734 204.546 84.7683 205.639C84.2771 206.401 84.0335 207.295 84.071 208.201L84.1606 210.223C84.1965 211.281 84.6195 212.289 85.3495 213.055C86.0795 213.821 87.0654 214.292 88.1201 214.379C88.6146 214.415 89.0796 214.438 89.5404 214.459C88.9156 214.722 88.4211 215.223 88.1653 215.851C87.5348 215.734 86.9316 215.5 86.3871 215.161C86.2928 215.102 86.2062 215.03 86.1294 214.949C85.1165 213.769 83.7927 212.896 82.3086 212.43C82.1894 212.398 82.0651 212.388 81.9423 212.401C81.5851 212.445 81.3993 212.583 81.3946 212.943C81.3857 213.62 82.1601 213.985 82.7941 214.222C83.8951 214.75 84.863 215.519 85.6258 216.472C85.7209 216.579 85.832 216.67 85.9551 216.742C86.554 217.089 87.2039 217.34 87.8809 217.484C87.7932 218.472 87.8253 219.468 87.9766 220.448C88.0936 221.072 88.4287 221.633 88.922 222.031C89.4153 222.43 90.0344 222.64 90.6684 222.624L92.1105 222.625C92.8099 222.636 93.4877 222.382 94.0061 221.912C94.5246 221.442 94.845 220.793 94.9023 220.096C94.9788 218.975 94.98 217.85 94.906 216.729C94.8686 216.237 94.6955 215.764 94.4059 215.364C94.1163 214.964 93.7215 214.652 93.2653 214.462C93.7184 214.443 94.1745 214.42 94.6567 214.386C95.71 214.3 96.6948 213.83 97.4241 213.065C98.1534 212.3 98.5764 211.294 98.6126 210.238L98.705 208.202C98.7434 207.296 98.5007 206.4 98.0102 205.638Z" fill="white"/>
<path d="M61.076 167.501L59.999 165.753C55.8538 159.865 53.1658 155.922 54.0845 152.1C54.2518 151.367 54.5644 150.675 55.0039 150.064C55.4434 149.454 56.0008 148.938 56.6433 148.547C57.2857 148.156 58.0001 147.897 58.7441 147.787C59.4882 147.677 60.2468 147.717 60.975 147.905C61.8377 148.122 62.6443 148.52 63.3413 149.072C64.0382 149.625 64.6095 150.319 65.0169 151.11C65.7392 150.591 66.5638 150.231 67.4358 150.056C68.3078 149.88 69.2073 149.892 70.0743 150.091C70.8084 150.254 71.5024 150.563 72.1151 150.999C72.7278 151.435 73.2468 151.989 73.6413 152.63C74.0359 153.27 74.2979 153.983 74.4119 154.726C74.5259 155.47 74.4896 156.228 74.3052 156.957C73.3864 160.779 69.1994 163.07 62.8299 166.433L61.076 167.501Z" fill="#FF7878"/>
<path d="M16.8852 160.251L20.9878 170.486C21.1499 170.885 21.2837 171.294 21.388 171.711C21.488 172.044 21.5422 172.389 21.5493 172.737C21.5464 173.226 21.4647 173.711 21.3075 174.174C21.1529 174.635 20.9287 175.069 20.6426 175.462C20.3302 175.869 19.9628 176.23 19.5509 176.535C19.1268 176.874 18.6545 177.147 18.1496 177.346C17.3744 177.658 16.5319 177.763 15.7037 177.653C14.8756 177.543 14.0899 177.221 13.423 176.718L14.9007 173.151C15.0965 173.52 15.3926 173.827 15.7549 174.035C15.9026 174.12 16.0676 174.169 16.2372 174.18C16.4069 174.19 16.5767 174.162 16.7339 174.098C17.4516 173.81 17.5829 173.099 17.1279 171.964L13.0488 161.787L16.8852 160.251ZM29.6199 159.535C29.1194 159.371 28.5957 159.289 28.0691 159.293C27.6197 159.284 27.1729 159.363 26.7536 159.524C26.3138 159.678 25.9369 159.973 25.6813 160.363C25.5748 160.525 25.5099 160.711 25.4922 160.904C25.4746 161.097 25.5048 161.292 25.5802 161.471C25.6669 161.712 25.844 161.91 26.074 162.022C26.3226 162.136 26.5889 162.206 26.8611 162.229C27.1904 162.242 27.5201 162.231 27.8479 162.198C28.2107 162.158 28.5696 162.128 28.9246 162.107C30.0953 161.977 31.279 162.18 32.3395 162.693C33.2619 163.217 33.9625 164.058 34.3107 165.061C34.6032 165.761 34.7502 166.513 34.7429 167.272C34.7425 167.978 34.5781 168.673 34.2627 169.304C33.9201 169.968 33.4431 170.554 32.862 171.023C32.1902 171.593 31.4265 172.045 30.6036 172.359C28.7436 173.106 26.6963 173.251 24.7499 172.773L25.1546 169.022C25.8463 169.283 26.5741 169.436 27.3124 169.475C27.9307 169.506 28.5483 169.405 29.1252 169.181C29.6432 169.022 30.0793 168.668 30.3423 168.194C30.4386 168.017 30.4954 167.821 30.5088 167.619C30.5222 167.418 30.4918 167.216 30.4198 167.027C30.3469 166.829 30.2288 166.651 30.0749 166.507C29.9133 166.361 29.7161 166.259 29.503 166.214C29.2157 166.137 28.919 166.103 28.6219 166.112C28.2878 166.11 27.8832 166.12 27.4081 166.144C26.8495 166.186 26.2922 166.212 25.7362 166.223C25.2004 166.217 24.6685 166.132 24.158 165.969C23.6509 165.793 23.1846 165.516 22.7869 165.156C22.3164 164.676 21.9541 164.1 21.7247 163.469C21.4439 162.797 21.2946 162.079 21.2847 161.351C21.2849 160.685 21.4231 160.027 21.6906 159.417C21.9738 158.792 22.3842 158.233 22.8955 157.776C23.4831 157.259 24.1577 156.851 24.8878 156.57C25.6638 156.266 26.4757 156.063 27.3034 155.966C28.1794 155.843 29.0674 155.83 29.9465 155.929L29.6199 159.535Z" fill="#FFF8C9"/>
</svg>
