<svg width="58" height="72" viewBox="0 0 58 72" fill="none" xmlns="http://www.w3.org/2000/svg">
<path d="M0.00456044 11.7349C0.0127725 11.7142 0.0308401 11.6951 0.0571186 11.676C0.328116 11.4752 1.11975 11.6457 1.44002 11.6537C3.00195 11.6951 4.56059 11.6999 6.12252 11.6999C8.26258 11.6999 10.4026 11.6967 12.5427 11.6951C12.8301 11.6951 15.8686 11.7668 15.8817 11.6935C16.2594 9.34158 16.2529 6.86377 15.3101 4.66641C14.5924 2.99489 13.1175 1.16402 11.2123 0.687577C10.8412 0.595157 10.038 0.0788797 10.9134 0.0916273C12.2109 0.110749 13.4936 0.28603 14.7928 0.278063C16.2151 0.270095 17.6358 0.23982 19.0581 0.19361C22.0325 0.0995969 25.0069 -0.0358466 27.9829 0.00876985C32.1185 0.0709142 36.3116 0.50433 40.2353 1.83486C43.75 3.02676 47.9168 5.0345 49.4081 8.56876C51.1885 12.7834 48.7774 16.9391 45.762 19.9348C44.7141 20.9769 43.5661 21.9171 42.3836 22.8126C41.7906 23.2603 41.1895 23.6969 40.5835 24.1288C40.3765 24.277 39.2466 25.4163 39.0462 25.3924C44.1935 26.009 49.326 27.8957 52.9656 31.4809C56.8334 35.2908 58.668 41.0384 57.7795 46.3047C56.5756 53.4545 50.433 59.2913 43.0586 60.394C35.6053 61.5094 28.0355 57.376 24.7671 50.854C23.8868 49.0981 23.3316 47.1891 23.1198 45.2483C23.1116 45.1686 23.1034 45.081 23.1461 45.0109C23.2118 44.9009 23.3743 44.8786 23.4942 44.928C24.0198 45.1479 24.1972 45.8267 24.2727 46.3127C25.1054 51.7113 29.062 56.7099 34.4491 58.2843C39.8362 59.8586 46.3434 57.4971 48.8136 52.5925C49.6101 51.0102 49.9879 49.259 50.2244 47.5126C50.9421 42.2191 50.3788 36.6995 47.5489 32.0307C45.9426 29.3792 43.4626 26.9587 40.3256 26.5157C38.179 26.213 35.9815 26.8854 34.1223 27.9706C31.9559 29.2373 29.985 30.8276 28.3393 32.6935C27.5099 33.6337 26.7626 34.6423 26.1188 35.7115C25.6244 36.5321 25.2713 37.3926 24.8509 38.2483C24.7589 38.4347 24.6571 38.6227 24.501 38.763C24.3089 38.9367 23.8359 39.0976 23.6618 38.8124C23.4598 38.4809 23.8474 37.8531 23.9853 37.5551C24.235 37.015 24.4452 36.4588 24.7162 35.9266C25.2434 34.8909 25.8807 33.9221 26.5935 32.9995C28.1176 31.0252 29.9046 29.2676 31.7572 27.5833C35.1701 24.4793 38.9033 21.439 41.0532 17.32C43.1128 13.373 43.6351 7.83259 40.2928 4.36366C39.0199 3.04269 37.2872 2.19976 35.4871 1.73606C33.6854 1.27397 31.8081 1.17039 29.944 1.15605C28.4165 1.1433 26.8891 1.19111 25.3617 1.23732C24.7063 1.25644 24.051 1.27715 23.3941 1.29627C22.8291 1.3138 22.655 1.60699 22.6763 2.13602C22.7552 4.12623 22.8701 6.12123 22.7207 8.10985C22.673 8.73767 22.1376 11.4178 23.4006 11.4178C23.8112 11.4178 24.2218 11.4194 24.6324 11.4242C27.4475 11.4545 30.3825 11.4943 33.1434 12.0791C34.9484 12.4616 36.8158 12.9013 38.404 13.8542C38.7752 14.0773 39.13 14.3291 39.4519 14.6175C40.5687 15.6261 38.2381 17.8936 37.7569 18.7604C37.5204 19.1859 37.2149 20.0846 36.6171 20.134C36.1621 20.1722 35.9765 19.4791 35.8648 19.1716C35.6579 18.6027 35.4115 18.0545 35.0584 17.551C34.4475 16.6842 33.6903 15.9273 32.7968 15.3313C30.6847 13.9259 28.1193 13.2153 25.6015 12.8966C23.4171 12.6193 21.2064 12.6305 19.0088 12.7038C18.4159 12.7229 12.9401 12.5938 12.9155 12.8567C12.7069 15.2341 12.9188 17.7231 12.9287 20.1133C12.9385 22.5895 12.9484 25.0657 12.9582 27.5419C12.9779 32.445 12.9976 37.348 13.0173 42.251C13.0305 45.5606 13.0436 48.8718 13.0568 52.1814C13.0535 51.3512 13.896 50.1434 14.3247 49.4566C14.8782 48.5706 15.5384 47.7468 16.266 46.9899C19.6313 43.4939 24.1167 41.4176 28.1899 38.8379C31.6537 36.6421 34.973 33.8583 36.4183 30.0962C36.7583 29.2134 37.32 28.353 38.3252 28.1267C39.1595 27.9387 40.0119 28.1825 40.7724 28.5123C41.3111 28.7466 42.2899 29.078 42.5182 29.6564C42.6086 29.8843 42.5839 30.1424 42.5018 30.3735C42.1569 31.3487 40.9974 32.0641 40.2419 32.7206C39.3763 33.4711 38.4582 34.1611 37.5056 34.8048C35.6382 36.0669 33.6476 37.1488 31.6357 38.1766C27.7678 40.1556 23.7718 41.9833 20.3605 44.638C17.7278 46.6872 15.4317 49.302 14.2294 52.3949C12.8728 55.8893 12.8942 59.7933 12.8876 63.4741C12.8843 65.0182 12.8974 66.6339 13.6332 68.0027C14.1473 68.9588 14.9751 69.6965 15.9178 70.2495C16.3268 70.4885 16.7653 70.6701 17.2153 70.8263C17.6325 70.9697 19.3554 71.537 18.0957 71.8525C16.946 72.1393 15.7437 71.921 14.5743 71.913C13.4247 71.9066 12.275 71.9082 11.1253 71.905C8.91297 71.8971 6.70229 71.8987 4.48997 71.905C3.51602 71.9066 2.47967 72.0134 1.48437 71.9401C0.489072 71.8668 0.914454 71.3888 1.55499 71.078C2.09699 70.8151 2.71617 70.694 3.21711 70.3498C4.08758 69.7635 4.91043 69.005 5.36209 68.0569C5.91558 66.8857 5.92215 65.552 5.91886 64.2645C5.88766 49.0216 5.85481 33.7771 5.8236 18.5342C5.82196 17.5367 5.81375 16.5121 5.43764 15.5847C5.03854 14.6 4.26496 13.7953 3.36492 13.2168C2.91983 12.93 2.43861 12.6942 1.93931 12.5125C1.39896 12.315 0.7962 12.2863 0.282127 12.0218C0.139238 11.9485 -0.0397863 11.8369 0.00784344 11.7302L0.00456044 11.7349Z" fill="#222222"/>
</svg>
