<svg width="100" height="100" viewBox="0 0 100 100" fill="none" xmlns="http://www.w3.org/2000/svg">
<path d="M48.4357 91.0013C48.7009 91.0013 48.9552 90.896 49.1428 90.7085C49.3303 90.5209 49.4357 90.2666 49.4357 90.0013V79.5693C49.4346 78.2632 48.9153 77.0109 47.9917 76.0873C47.0681 75.1637 45.8158 74.6444 44.5097 74.6433H42.2917C41.6876 74.6433 41.0894 74.5244 40.5313 74.2932C39.9732 74.062 39.4661 73.7232 39.039 73.296C38.6118 72.8689 38.273 72.3618 38.0418 71.8037C37.8106 71.2456 37.6917 70.6474 37.6917 70.0433V63.3353C37.6911 62.5084 37.3625 61.7154 36.778 61.1305C36.1934 60.5455 35.4006 60.2164 34.5737 60.2153H32.7017C32.4952 60.2148 32.2916 60.1665 32.1069 60.0741C31.9222 59.9818 31.7614 59.848 31.6371 59.6832C31.5127 59.5183 31.4282 59.3269 31.3901 59.124C31.3521 58.921 31.3615 58.712 31.4177 58.5133L38.9777 31.9813C42.5777 23.1513 55.3177 17.9233 64.2777 19.1553C64.8357 19.2313 65.4016 19.3253 65.9636 19.4333C71.073 20.4625 75.8056 22.8636 79.6536 26.379C83.5016 29.8943 86.3197 34.3911 87.8055 39.3868C89.2912 44.3825 89.3886 49.6885 88.087 54.7353C86.7854 59.7821 84.1341 64.3793 80.4177 68.0333C79.0186 69.3815 77.904 70.9965 77.1396 72.7828C76.3753 74.5691 75.9768 76.4904 75.9677 78.4333V90.0013C75.9677 90.2666 76.073 90.5209 76.2605 90.7085C76.4481 90.896 76.7024 91.0013 76.9677 91.0013H48.4357Z" fill="#F7D2D0"/>
<path d="M31.1017 38.8837V37.1617C31.0963 36.5894 30.8865 36.0378 30.5103 35.6065C30.134 35.1753 29.616 34.8927 29.0497 34.8097C29.133 33.1735 29.814 31.6249 30.9637 30.4577C32.1628 29.1914 33.0885 27.6919 33.6833 26.0525C34.2782 24.4131 34.5294 22.6689 34.4213 20.9283C34.3133 19.1877 33.8483 17.4879 33.0553 15.9347C32.2623 14.3815 31.1582 13.008 29.8117 11.8997C28.3464 10.6966 26.6319 9.83455 24.7924 9.37587C22.9528 8.9172 21.0343 8.87341 19.1757 9.24769C16.9534 9.70041 14.8926 10.7393 13.2069 12.2565C11.5213 13.7738 10.2721 15.7143 9.58883 17.8769C8.90557 20.0395 8.81313 22.3454 9.32108 24.5558C9.82903 26.7661 10.9189 28.8003 12.4777 30.4477C13.6309 31.6172 14.3148 33.1694 14.3997 34.8097C13.8334 34.8927 13.3154 35.1753 12.9391 35.6065C12.5628 36.0378 12.3531 36.5894 12.3477 37.1617V38.8837C12.3482 39.5271 12.6039 40.1441 13.0587 40.5993C13.5135 41.0544 14.1303 41.3106 14.7737 41.3117H14.8797C15.0443 43.0121 15.8363 44.5903 17.1012 45.7387C18.3661 46.887 20.0133 47.5232 21.7217 47.5232C23.4301 47.5232 25.0773 46.887 26.3422 45.7387C27.6071 44.5903 28.399 43.0121 28.5637 41.3117H28.6757C29.3191 41.3106 29.9359 41.0544 30.3907 40.5993C30.8455 40.1441 31.1012 39.5271 31.1017 38.8837Z" fill="#231F20"/>
<path d="M11.1684 19.7854C11.5425 17.6767 12.5446 15.7301 14.0433 14.2003C15.5421 12.6705 17.4678 11.6287 19.5684 11.2114C21.1369 10.8967 22.7558 10.9337 24.3083 11.3201C25.8608 11.7064 27.3083 12.4323 28.5464 13.4454C29.6818 14.3788 30.6129 15.5359 31.2817 16.8447C31.9505 18.1535 32.3428 19.586 32.4339 21.053C32.5251 22.52 32.3133 23.99 31.8117 25.3716C31.3101 26.7532 30.5295 28.0167 29.5184 29.0834C28.0379 30.6046 27.1657 32.6151 27.0664 34.7354H22.7224V30.8294C23.5258 30.5893 24.2161 30.068 24.6669 29.3609C25.1177 28.6538 25.299 27.8081 25.1776 26.9784C25.0563 26.1486 24.6404 25.3902 24.006 24.8419C23.3715 24.2935 22.561 23.9917 21.7224 23.9917C20.8838 23.9917 20.0732 24.2935 19.4388 24.8419C18.8044 25.3902 18.3885 26.1486 18.2671 26.9784C18.1458 27.8081 18.3271 28.6538 18.7779 29.3609C19.2287 30.068 19.9189 30.5893 20.7224 30.8294V34.7354H16.3884C16.2879 32.6131 15.4135 30.601 13.9304 29.0794C12.7719 27.8564 11.918 26.3775 11.4381 24.7627C10.9582 23.1479 10.8658 21.4427 11.1684 19.7854Z" fill="#FFBA50"/>
<path d="M21.7225 28.9997C21.4269 28.9997 21.138 28.912 20.8923 28.7478C20.6466 28.5835 20.4551 28.3501 20.342 28.077C20.229 27.8039 20.1996 27.5034 20.2574 27.2135C20.3152 26.9237 20.4577 26.6575 20.6668 26.4486C20.8759 26.2397 21.1423 26.0976 21.4323 26.0402C21.7222 25.9828 22.0227 26.0126 22.2956 26.126C22.5686 26.2394 22.8018 26.4312 22.9657 26.6772C23.1296 26.9231 23.2169 27.2121 23.2165 27.5077C23.216 27.9036 23.0583 28.2831 22.7782 28.5628C22.4981 28.8426 22.1184 28.9997 21.7225 28.9997Z" fill="#FFBA50"/>
<path d="M28.6758 36.7344H14.7678C14.5325 36.7344 14.3418 36.9251 14.3418 37.1604V38.8864C14.3418 39.1216 14.5325 39.3124 14.7678 39.3124H28.6758C28.9111 39.3124 29.1018 39.1216 29.1018 38.8864V37.1604C29.1018 36.9251 28.9111 36.7344 28.6758 36.7344Z" fill="#8D7F89"/>
<path d="M21.7229 45.5225C20.5449 45.5186 19.4076 45.0912 18.5186 44.3183C17.6297 43.5454 17.0484 42.4785 16.8809 41.3125H26.5649C26.3977 42.4787 25.8165 43.5458 24.9275 44.3188C24.0385 45.0918 22.901 45.519 21.7229 45.5225Z" fill="#8D7F89"/>
<path d="M74.3812 58.3335H74.3532L74.1072 58.3015C73.9358 58.2881 73.7638 58.3192 73.6079 58.3918C73.452 58.4643 73.3174 58.5758 73.2172 58.7155C73.1168 58.8551 73.0541 59.0183 73.0352 59.1893C73.0162 59.3603 73.0417 59.5332 73.1092 59.6915L75.9332 66.3075C75.9848 66.4283 76.0597 66.5378 76.1536 66.6296C76.2475 66.7215 76.3586 66.794 76.4806 66.8429C76.6025 66.8918 76.7329 66.9163 76.8642 66.9148C76.9956 66.9134 77.1254 66.8861 77.2462 66.8345C77.367 66.7829 77.4765 66.708 77.5684 66.6141C77.6602 66.5201 77.7327 66.409 77.7816 66.2871C77.8306 66.1652 77.855 66.0348 77.8536 65.9035C77.8521 65.7721 77.8248 65.6423 77.7732 65.5215L75.5272 60.2635C77.2468 59.9303 78.7929 58.9989 79.8912 57.6344C80.9895 56.2699 81.5691 54.5606 81.5272 52.8095C81.5261 52.3202 81.4752 51.8324 81.3752 51.3535C82.1378 50.6284 82.7431 49.7543 83.1536 48.7855C83.564 47.8166 83.7709 46.7737 83.7612 45.7215C83.8217 43.7873 83.1133 41.9079 81.7913 40.4948C80.4692 39.0816 78.6411 38.2498 76.7072 38.1815C76.4665 38.1822 76.226 38.1975 75.9872 38.2275C75.5222 36.5755 74.5393 35.1164 73.1831 34.0647C71.8269 33.0131 70.1689 32.4245 68.4532 32.3855C66.7565 32.3859 65.1099 32.9604 63.7812 34.0155C63.198 33.093 62.3909 32.3332 61.435 31.8066C60.4791 31.28 59.4055 31.0039 58.3142 31.0039C57.2229 31.0039 56.1493 31.28 55.1934 31.8066C54.2375 32.3332 53.4304 33.093 52.8472 34.0155C51.2342 33.7987 49.5941 34.0997 48.1632 34.875C46.7323 35.6503 45.5845 36.8599 44.8852 38.3295C43.4358 38.5674 42.1218 39.3227 41.1866 40.4553C40.2514 41.588 39.7585 43.0212 39.7992 44.4895C39.7991 45.8339 40.2186 47.1449 40.9992 48.2395C40.4422 49.3462 40.1537 50.5685 40.1572 51.8075C40.0978 53.7392 40.8049 55.616 42.1242 57.0282C43.4435 58.4405 45.2679 59.2735 47.1992 59.3455C48.8878 59.3425 50.5123 58.6993 51.7452 57.5455C52.5863 58.9928 53.9246 60.0851 55.5111 60.6193C57.0975 61.1535 58.824 61.0932 60.3692 60.4495C61.0869 61.79 62.2343 62.8504 63.6271 63.4605C65.0199 64.0705 66.5773 64.1948 68.0492 63.8135L71.5532 69.0135C71.7012 69.2336 71.9306 69.3859 72.1909 69.4369C72.4512 69.4879 72.7211 69.4335 72.9412 69.2855C73.1613 69.1375 73.3137 68.9081 73.3647 68.6478C73.4157 68.3875 73.3612 68.1176 73.2132 67.8975L69.2852 62.0655C69.1576 61.876 68.9689 61.7359 68.7505 61.6686C68.5322 61.6013 68.2974 61.6108 68.0852 61.6955C66.9884 62.1447 65.7621 62.1619 64.6531 61.7438C63.544 61.3256 62.6344 60.503 62.1072 59.4415C64.1485 58.2261 66.4426 57.4979 68.8112 57.3135C69.0756 57.2935 69.3213 57.1694 69.4942 56.9684C69.6671 56.7673 69.7531 56.5059 69.7332 56.2415C69.726 56.1094 69.6922 55.9802 69.6337 55.8616C69.5752 55.7429 69.4934 55.6374 69.393 55.5512C69.2927 55.4651 69.1759 55.4001 69.0498 55.3603C68.9237 55.3205 68.7908 55.3066 68.6592 55.3195C65.6753 55.5431 62.801 56.5398 60.3192 58.2115C60.3012 58.2115 60.2792 58.2115 60.2612 58.2335C59.6152 58.6258 58.8878 58.8648 58.135 58.9319C57.3821 58.9991 56.6239 58.8927 55.9187 58.6209C55.2134 58.3491 54.5799 57.9192 54.0668 57.3642C53.5538 56.8092 53.1748 56.1439 52.9592 55.4195C52.9592 55.4075 52.9432 55.4015 52.9392 55.3915C52.6826 54.6183 52.3594 53.8688 51.9732 53.1515C52.537 52.5918 52.9462 51.8957 53.1611 51.131C53.3759 50.3662 53.3891 49.5588 53.1992 48.7875C53.1671 48.6563 53.1087 48.5331 53.0277 48.4251C52.9466 48.3171 52.8446 48.2267 52.7276 48.1592C52.6107 48.0917 52.4813 48.0487 52.3472 48.0326C52.2132 48.0165 52.0773 48.0277 51.9477 48.0655C51.8181 48.1033 51.6975 48.167 51.5931 48.2527C51.4888 48.3384 51.4029 48.4444 51.3407 48.5642C51.2784 48.684 51.241 48.8151 51.2308 48.9497C51.2206 49.0844 51.2377 49.2197 51.2812 49.3475C51.3602 49.7111 51.3602 50.0875 51.2811 50.4512C51.2021 50.8149 51.046 51.1574 50.8232 51.4555C50.0653 50.4545 48.998 49.7317 47.7872 49.3995C47.6601 49.3773 47.5298 49.3805 47.4039 49.4087C47.278 49.437 47.1589 49.4897 47.0534 49.564C46.9479 49.6383 46.8581 49.7327 46.7891 49.8417C46.7201 49.9508 46.6732 50.0723 46.6512 50.1995C46.6049 50.4575 46.6605 50.7235 46.8063 50.9414C46.9522 51.1593 47.1769 51.312 47.4332 51.3675C47.5212 51.3855 49.4572 51.8875 50.8572 55.5515C50.418 56.1017 49.8628 56.5483 49.2312 56.8594C48.5996 57.1705 47.9071 57.3386 47.2032 57.3515C45.7975 57.283 44.4761 56.6604 43.5285 55.6198C42.5808 54.5792 42.0842 53.2055 42.1472 51.7995C42.1431 50.6913 42.4516 49.6043 43.0372 48.6635C43.1524 48.4791 43.2043 48.2622 43.1852 48.0457C43.1661 47.8292 43.0769 47.6248 42.9312 47.4635C42.1984 46.6436 41.7958 45.5811 41.8012 44.4815C41.7523 43.4239 42.1198 42.3892 42.825 41.5995C43.5302 40.8099 44.5168 40.328 45.5732 40.2575C45.7632 40.2524 45.9479 40.1933 46.1055 40.087C46.2632 39.9807 46.3872 39.8317 46.4632 39.6575C46.8931 38.5802 47.629 37.6524 48.5801 36.9885C49.5312 36.3246 50.6558 35.9537 51.8152 35.9215C52.251 35.926 52.6847 35.9823 53.1072 36.0895C53.3226 36.1418 53.5493 36.1211 53.7517 36.0306C53.9541 35.9401 54.1206 35.7849 54.2252 35.5895C54.5786 34.8242 55.1413 34.1745 55.8483 33.7155C56.5553 33.2564 57.3777 33.0067 58.2206 32.9952C59.0634 32.9837 59.8923 33.2109 60.6116 33.6505C61.3308 34.09 61.911 34.7241 62.2852 35.4795C61.4474 36.361 60.8353 37.4321 60.5012 38.6015C59.8074 38.5579 59.1118 38.6543 58.456 38.8848C57.8001 39.1154 57.1972 39.4754 56.6832 39.9435C56.5179 40.1336 56.4305 40.3791 56.4384 40.6309C56.4463 40.8827 56.5489 41.1222 56.7258 41.3016C56.9027 41.481 57.1407 41.587 57.3924 41.5985C57.644 41.61 57.8908 41.526 58.0832 41.3635C58.6698 40.8474 59.4281 40.5692 60.2092 40.5835C60.1963 41.464 60.3538 42.3388 60.6732 43.1595C60.7238 43.2807 60.7977 43.3907 60.8908 43.4834C60.9839 43.576 61.0943 43.6494 61.2158 43.6994C61.3372 43.7493 61.4674 43.7749 61.5987 43.7745C61.73 43.7742 61.86 43.748 61.9812 43.6975C62.1024 43.6469 62.2125 43.573 62.3051 43.4799C62.3978 43.3868 62.4711 43.2764 62.5211 43.1549C62.5711 43.0334 62.5966 42.9033 62.5963 42.772C62.596 42.6407 62.5698 42.5107 62.5192 42.3895C62.1444 41.3362 62.1024 40.1932 62.399 39.1153C62.6956 38.0374 63.3164 37.0767 64.1772 36.3635C64.1903 36.3483 64.2023 36.3323 64.2132 36.3155C64.2252 36.3155 64.2412 36.3015 64.2512 36.2915C64.7774 35.6954 65.4235 35.2172 66.1473 34.888C66.871 34.5589 67.6561 34.3863 68.4512 34.3815C69.8726 34.436 71.2302 34.9856 72.2893 35.9351C73.3484 36.8846 74.0424 38.1745 74.2512 39.5815C74.2763 39.7169 74.3292 39.8457 74.4064 39.9597C74.4836 40.0738 74.5836 40.1706 74.7 40.2442C74.8164 40.3178 74.9468 40.3666 75.083 40.3875C75.2191 40.4083 75.3581 40.4008 75.4912 40.3655C75.8816 40.2533 76.2851 40.1928 76.6912 40.1855C78.0944 40.2544 79.4134 40.8757 80.3603 41.9136C81.3071 42.9515 81.805 44.3218 81.7452 45.7255C81.7464 46.9477 81.3583 48.1386 80.6372 49.1255C79.8897 47.5731 78.5602 46.378 76.9372 45.7995C75.7301 45.355 74.4398 45.1823 73.1583 45.2936C71.8768 45.4049 70.6356 45.7975 69.5232 46.4435C69.311 46.6026 69.1708 46.8395 69.1333 47.102C69.0957 47.3646 69.1641 47.6313 69.3232 47.8435C69.4823 48.0556 69.7192 48.1959 69.9818 48.2334C70.2443 48.2709 70.511 48.2026 70.7232 48.0435C71.4639 47.6063 72.3017 47.3603 73.1612 47.3275C73.2488 47.8918 73.1669 48.4694 72.9258 48.9871C72.6848 49.5048 72.2954 49.9393 71.8072 50.2355C71.693 50.3003 71.5926 50.3871 71.5119 50.4907C71.4312 50.5944 71.3716 50.7129 71.3367 50.8396C71.3018 50.9663 71.2922 51.0986 71.3084 51.2289C71.3246 51.3593 71.3663 51.4852 71.4312 51.5995C71.4961 51.7137 71.5828 51.8141 71.6865 51.8948C71.7901 51.9755 71.9087 52.035 72.0353 52.07C72.162 52.1049 72.2943 52.1145 72.4247 52.0983C72.555 52.0821 72.681 52.0403 72.7952 51.9755C73.5821 51.517 74.223 50.845 74.6435 50.0372C75.064 49.2294 75.247 48.319 75.1712 47.4115C75.5368 47.4688 75.8964 47.5599 76.2452 47.6835C77.0193 47.9491 77.7088 48.4158 78.243 49.0358C78.7772 49.6558 79.1369 50.4067 79.2852 51.2115V51.2375V51.2515C79.4303 51.7577 79.5077 52.2809 79.5152 52.8075C79.543 53.5079 79.4321 54.207 79.1888 54.8644C78.9455 55.5218 78.5746 56.1246 78.0974 56.6382C77.6203 57.1517 77.0463 57.5659 76.4086 57.8568C75.7708 58.1478 75.0818 58.3098 74.3812 58.3335Z" fill="#231F20"/>
<path d="M90.6889 43.148C89.7554 36.8892 86.9201 31.0687 82.5673 26.4754C78.2144 21.8822 72.5546 18.7384 66.3549 17.47C65.7549 17.352 65.1549 17.254 64.5549 17.172C54.8389 15.852 41.1869 21.288 37.0949 31.328L29.4949 57.964C29.3536 58.4596 29.3292 58.9812 29.4234 59.4879C29.5177 59.9945 29.7281 60.4724 30.0382 60.8841C30.3483 61.2957 30.7496 61.6298 31.2105 61.8602C31.6715 62.0907 32.1796 62.2111 32.6949 62.212H34.5669C34.8638 62.2131 35.1482 62.3318 35.3577 62.5421C35.5673 62.7524 35.6849 63.0372 35.6849 63.334V70.05C35.6849 71.8005 36.3803 73.4792 37.618 74.7169C38.8558 75.9547 40.5345 76.65 42.2849 76.65H44.5029C45.2786 76.6511 46.0222 76.9597 46.5707 77.5082C47.1192 78.0567 47.4279 78.8003 47.4289 79.576V90C47.4289 90.2653 47.5343 90.5196 47.7218 90.7072C47.9093 90.8947 48.1637 91 48.4289 91C48.6941 91 48.9485 90.8947 49.136 90.7072C49.3236 90.5196 49.4289 90.2653 49.4289 90V79.568C49.4279 78.2619 48.9085 77.0096 47.985 76.086C47.0614 75.1624 45.8091 74.6431 44.5029 74.642H42.2929C41.6888 74.642 41.0907 74.5231 40.5326 74.2919C39.9745 74.0607 39.4674 73.7219 39.0402 73.2947C38.6131 72.8676 38.2742 72.3605 38.0431 71.8024C37.8119 71.2443 37.6929 70.6461 37.6929 70.042V63.334C37.6929 62.5067 37.3645 61.7132 36.7799 61.1279C36.1953 60.5425 35.4022 60.2131 34.5749 60.212H32.7029C32.4965 60.2118 32.293 60.1638 32.1083 60.0717C31.9236 59.9796 31.7627 59.846 31.6383 59.6813C31.5139 59.5166 31.4294 59.3253 31.3913 59.1224C31.3532 58.9196 31.3627 58.7106 31.4189 58.512L38.9789 31.98C42.5789 23.15 55.3189 17.922 64.2789 19.154C64.8369 19.23 65.4029 19.324 65.9649 19.432C71.0742 20.4612 75.8069 22.8623 79.6549 26.3777C83.5029 29.893 86.321 34.3898 87.8067 39.3855C89.2925 44.3812 89.3898 49.6872 88.0883 54.734C86.7867 59.7808 84.1354 64.378 80.4189 68.032C79.0199 69.3802 77.9052 70.9952 77.1409 72.7815C76.3766 74.5678 75.9781 76.4891 75.9689 78.432V90C75.9689 90.2653 76.0743 90.5196 76.2618 90.7072C76.4494 90.8947 76.7037 91 76.9689 91C77.2341 91 77.4885 90.8947 77.676 90.7072C77.8636 90.5196 77.9689 90.2653 77.9689 90V78.436C77.9787 76.7585 78.3249 75.1 78.9868 73.5586C79.6488 72.0172 80.6132 70.6242 81.8229 69.462C85.271 66.0858 87.8716 61.9418 89.4125 57.3686C90.9534 52.7954 91.3907 47.9226 90.6889 43.148Z" fill="#231F20"/>
<path d="M69.3272 47.8508C69.406 47.9558 69.5047 48.0443 69.6177 48.1113C69.7307 48.1782 69.8558 48.2222 69.9858 48.2407C70.1158 48.2593 70.2482 48.2521 70.3754 48.2195C70.5026 48.1869 70.6221 48.1296 70.7272 48.0508C71.4679 47.6136 72.3057 47.3676 73.1652 47.3348C73.2528 47.8991 73.1709 48.4767 72.9298 48.9944C72.6888 49.5121 72.2994 49.9466 71.8112 50.2428C71.5805 50.3738 71.4112 50.5911 71.3407 50.8469C71.2702 51.1027 71.3042 51.376 71.4352 51.6068C71.5662 51.8375 71.7835 52.0068 72.0393 52.0773C72.2951 52.1478 72.5685 52.1138 72.7992 51.9828C73.5861 51.5244 74.227 50.8523 74.6475 50.0445C75.068 49.2367 75.251 48.3263 75.1752 47.4188C75.5408 47.4761 75.9004 47.5672 76.2492 47.6908C77.0233 47.9564 77.7128 48.4231 78.247 49.0431C78.7812 49.6631 79.1409 50.414 79.2892 51.2188V51.2448V51.2588C79.4343 51.765 79.5117 52.2882 79.5192 52.8148C79.5467 53.5162 79.4351 54.2161 79.1908 54.8742C78.9465 55.5323 78.5743 56.1355 78.0958 56.649C77.6172 57.1626 77.0417 57.5763 76.4024 57.8663C75.7632 58.1563 75.0728 58.3169 74.3712 58.3388H74.3432L74.0972 58.3068C73.9258 58.2934 73.7538 58.3245 73.5979 58.3971C73.442 58.4696 73.3074 58.5811 73.2072 58.7208C73.1068 58.8604 73.0441 59.0236 73.0252 59.1946C73.0062 59.3656 73.0317 59.5385 73.0992 59.6968L75.9232 66.3128C75.9645 66.3939 76.0163 66.4692 76.0772 66.5368C75.2189 67.1745 74.2567 67.659 73.2332 67.9688C73.2212 67.9488 73.2212 67.9248 73.2072 67.9048L69.2792 62.0728C69.1515 61.8833 68.9628 61.7433 68.7445 61.6759C68.5262 61.6086 68.2914 61.6181 68.0792 61.7028C66.9824 62.152 65.7561 62.1693 64.6471 61.7511C63.538 61.3329 62.6284 60.5103 62.1012 59.4488C64.1425 58.2334 66.4366 57.5052 68.8052 57.3208C69.0696 57.3008 69.3153 57.1767 69.4882 56.9757C69.6611 56.7747 69.747 56.5132 69.7272 56.2488C69.72 56.1167 69.6862 55.9875 69.6277 55.8689C69.5692 55.7502 69.4873 55.6447 69.387 55.5585C69.2867 55.4724 69.1699 55.4074 69.0438 55.3676C68.9177 55.3278 68.7848 55.3139 68.6532 55.3268C65.6693 55.5504 62.795 56.5471 60.3132 58.2188C60.2952 58.2188 60.2732 58.2188 60.2552 58.2408C59.609 58.6319 58.8817 58.8696 58.1293 58.9358C57.3768 59.002 56.6192 58.8948 55.9147 58.6225C55.2101 58.3501 54.5774 57.9199 54.0651 57.3649C53.5527 56.8099 53.1744 56.1448 52.9592 55.4208C52.9592 55.4088 52.9432 55.4028 52.9392 55.3928C52.6826 54.6196 52.3594 53.8701 51.9732 53.1528C52.537 52.5931 52.9462 51.897 53.1611 51.1323C53.3759 50.3675 53.3891 49.5601 53.1992 48.7888C53.1671 48.6576 53.1087 48.5344 53.0277 48.4264C52.9466 48.3184 52.8446 48.228 52.7276 48.1605C52.6107 48.0931 52.4813 48.05 52.3472 48.0339C52.2132 48.0178 52.0773 48.029 51.9477 48.0668C51.8181 48.1046 51.6975 48.1683 51.5931 48.254C51.4888 48.3397 51.4029 48.4457 51.3407 48.5655C51.2784 48.6853 51.241 48.8164 51.2308 48.951C51.2206 49.0857 51.2377 49.221 51.2812 49.3488C51.3602 49.7125 51.3602 50.0888 51.2811 50.4525C51.2021 50.8162 51.046 51.1587 50.8232 51.4568C50.0653 50.4558 48.998 49.733 47.7872 49.4008C47.6601 49.3787 47.5298 49.3818 47.4039 49.41C47.278 49.4383 47.1589 49.491 47.0534 49.5653C46.9479 49.6396 46.8581 49.734 46.7891 49.843C46.7201 49.9521 46.6732 50.0736 46.6512 50.2008C46.6049 50.4588 46.6605 50.7248 46.8063 50.9427C46.9522 51.1606 47.1769 51.3133 47.4332 51.3688C47.5212 51.3868 49.4572 51.8888 50.8572 55.5528C50.4179 56.103 49.8627 56.5496 49.2312 56.8607C48.5996 57.1718 47.9071 57.3399 47.2032 57.3528C45.7974 57.2844 44.4761 56.6617 43.5285 55.6211C42.5808 54.5805 42.0842 53.2068 42.1472 51.8008C42.1431 50.6926 42.4516 49.6057 43.0372 48.6648C43.1524 48.4804 43.2043 48.2636 43.1852 48.047C43.1661 47.8305 43.0769 47.6261 42.9312 47.4648C42.1984 46.6449 41.7958 45.5824 41.8012 44.4828C41.7523 43.4252 42.1198 42.3905 42.825 41.6009C43.5302 40.8112 44.5168 40.3293 45.5732 40.2588C45.7632 40.2537 45.9479 40.1946 46.1055 40.0883C46.2632 39.982 46.3872 39.833 46.4632 39.6588C46.8931 38.5815 47.629 37.6537 48.5801 36.9898C49.5312 36.3259 50.6558 35.955 51.8152 35.9228C52.251 35.9273 52.6847 35.9837 53.1072 36.0908C53.3226 36.1432 53.5493 36.1225 53.7517 36.0319C53.9541 35.9414 54.1206 35.7863 54.2252 35.5908C54.5786 34.8255 55.1413 34.1758 55.8483 33.7168C56.5553 33.2577 57.3777 33.008 58.2205 32.9965C59.0634 32.985 59.8923 33.2122 60.6116 33.6518C61.3308 34.0914 61.911 34.7254 62.2852 35.4808C61.4474 36.3623 60.8353 37.4334 60.5012 38.6028C59.8074 38.5592 59.1118 38.6556 58.456 38.8861C57.8001 39.1167 57.1972 39.4767 56.6832 39.9448C56.5179 40.1349 56.4305 40.3804 56.4384 40.6322C56.4463 40.884 56.5489 41.1235 56.7258 41.3029C56.9027 41.4823 57.1407 41.5883 57.3924 41.5998C57.644 41.6113 57.8908 41.5273 58.0832 41.3648C58.6698 40.8487 59.4281 40.5705 60.2092 40.5848C60.1963 41.4653 60.3538 42.3401 60.6732 43.1608C60.7238 43.282 60.7977 43.3921 60.8908 43.4847C60.9839 43.5773 61.0943 43.6507 61.2158 43.7007C61.3372 43.7506 61.4673 43.7762 61.5987 43.7759C61.73 43.7755 61.86 43.7493 61.9812 43.6988C62.1024 43.6482 62.2125 43.5743 62.3051 43.4812C62.3978 43.3881 62.4711 43.2777 62.5211 43.1562C62.5711 43.0347 62.5966 42.9046 62.5963 42.7733C62.596 42.642 62.5698 42.512 62.5192 42.3908C62.1444 41.3375 62.1024 40.1945 62.399 39.1166C62.6956 38.0387 63.3164 37.078 64.1772 36.3648C64.1903 36.3496 64.2023 36.3336 64.2132 36.3168C64.2252 36.3168 64.2412 36.3048 64.2512 36.2928C64.7774 35.6967 65.4235 35.2185 66.1473 34.8893C66.871 34.5602 67.6561 34.3876 68.4512 34.3828C69.8726 34.4373 71.2302 34.9869 72.2893 35.9364C73.3484 36.886 74.0424 38.1758 74.2512 39.5828C74.2763 39.7182 74.3292 39.847 74.4064 39.961C74.4836 40.0751 74.5836 40.1719 74.7 40.2455C74.8164 40.3191 74.9468 40.3679 75.083 40.3888C75.2191 40.4096 75.3581 40.4021 75.4912 40.3668C75.8816 40.2546 76.2851 40.1941 76.6912 40.1868C78.0944 40.2558 79.4134 40.877 80.3603 41.9149C81.3071 42.9528 81.805 44.3231 81.7452 45.7268C81.7464 46.949 81.3583 48.1399 80.6372 49.1268C79.8897 47.5744 78.5602 46.3793 76.9372 45.8008C75.7301 45.3563 74.4398 45.1836 73.1583 45.2949C71.8768 45.4062 70.6356 45.7988 69.5232 46.4448C69.4176 46.5239 69.3287 46.6232 69.2616 46.7368C69.1946 46.8505 69.1507 46.9763 69.1324 47.107C69.1142 47.2377 69.1221 47.3707 69.1555 47.4983C69.1889 47.626 69.2473 47.7458 69.3272 47.8508Z" fill="#E57E70"/>
</svg>
