<svg width="100" height="100" viewBox="0 0 100 100" fill="none" xmlns="http://www.w3.org/2000/svg">
<path d="M79.6866 40.6249V39.0311C79.6866 38.0624 80.1398 37.1405 80.921 36.5624C83.9679 34.2811 85.9366 30.6561 85.9366 26.5624C85.9366 19.1874 79.546 13.3124 72.0148 14.1405C66.5148 14.7499 61.9523 19.0936 61.0929 24.5624C60.3273 29.453 62.421 33.9218 65.9523 36.5624C66.7335 37.1405 67.1866 38.0624 67.1866 39.0468V40.6405" fill="#FFBC0A"/>
<path d="M75 28.125H71.875V40.625H75V28.125Z" fill="#6096BA"/>
<path d="M38.4062 62.5625L33.7187 64.5781C32.1406 65.25 30.3594 65.25 28.7969 64.5781L24.1094 62.5625C21.8125 61.5781 20.3281 59.3125 20.3281 56.8125V48.4375C20.3281 43.2656 24.5313 39.0625 29.7031 39.0625H32.8281C38 39.0625 42.2031 43.2656 42.2031 48.4375V56.8125C42.2031 59.3125 40.7187 61.5781 38.4219 62.5625H38.4062Z" fill="#DDA15E"/>
<path d="M51.7812 71.875C48.9375 68.9844 44.9844 67.1875 40.625 67.1875H35.9375C35.9375 69.7812 33.8437 71.875 31.25 71.875C28.6563 71.875 26.5625 69.7812 26.5625 67.1875H21.875C13.25 67.1875 6.25 74.1875 6.25 82.8125V93.75H40.625L46.875 71.875H51.7812Z" fill="#274C77"/>
<path d="M23.4375 87.5H26.5625C28.2813 87.5 29.6875 88.9062 29.6875 90.625V93.75H23.4375V87.5Z" fill="#DDA15E"/>
<path d="M15.625 51.1406C15.1719 51.4062 14.625 51.5625 14.0625 51.5625C12.3437 51.5625 10.9375 50.1563 10.9375 48.4375C10.9375 46.7187 12.3437 45.3125 14.0625 45.3125C14.7187 45.3125 15.3281 45.5156 15.8438 45.875" fill="#274C77"/>
<path d="M46.875 51.1406C47.3281 51.4062 47.875 51.5625 48.4375 51.5625C50.1562 51.5625 51.5625 50.1563 51.5625 48.4375C51.5625 46.7187 50.1562 45.3125 48.4375 45.3125C47.7812 45.3125 47.1719 45.5156 46.6562 45.875" fill="#274C77"/>
<path d="M26.5625 63.6094L28.7813 64.5625C30.3594 65.25 32.1406 65.25 33.7187 64.5625L35.9375 63.6094V67.1875C35.9375 69.7813 33.8437 71.875 31.25 71.875C28.6563 71.875 26.5625 69.7813 26.5625 67.1875V63.6094Z" fill="#BC6C25"/>
<path d="M40.625 93.75L46.875 71.875H81.25L75 93.75" fill="#8B8C89"/>
<path d="M41.2344 44.3437C40.3437 43.9844 39.3125 43.75 38.0156 43.75C31.25 43.75 31.25 50 24.4687 50C22.7031 50 21.3906 49.5781 20.3125 48.9531V48.4375C20.3125 43.2656 24.5156 39.0625 29.6875 39.0625H32.8125C36.5156 39.0625 39.7187 41.2187 41.2344 44.3437Z" fill="#274C77"/>
<path d="M42.1875 55.625V48.4375C42.1875 43.2656 37.9844 39.0625 32.8125 39.0625H29.6875C24.5156 39.0625 20.3125 43.2656 20.3125 48.4375V54.6875H17.1875C16.3281 54.6875 15.625 53.9844 15.625 53.125V48.4375C15.625 39.8125 22.625 32.8125 31.25 32.8125C35.5625 32.8125 39.4687 34.5625 42.2969 37.3906C45.125 40.2188 46.875 44.125 46.875 48.4375V53.4063C46.875 54.1563 46.3438 54.7969 45.625 54.9375L42.1875 55.625Z" fill="#E7ECEF"/>
<path d="M60.9375 81.25C61.7969 81.25 62.5 81.9531 62.5 82.8125C62.5 83.6719 61.7969 84.375 60.9375 84.375V81.25Z" fill="#A3CEF1"/>
<path d="M31.25 57.8136C31.0781 56.9698 31.625 56.1417 32.4688 55.9698L45.3125 53.4073V48.9386C45.3125 41.4542 39.6719 34.9073 32.2188 34.4073C24.0313 33.8604 17.1875 40.3604 17.1875 48.4386V53.1261H20.3125V56.2511H17.1875C15.4687 56.2511 14.0625 54.8448 14.0625 53.1261V48.9386C14.0625 40.0011 20.6875 32.1573 29.5938 31.3292C39.8125 30.3604 48.4375 38.4073 48.4375 48.4386V53.4073C48.4375 54.8917 47.3906 56.1729 45.9219 56.4698L33.0781 59.0323C32.2344 59.2042 31.4062 58.6573 31.2344 57.8136H31.25Z" fill="#6096BA"/>
<path d="M31.25 93.75H28.125V90.625C28.125 89.7656 27.4219 89.0625 26.5625 89.0625H15.625C14.7656 89.0625 14.0625 88.3594 14.0625 87.5V81.25C14.0625 80.8281 14.2344 80.4375 14.5156 80.1406L16.5312 78.125C17.1406 77.5156 18.125 77.5156 18.7344 78.125C19.3437 78.7344 19.3437 79.7187 18.7344 80.3281L17.1719 81.8906V85.9375H26.5469C29.1406 85.9375 31.2344 88.0313 31.2344 90.625V93.75H31.25Z" fill="#6096BA"/>
<path d="M81.25 93.75H3.125V96.875H81.25V93.75Z" fill="#A3CEF1"/>
<path d="M79.6875 40.625H67.1875C66.3246 40.625 65.625 41.3246 65.625 42.1875V45.3125C65.625 46.1754 66.3246 46.875 67.1875 46.875H79.6875C80.5504 46.875 81.25 46.1754 81.25 45.3125V42.1875C81.25 41.3246 80.5504 40.625 79.6875 40.625Z" fill="#6096BA"/>
<path d="M79.6875 46.875C79.6875 50.3281 76.8906 53.125 73.4375 53.125C69.9844 53.125 67.1875 50.3281 67.1875 46.875" fill="#274C77"/>
<path d="M73.4375 29.6875C75.1634 29.6875 76.5625 28.2884 76.5625 26.5625C76.5625 24.8366 75.1634 23.4375 73.4375 23.4375C71.7116 23.4375 70.3125 24.8366 70.3125 26.5625C70.3125 28.2884 71.7116 29.6875 73.4375 29.6875Z" fill="#F5DD90"/>
<path d="M75 3.125H71.875V9.375H75V3.125Z" fill="#F5DD90"/>
<path d="M57.9714 8.88404L55.7617 11.0938L60.1811 15.5132L62.3908 13.3035L57.9714 8.88404Z" fill="#F5DD90"/>
<path d="M56.25 25H50V28.125H56.25V25Z" fill="#F5DD90"/>
<path d="M60.1753 37.6118L55.7559 42.0312L57.9656 44.241L62.385 39.8215L60.1753 37.6118Z" fill="#F5DD90"/>
<path d="M86.6941 37.6184L84.4844 39.8281L88.9038 44.2475L91.1135 42.0378L86.6941 37.6184Z" fill="#F5DD90"/>
<path d="M96.875 25H90.625V28.125H96.875V25Z" fill="#F5DD90"/>
<path d="M88.9097 8.88918L84.4902 13.3086L86.6999 15.5183L91.1194 11.0989L88.9097 8.88918Z" fill="#F5DD90"/>
<path d="M75 56.25H71.875V59.375H75V56.25Z" fill="#6096BA"/>
<path d="M70.3125 62.5H67.1875V65.625H70.3125V62.5Z" fill="#6096BA"/>
<path d="M64.0625 65.625H60.9375V68.75H64.0625V65.625Z" fill="#6096BA"/>
</svg>
